URWGroteskGPL-BoldItalic.ufo
<glyph name="exclam" format="2">
  <advance width="321"/>
  <unicode hex="0021"/>
  <outline>
    <contour>
      <point x="102" y="229" type="line"/>
      <point x="220" y="229" type="line"/>
      <point x="313" y="471" type="line"/>
      <point x="355" y="667" type="line"/>
      <point x="155" y="667" type="line"/>
      <point x="113" y="469" type="line"/>
    </contour>
    <contour>
      <point x="137" y="180" type="curve" smooth="yes"/>
      <point x="76" y="180"/>
      <point x="32" y="138"/>
      <point x="32" y="81" type="curve" smooth="yes"/>
      <point x="32" y="25"/>
      <point x="71" y="-13"/>
      <point x="129" y="-13" type="curve" smooth="yes"/>
      <point x="189" y="-13"/>
      <point x="232" y="30"/>
      <point x="232" y="90" type="curve" smooth="yes"/>
      <point x="232" y="144"/>
      <point x="194" y="180"/>
    </contour>
  </outline>
</glyph>
<glyph name="quotedbl" format="2">
  <advance width="413"/>
  <unicode hex="0022"/>
  <outline>
    <contour>
      <point x="199" y="399" type="line"/>
      <point x="280" y="667" type="line"/>
      <point x="136" y="667" type="line"/>
      <point x="103" y="399" type="line"/>
    </contour>
    <contour>
      <point x="386" y="399" type="line"/>
      <point x="467" y="667" type="line"/>
      <point x="323" y="667" type="line"/>
      <point x="290" y="399" type="line"/>
    </contour>
  </outline>
</glyph>
<glyph name="numbersign" format="2">
  <advance width="500"/>
  <unicode hex="0023"/>
  <outline>
    <contour>
      <point x="43" y="210" type="line"/>
      <point x="19" y="101" type="line"/>
      <point x="113" y="101" type="line"/>
      <point x="91" y="0" type="line" name="hr01"/>
      <point x="144" y="0" type="line"/>
      <point x="165" y="101" type="line" name="hr02"/>
      <point x="271" y="101" type="line"/>
      <point x="251" y="0" type="line" name="hr03"/>
      <point x="302" y="0" type="line"/>
      <point x="323" y="101" type="line" name="hr04"/>
      <point x="416" y="101" type="line"/>
      <point x="438" y="210" type="line"/>
      <point x="346" y="210" type="line"/>
      <point x="398" y="458" type="line"/>
      <point x="488" y="458" type="line"/>
      <point x="512" y="569" type="line"/>
      <point x="420" y="569" type="line"/>
      <point x="442" y="667" type="line" name="hr05"/>
      <point x="388" y="667" type="line"/>
      <point x="368" y="569" type="line" name="hr06"/>
      <point x="261" y="569" type="line"/>
      <point x="282" y="667" type="line" name="hr07"/>
      <point x="231" y="667" type="line"/>
      <point x="211" y="569" type="line" name="hr08"/>
      <point x="118" y="569" type="line"/>
      <point x="94" y="458" type="line"/>
      <point x="188" y="458" type="line"/>
      <point x="135" y="210" type="line"/>
    </contour>
    <contour>
      <point x="187" y="210" type="line"/>
      <point x="239" y="458" type="line"/>
      <point x="345" y="458" type="line"/>
      <point x="293" y="210" type="line"/>
    </contour>
  </outline>
</glyph>
<glyph name="dollar" format="2">
  <advance width="678"/>
  <unicode hex="0024"/>
  <outline>
    <contour>
      <point x="1" y="166" type="line"/>
      <point x="1" y="147" type="line" smooth="yes"/>
      <point x="1" y="102"/>
      <point x="25" y="59"/>
      <point x="67" y="29" type="curve" smooth="yes"/>
      <point x="105" y="1"/>
      <point x="145" y="-9"/>
      <point x="247" y="-14" type="curve"/>
      <point x="222" y="-133" type="line"/>
      <point x="276" y="-133" type="line"/>
      <point x="302" y="-14" type="line"/>
      <point x="381" y="-12"/>
      <point x="431" y="-5"/>
      <point x="474" y="10" type="curve"/>
      <point x="576" y="48"/>
      <point x="643" y="136"/>
      <point x="643" y="233" type="curve" smooth="yes"/>
      <point x="643" y="272"/>
      <point x="627" y="312"/>
      <point x="601" y="338" type="curve" smooth="yes"/>
      <point x="560" y="378"/>
      <point x="524" y="391"/>
      <point x="413" y="407" type="curve" smooth="yes"/>
      <point x="392" y="410" type="line"/>
      <point x="423" y="557" type="line"/>
      <point x="467" y="556"/>
      <point x="490" y="526" name="hr01"/>
      <point x="490" y="472" type="curve" smooth="yes"/>
      <point x="490" y="468"/>
      <point x="490" y="461"/>
      <point x="489" y="452" type="curve"/>
      <point x="677" y="500" type="line"/>
      <point x="678" y="510"/>
      <point x="679" y="518"/>
      <point x="679" y="522" type="curve" smooth="yes"/>
      <point x="679" y="564"/>
      <point x="655" y="605"/>
      <point x="613" y="634" type="curve" smooth="yes"/>
      <point x="574" y="661"/>
      <point x="524" y="674"/>
      <point x="448" y="676" type="curve"/>
      <point x="471" y="782" type="line" name="hr02"/>
      <point x="416" y="782" type="line"/>
      <point x="394" y="676" type="line" name="hr03"/>
      <point x="324" y="674"/>
      <point x="280" y="667"/>
      <point x="239" y="651" type="curve" smooth="yes"/>
      <point x="145" y="614"/>
      <point x="88" y="535"/>
      <point x="88" y="440" type="curve" smooth="yes"/>
      <point x="88" y="374"/>
      <point x="117" y="320"/>
      <point x="171" y="287" type="curve" smooth="yes"/>
      <point x="204" y="266"/>
      <point x="241" y="255"/>
      <point x="302" y="246" type="curve"/>
      <point x="275" y="117" type="line"/>
      <point x="223" y="121"/>
      <point x="197" y="152"/>
      <point x="197" y="208" type="curve"/>
      <point x="197" y="210"/>
      <point x="197" y="215"/>
      <point x="198" y="221" type="curve"/>
    </contour>
    <contour>
      <point x="339" y="420" type="line"/>
      <point x="291" y="429"/>
      <point x="274" y="444"/>
      <point x="274" y="476" type="curve" smooth="yes"/>
      <point x="274" y="524"/>
      <point x="310" y="554"/>
      <point x="368" y="557" type="curve"/>
    </contour>
    <contour>
      <point x="355" y="237" type="line"/>
      <point x="371" y="234" type="line" smooth="yes"/>
      <point x="416" y="226"/>
      <point x="434" y="211"/>
      <point x="434" y="181" type="curve" smooth="yes"/>
      <point x="434" y="139"/>
      <point x="396" y="114"/>
      <point x="329" y="113" type="curve"/>
    </contour>
  </outline>
</glyph>
<glyph name="percent" format="2">
  <advance width="777"/>
  <unicode hex="0025"/>
  <outline>
    <contour>
      <point x="275" y="668" type="curve" smooth="yes"/>
      <point x="175" y="668"/>
      <point x="101" y="587"/>
      <point x="101" y="478" type="curve" smooth="yes"/>
      <point x="101" y="394"/>
      <point x="147" y="346"/>
      <point x="230" y="346" type="curve" smooth="yes"/>
      <point x="279" y="346"/>
      <point x="323" y="364"/>
      <point x="352" y="395" type="curve" smooth="yes"/>
      <point x="385" y="431"/>
      <point x="406" y="486"/>
      <point x="406" y="538" type="curve" smooth="yes"/>
      <point x="406" y="621"/>
      <point x="358" y="668"/>
    </contour>
    <contour>
      <point x="267" y="589" type="curve" smooth="yes"/>
      <point x="294" y="589"/>
      <point x="309" y="571"/>
      <point x="309" y="539" type="curve" smooth="yes"/>
      <point x="309" y="477"/>
      <point x="277" y="425"/>
      <point x="239" y="425" type="curve" smooth="yes"/>
      <point x="211" y="425"/>
      <point x="197" y="443"/>
      <point x="197" y="477" type="curve" smooth="yes"/>
      <point x="197" y="537"/>
      <point x="230" y="589"/>
    </contour>
    <contour>
      <point x="699" y="697" type="line"/>
      <point x="639" y="710" type="line"/>
      <point x="89" y="-90" type="line"/>
      <point x="151" y="-103" type="line"/>
    </contour>
    <contour>
      <point x="595" y="322" type="curve" smooth="yes"/>
      <point x="495" y="322"/>
      <point x="421" y="241"/>
      <point x="421" y="133" type="curve" smooth="yes"/>
      <point x="421" y="48"/>
      <point x="467" y="0"/>
      <point x="550" y="0" type="curve" smooth="yes"/>
      <point x="599" y="0"/>
      <point x="643" y="17"/>
      <point x="672" y="49" type="curve" smooth="yes"/>
      <point x="705" y="85"/>
      <point x="726" y="140"/>
      <point x="726" y="192" type="curve" smooth="yes"/>
      <point x="726" y="274"/>
      <point x="678" y="322"/>
    </contour>
    <contour>
      <point x="587" y="243" type="curve" smooth="yes"/>
      <point x="614" y="243"/>
      <point x="629" y="225"/>
      <point x="629" y="193" type="curve" smooth="yes"/>
      <point x="629" y="131"/>
      <point x="597" y="79"/>
      <point x="559" y="79" type="curve" smooth="yes"/>
      <point x="531" y="79"/>
      <point x="517" y="97"/>
      <point x="517" y="131" type="curve" smooth="yes"/>
      <point x="517" y="191"/>
      <point x="550" y="243"/>
    </contour>
  </outline>
</glyph>
<glyph name="ampersand" format="2">
  <advance width="761"/>
  <unicode hex="0026"/>
  <outline>
    <contour>
      <point x="736" y="135" type="line"/>
      <point x="709" y="142"/>
      <point x="663" y="162"/>
      <point x="633" y="180" type="curve"/>
      <point x="698" y="240"/>
      <point x="755" y="328"/>
      <point x="768" y="387" type="curve"/>
      <point x="580" y="387" type="line"/>
      <point x="576" y="340"/>
      <point x="552" y="288"/>
      <point x="520" y="258" type="curve"/>
      <point x="493" y="278"/>
      <point x="461" y="311"/>
      <point x="445" y="335" type="curve"/>
      <point x="499" y="357"/>
      <point x="528" y="373"/>
      <point x="555" y="393" type="curve"/>
      <point x="603" y="431"/>
      <point x="631" y="484"/>
      <point x="631" y="537" type="curve" smooth="yes"/>
      <point x="631" y="625"/>
      <point x="552" y="684"/>
      <point x="432" y="684" type="curve" smooth="yes"/>
      <point x="287" y="684"/>
      <point x="184" y="596"/>
      <point x="184" y="472" type="curve" smooth="yes"/>
      <point x="184" y="440"/>
      <point x="191" y="405"/>
      <point x="204" y="373" type="curve"/>
      <point x="71" y="329"/>
      <point x="15" y="270" name="hr01"/>
      <point x="15" y="177" type="curve" smooth="yes"/>
      <point x="15" y="65"/>
      <point x="107" y="-13"/>
      <point x="240" y="-13" type="curve" smooth="yes"/>
      <point x="320" y="-13"/>
      <point x="396" y="11"/>
      <point x="470" y="59" type="curve"/>
      <point x="556" y="9"/>
      <point x="579" y="-3"/>
      <point x="605" y="-12" type="curve"/>
    </contour>
    <contour>
      <point x="363" y="148" type="curve"/>
      <point x="344" y="137"/>
      <point x="321" y="130"/>
      <point x="300" y="130" type="curve" smooth="yes"/>
      <point x="256" y="130"/>
      <point x="218" y="162"/>
      <point x="218" y="200" type="curve" smooth="yes"/>
      <point x="218" y="226"/>
      <point x="237" y="251"/>
      <point x="264" y="262" type="curve"/>
      <point x="304" y="209"/>
      <point x="325" y="184"/>
    </contour>
    <contour>
      <point x="382" y="433" type="curve"/>
      <point x="369" y="462"/>
      <point x="366" y="474"/>
      <point x="366" y="490" type="curve" smooth="yes"/>
      <point x="366" y="523"/>
      <point x="391" y="547"/>
      <point x="425" y="547" type="curve" smooth="yes"/>
      <point x="449" y="547"/>
      <point x="467" y="531"/>
      <point x="467" y="511" type="curve" smooth="yes"/>
      <point x="467" y="480"/>
      <point x="445" y="460"/>
    </contour>
  </outline>
</glyph>
<glyph name="quotesingle" format="2">
  <advance width="225"/>
  <unicode hex="0027"/>
  <outline>
    <contour>
      <point x="199" y="399" type="line"/>
      <point x="280" y="667" type="line"/>
      <point x="136" y="667" type="line"/>
      <point x="103" y="399" type="line"/>
    </contour>
  </outline>
</glyph>
<glyph name="parenleft" format="2">
  <advance width="337"/>
  <unicode hex="0028"/>
  <outline>
    <contour>
      <point x="212" y="-207" type="line"/>
      <point x="188" y="-124"/>
      <point x="182" y="-82"/>
      <point x="182" y="-4" type="curve" smooth="yes"/>
      <point x="182" y="148"/>
      <point x="212" y="316"/>
      <point x="261" y="445" type="curve" smooth="yes"/>
      <point x="297" y="538"/>
      <point x="339" y="612"/>
      <point x="403" y="693" type="curve"/>
      <point x="282" y="707" type="line"/>
      <point x="113" y="531"/>
      <point x="23" y="314"/>
      <point x="23" y="83" type="curve" smooth="yes"/>
      <point x="23" y="-26"/>
      <point x="41" y="-103"/>
      <point x="92" y="-220" type="curve"/>
    </contour>
  </outline>
</glyph>
<glyph name="parenright" format="2">
  <advance width="337"/>
  <unicode hex="0029"/>
  <outline>
    <contour>
      <point x="135" y="694" type="line"/>
      <point x="159" y="611"/>
      <point x="165" y="568"/>
      <point x="165" y="491" type="curve" smooth="yes"/>
      <point x="165" y="340"/>
      <point x="135" y="171"/>
      <point x="86" y="42" type="curve" smooth="yes"/>
      <point x="50" y="-51"/>
      <point x="8" y="-124"/>
      <point x="-56" y="-206" type="curve"/>
      <point x="65" y="-220" type="line"/>
      <point x="233" y="-46"/>
      <point x="324" y="173"/>
      <point x="324" y="404" type="curve" smooth="yes"/>
      <point x="324" y="513"/>
      <point x="307" y="589"/>
      <point x="256" y="707" type="curve"/>
    </contour>
  </outline>
</glyph>
<glyph name="asterisk" format="2">
  <advance width="399"/>
  <unicode hex="002A"/>
  <outline>
    <contour>
      <point x="242" y="438" type="line"/>
      <point x="331" y="331" type="line"/>
      <point x="364" y="349" type="line"/>
      <point x="319" y="487" type="line"/>
      <point x="468" y="567" type="line"/>
      <point x="462" y="594" type="line"/>
      <point x="311" y="566" type="line"/>
      <point x="317" y="726" type="line"/>
      <point x="282" y="726" type="line"/>
      <point x="226" y="566" type="line"/>
      <point x="98" y="588" type="line"/>
      <point x="79" y="558" type="line"/>
      <point x="187" y="491" type="line"/>
      <point x="86" y="355" type="line"/>
      <point x="109" y="336" type="line"/>
    </contour>
  </outline>
</glyph>
<glyph name="plus" format="2">
  <advance width="607"/>
  <unicode hex="002B"/>
  <outline>
    <contour>
      <point x="113" y="428" type="line"/>
      <point x="88" y="251" type="line"/>
      <point x="246" y="251" type="line"/>
      <point x="223" y="82" type="line"/>
      <point x="406" y="82" type="line"/>
      <point x="429" y="251" type="line"/>
      <point x="588" y="251" type="line"/>
      <point x="613" y="428" type="line"/>
      <point x="454" y="428" type="line"/>
      <point x="478" y="598" type="line"/>
      <point x="295" y="598" type="line"/>
      <point x="271" y="428" type="line"/>
    </contour>
  </outline>
</glyph>
<glyph name="comma" format="2">
  <advance width="295"/>
  <unicode hex="002C"/>
  <outline>
    <contour>
      <point x="-61" y="-146" type="line"/>
      <point x="42" y="-133" type="line"/>
      <point x="190" y="58" type="line"/>
      <point x="220" y="196" type="line"/>
      <point x="65" y="196" type="line"/>
      <point x="53" y="138" type="line" smooth="yes"/>
      <point x="34" y="52"/>
      <point x="25" y="28"/>
      <point x="-32" y="-88" type="curve" smooth="yes"/>
    </contour>
  </outline>
</glyph>
<glyph name="hyphen" format="2">
  <advance width="272"/>
  <unicode hex="002D"/>
  <outline>
    <contour>
      <point x="18" y="305" type="line"/>
      <point x="-8" y="182" type="line"/>
      <point x="264" y="182" type="line"/>
      <point x="290" y="305" type="line"/>
    </contour>
  </outline>
</glyph>
<glyph name="period" format="2">
  <advance width="293"/>
  <unicode hex="002E"/>
  <outline>
    <contour>
      <point x="123" y="180" type="curve" smooth="yes"/>
      <point x="62" y="180"/>
      <point x="18" y="138"/>
      <point x="18" y="81" type="curve" smooth="yes"/>
      <point x="18" y="25"/>
      <point x="57" y="-13"/>
      <point x="115" y="-13" type="curve" smooth="yes"/>
      <point x="175" y="-13"/>
      <point x="218" y="30"/>
      <point x="218" y="90" type="curve" smooth="yes"/>
      <point x="218" y="144"/>
      <point x="180" y="180"/>
    </contour>
  </outline>
</glyph>
<glyph name="slash" format="2">
  <advance width="458"/>
  <unicode hex="002F"/>
  <outline>
    <contour>
      <point x="-68" y="-206" type="line"/>
      <point x="24" y="-220" type="line"/>
      <point x="497" y="693" type="line"/>
      <point x="405" y="707" type="line"/>
    </contour>
  </outline>
</glyph>
<glyph name="zero" format="2">
  <advance width="609"/>
  <unicode hex="0030"/>
  <outline>
    <contour>
      <point x="389" y="681" type="curve" smooth="yes"/>
      <point x="278" y="681"/>
      <point x="194" y="636"/>
      <point x="135" y="544" type="curve" smooth="yes"/>
      <point x="84" y="464"/>
      <point x="44" y="320"/>
      <point x="44" y="217" type="curve" smooth="yes"/>
      <point x="44" y="66"/>
      <point x="121" y="-13"/>
      <point x="269" y="-13" type="curve" smooth="yes"/>
      <point x="385" y="-13"/>
      <point x="471" y="35"/>
      <point x="527" y="131" type="curve" smooth="yes"/>
      <point x="576" y="214"/>
      <point x="615" y="363"/>
      <point x="615" y="470" type="curve" smooth="yes"/>
      <point x="615" y="603"/>
      <point x="532" y="681"/>
    </contour>
    <contour>
      <point x="373" y="534" type="curve" smooth="yes"/>
      <point x="404" y="534"/>
      <point x="423" y="505"/>
      <point x="423" y="457" type="curve" smooth="yes"/>
      <point x="423" y="394"/>
      <point x="398" y="277"/>
      <point x="369" y="209" type="curve" smooth="yes"/>
      <point x="348" y="161"/>
      <point x="320" y="134"/>
      <point x="288" y="134" type="curve" smooth="yes"/>
      <point x="255" y="134"/>
      <point x="237" y="160"/>
      <point x="237" y="207" type="curve" smooth="yes"/>
      <point x="237" y="246"/>
      <point x="245" y="301"/>
      <point x="258" y="357" type="curve" smooth="yes"/>
      <point x="286" y="475"/>
      <point x="324" y="534"/>
    </contour>
  </outline>
</glyph>
<glyph name="one" format="2">
  <advance width="609"/>
  <unicode hex="0031"/>
  <outline>
    <contour>
      <point x="211" y="0" type="line"/>
      <point x="404" y="0" type="line"/>
      <point x="546" y="667" type="line"/>
      <point x="377" y="667" type="line"/>
      <point x="330" y="588"/>
      <point x="261" y="555"/>
      <point x="129" y="549" type="curve"/>
      <point x="104" y="430" type="line"/>
      <point x="302" y="430" type="line"/>
    </contour>
  </outline>
</glyph>
<glyph name="two" format="2">
  <advance width="609"/>
  <unicode hex="0032"/>
  <outline>
    <contour>
      <point x="-22" y="0" type="line"/>
      <point x="519" y="0" type="line"/>
      <point x="554" y="164" type="line"/>
      <point x="273" y="164" type="line"/>
      <point x="361" y="221" type="line" smooth="yes"/>
      <point x="439" y="272"/>
      <point x="520" y="345"/>
      <point x="561" y="401" type="curve" smooth="yes"/>
      <point x="587" y="437"/>
      <point x="604" y="488"/>
      <point x="604" y="530" type="curve" smooth="yes"/>
      <point x="604" y="623"/>
      <point x="516" y="680"/>
      <point x="371" y="680" type="curve" smooth="yes"/>
      <point x="307" y="680"/>
      <point x="245" y="666"/>
      <point x="198" y="641" type="curve" smooth="yes"/>
      <point x="146" y="613"/>
      <point x="119" y="576"/>
      <point x="97" y="499" type="curve"/>
      <point x="254" y="443" type="line"/>
      <point x="274" y="512"/>
      <point x="302" y="540"/>
      <point x="353" y="540" type="curve" smooth="yes"/>
      <point x="392" y="540"/>
      <point x="414" y="522"/>
      <point x="414" y="489" type="curve" smooth="yes"/>
      <point x="414" y="474"/>
      <point x="407" y="453"/>
      <point x="399" y="440" type="curve" smooth="yes"/>
      <point x="377" y="405"/>
      <point x="289" y="335"/>
      <point x="176" y="261" type="curve" smooth="yes"/>
      <point x="10" y="151" type="line"/>
    </contour>
  </outline>
</glyph>
<glyph name="three" format="2">
  <advance width="609"/>
  <unicode hex="0033"/>
  <outline>
    <contour>
      <point x="4" y="136" type="line"/>
      <point x="18" y="35"/>
      <point x="91" y="-13"/>
      <point x="230" y="-13" type="curve" smooth="yes"/>
      <point x="329" y="-13"/>
      <point x="404" y="7"/>
      <point x="457" y="48" type="curve" smooth="yes"/>
      <point x="514" y="93"/>
      <point x="550" y="166" name="hr01"/>
      <point x="550" y="235" type="curve" smooth="yes"/>
      <point x="550" y="288"/>
      <point x="526" y="322"/>
      <point x="473" y="345" type="curve"/>
      <point x="558" y="396"/>
      <point x="595" y="448" name="hr02"/>
      <point x="595" y="519" type="curve" smooth="yes"/>
      <point x="595" y="622"/>
      <point x="514" y="680"/>
      <point x="371" y="680" type="curve" smooth="yes"/>
      <point x="275" y="680"/>
      <point x="200" y="658"/>
      <point x="151" y="615" type="curve" smooth="yes"/>
      <point x="119" y="588"/>
      <point x="102" y="557"/>
      <point x="85" y="497" type="curve"/>
      <point x="243" y="441" type="line"/>
      <point x="260" y="509"/>
      <point x="292" y="540"/>
      <point x="343" y="540" type="curve" smooth="yes"/>
      <point x="382" y="540"/>
      <point x="404" y="521"/>
      <point x="404" y="488" type="curve" smooth="yes"/>
      <point x="404" y="431"/>
      <point x="353" y="395"/>
      <point x="271" y="395" type="curve"/>
      <point x="250" y="396" type="line"/>
      <point x="227" y="286" type="line"/>
      <point x="232" y="285"/>
      <point x="236" y="285"/>
      <point x="237" y="285" type="curve"/>
      <point x="306" y="284"/>
      <point x="313" y="283"/>
      <point x="330" y="275" type="curve" smooth="yes"/>
      <point x="349" y="266"/>
      <point x="360" y="249" name="hr03"/>
      <point x="360" y="228" type="curve" smooth="yes"/>
      <point x="360" y="182"/>
      <point x="314" y="140"/>
      <point x="264" y="140" type="curve" smooth="yes"/>
      <point x="224" y="140"/>
      <point x="201" y="160"/>
      <point x="198" y="197" type="curve"/>
    </contour>
  </outline>
</glyph>
<glyph name="four" format="2">
  <advance width="609"/>
  <unicode hex="0034"/>
  <outline>
    <contour>
      <point x="275" y="0" type="line"/>
      <point x="453" y="0" type="line"/>
      <point x="481" y="134" type="line"/>
      <point x="567" y="134" type="line"/>
      <point x="597" y="279" type="line"/>
      <point x="512" y="279" type="line"/>
      <point x="595" y="667" type="line"/>
      <point x="365" y="667" type="line"/>
      <point x="35" y="279" type="line"/>
      <point x="4" y="134" type="line"/>
      <point x="304" y="134" type="line"/>
    </contour>
    <contour>
      <point x="193" y="279" type="line"/>
      <point x="388" y="530" type="line"/>
      <point x="335" y="279" type="line"/>
    </contour>
  </outline>
</glyph>
<glyph name="five" format="2">
  <advance width="609"/>
  <unicode hex="0035"/>
  <outline>
    <contour>
      <point x="6" y="136" type="line"/>
      <point x="21" y="36"/>
      <point x="94" y="-13"/>
      <point x="229" y="-13" type="curve" smooth="yes"/>
      <point x="348" y="-13"/>
      <point x="447" y="27"/>
      <point x="506" y="98" type="curve" smooth="yes"/>
      <point x="551" y="151"/>
      <point x="577" y="221"/>
      <point x="577" y="287" type="curve" smooth="yes"/>
      <point x="577" y="393"/>
      <point x="509" y="459"/>
      <point x="401" y="459" type="curve" smooth="yes"/>
      <point x="348" y="459"/>
      <point x="314" y="447"/>
      <point x="258" y="409" type="curve"/>
      <point x="293" y="516" type="line"/>
      <point x="604" y="516" type="line"/>
      <point x="636" y="667" type="line"/>
      <point x="170" y="667" type="line"/>
      <point x="57" y="311" type="line"/>
      <point x="214" y="264" type="line"/>
      <point x="240" y="299"/>
      <point x="265" y="313"/>
      <point x="301" y="313" type="curve" smooth="yes"/>
      <point x="344" y="313"/>
      <point x="369" y="290"/>
      <point x="369" y="251" type="curve" smooth="yes"/>
      <point x="369" y="192"/>
      <point x="320" y="140"/>
      <point x="265" y="140" type="curve" smooth="yes"/>
      <point x="225" y="140"/>
      <point x="201" y="161"/>
      <point x="200" y="197" type="curve"/>
    </contour>
  </outline>
</glyph>
<glyph name="six" format="2">
  <advance width="609"/>
  <unicode hex="0036"/>
  <outline>
    <contour>
      <point x="630" y="579" type="line"/>
      <point x="591" y="653"/>
      <point x="538" y="680"/>
      <point x="434" y="680" type="curve" smooth="yes"/>
      <point x="289" y="680"/>
      <point x="192" y="626"/>
      <point x="126" y="510" type="curve" smooth="yes"/>
      <point x="75" y="419"/>
      <point x="40" y="288"/>
      <point x="40" y="187" type="curve" smooth="yes"/>
      <point x="40" y="55"/>
      <point x="118" y="-13"/>
      <point x="270" y="-13" type="curve" smooth="yes"/>
      <point x="374" y="-13"/>
      <point x="459" y="21"/>
      <point x="513" y="85" type="curve" smooth="yes"/>
      <point x="558" y="138"/>
      <point x="587" y="222"/>
      <point x="587" y="301" type="curve" smooth="yes"/>
      <point x="587" y="393"/>
      <point x="527" y="449"/>
      <point x="429" y="449" type="curve" smooth="yes"/>
      <point x="375" y="449"/>
      <point x="334" y="434"/>
      <point x="274" y="393" type="curve"/>
      <point x="290" y="443"/>
      <point x="299" y="464"/>
      <point x="313" y="484" type="curve" smooth="yes"/>
      <point x="338" y="522"/>
      <point x="375" y="543"/>
      <point x="416" y="543" type="curve" smooth="yes"/>
      <point x="456" y="543"/>
      <point x="480" y="524"/>
      <point x="491" y="484" type="curve"/>
    </contour>
    <contour>
      <point x="332" y="312" type="curve" smooth="yes"/>
      <point x="371" y="312"/>
      <point x="393" y="291"/>
      <point x="393" y="252" type="curve" smooth="yes"/>
      <point x="393" y="188"/>
      <point x="345" y="134"/>
      <point x="287" y="134" type="curve" smooth="yes"/>
      <point x="246" y="134"/>
      <point x="224" y="156"/>
      <point x="224" y="196" type="curve" smooth="yes"/>
      <point x="224" y="260"/>
      <point x="272" y="312"/>
    </contour>
  </outline>
</glyph>
<glyph name="seven" format="2">
  <advance width="609"/>
  <unicode hex="0037"/>
  <outline>
    <contour>
      <point x="32" y="0" type="line"/>
      <point x="255" y="0" type="line"/>
      <point x="637" y="531" type="line"/>
      <point x="665" y="667" type="line"/>
      <point x="132" y="667" type="line"/>
      <point x="97" y="502" type="line"/>
      <point x="400" y="502" type="line"/>
    </contour>
  </outline>
</glyph>
<glyph name="eight" format="2">
  <advance width="609"/>
  <unicode hex="0038"/>
  <outline>
    <contour>
      <point x="161" y="345" type="curve"/>
      <point x="118" y="328"/>
      <point x="99" y="316"/>
      <point x="76" y="293" type="curve" smooth="yes"/>
      <point x="42" y="258"/>
      <point x="22" y="208"/>
      <point x="22" y="157" type="curve" smooth="yes"/>
      <point x="22" y="44"/>
      <point x="101" y="-13" name="hr01"/>
      <point x="256" y="-13" type="curve" smooth="yes"/>
      <point x="361" y="-13"/>
      <point x="439" y="8"/>
      <point x="492" y="51" type="curve" smooth="yes"/>
      <point x="544" y="95"/>
      <point x="580" y="169"/>
      <point x="580" y="236" type="curve" smooth="yes"/>
      <point x="580" y="288"/>
      <point x="555" y="322"/>
      <point x="501" y="345" type="curve"/>
      <point x="543" y="370"/>
      <point x="562" y="385"/>
      <point x="580" y="407" type="curve" smooth="yes"/>
      <point x="607" y="440"/>
      <point x="623" y="486" name="hr02"/>
      <point x="623" y="529" type="curve" smooth="yes"/>
      <point x="623" y="623"/>
      <point x="540" y="680"/>
      <point x="403" y="680" type="curve" smooth="yes"/>
      <point x="227" y="680"/>
      <point x="101" y="586"/>
      <point x="101" y="454" type="curve" smooth="yes"/>
      <point x="101" y="404"/>
      <point x="116" y="377"/>
    </contour>
    <contour>
      <point x="372" y="537" type="curve" smooth="yes"/>
      <point x="410" y="537"/>
      <point x="432" y="519"/>
      <point x="432" y="487" type="curve" smooth="yes"/>
      <point x="432" y="442"/>
      <point x="391" y="403"/>
      <point x="343" y="403" type="curve" smooth="yes"/>
      <point x="307" y="403"/>
      <point x="285" y="425"/>
      <point x="285" y="460" type="curve" smooth="yes"/>
      <point x="285" y="504"/>
      <point x="322" y="537"/>
    </contour>
    <contour>
      <point x="318" y="279" type="curve" smooth="yes"/>
      <point x="364" y="279"/>
      <point x="393" y="257"/>
      <point x="393" y="222" type="curve" smooth="yes"/>
      <point x="393" y="173" name="hr03"/>
      <point x="346" y="134"/>
      <point x="286" y="134" type="curve" smooth="yes"/>
      <point x="241" y="134"/>
      <point x="212" y="157"/>
      <point x="212" y="193" type="curve" smooth="yes"/>
      <point x="212" y="241"/>
      <point x="258" y="279"/>
    </contour>
  </outline>
</glyph>
<glyph name="nine" format="2">
  <advance width="609"/>
  <unicode hex="0039"/>
  <outline>
    <contour>
      <point x="16" y="75" type="line"/>
      <point x="62" y="11"/>
      <point x="119" y="-13"/>
      <point x="222" y="-13" type="curve" smooth="yes"/>
      <point x="366" y="-13"/>
      <point x="464" y="42"/>
      <point x="530" y="159" type="curve" smooth="yes"/>
      <point x="582" y="250"/>
      <point x="617" y="382"/>
      <point x="617" y="482" type="curve" smooth="yes"/>
      <point x="617" y="613"/>
      <point x="539" y="680"/>
      <point x="386" y="680" type="curve" smooth="yes"/>
      <point x="282" y="680"/>
      <point x="197" y="646"/>
      <point x="144" y="583" type="curve" smooth="yes"/>
      <point x="99" y="531"/>
      <point x="72" y="455"/>
      <point x="72" y="382" type="curve" smooth="yes"/>
      <point x="72" y="279"/>
      <point x="130" y="219"/>
      <point x="230" y="219" type="curve" smooth="yes"/>
      <point x="283" y="219"/>
      <point x="324" y="233"/>
      <point x="383" y="274" type="curve"/>
      <point x="366" y="224"/>
      <point x="358" y="204"/>
      <point x="344" y="183" type="curve" smooth="yes"/>
      <point x="318" y="145"/>
      <point x="281" y="124"/>
      <point x="240" y="124" type="curve" smooth="yes"/>
      <point x="201" y="124"/>
      <point x="175" y="141"/>
      <point x="159" y="178" type="curve"/>
    </contour>
    <contour>
      <point x="369" y="533" type="curve" smooth="yes"/>
      <point x="411" y="533"/>
      <point x="433" y="512"/>
      <point x="433" y="472" type="curve" smooth="yes"/>
      <point x="433" y="407"/>
      <point x="384" y="355"/>
      <point x="324" y="355" type="curve" smooth="yes"/>
      <point x="284" y="355"/>
      <point x="263" y="376"/>
      <point x="263" y="416" type="curve" smooth="yes"/>
      <point x="263" y="480"/>
      <point x="311" y="533"/>
    </contour>
  </outline>
</glyph>
<glyph name="colon" format="2">
  <advance width="293"/>
  <unicode hex="003A"/>
  <outline>
    <contour>
      <point x="122" y="180" type="curve" smooth="yes"/>
      <point x="62" y="180"/>
      <point x="18" y="138"/>
      <point x="18" y="81" type="curve" smooth="yes"/>
      <point x="18" y="25"/>
      <point x="56" y="-13"/>
      <point x="114" y="-13" type="curve" smooth="yes"/>
      <point x="174" y="-13"/>
      <point x="217" y="30"/>
      <point x="217" y="90" type="curve" smooth="yes"/>
      <point x="217" y="144"/>
      <point x="179" y="180"/>
    </contour>
    <contour>
      <point x="183" y="466" type="curve" smooth="yes"/>
      <point x="123" y="466"/>
      <point x="79" y="424"/>
      <point x="79" y="367" type="curve" smooth="yes"/>
      <point x="79" y="310"/>
      <point x="117" y="273"/>
      <point x="176" y="273" type="curve" smooth="yes"/>
      <point x="235" y="273"/>
      <point x="278" y="316"/>
      <point x="278" y="376" type="curve" smooth="yes"/>
      <point x="278" y="430"/>
      <point x="240" y="466"/>
    </contour>
  </outline>
</glyph>
<glyph name="semicolon" format="2">
  <advance width="298"/>
  <unicode hex="003B"/>
  <outline>
    <contour>
      <point x="-61" y="-146" type="line"/>
      <point x="42" y="-133" type="line"/>
      <point x="190" y="58" type="line"/>
      <point x="220" y="196" type="line"/>
      <point x="65" y="196" type="line"/>
      <point x="53" y="138" type="line" smooth="yes"/>
      <point x="34" y="52"/>
      <point x="26" y="31"/>
      <point x="-32" y="-88" type="curve" smooth="yes"/>
    </contour>
    <contour>
      <point x="184" y="467" type="curve" smooth="yes"/>
      <point x="124" y="467"/>
      <point x="79" y="425"/>
      <point x="79" y="368" type="curve" smooth="yes"/>
      <point x="79" y="312"/>
      <point x="118" y="274"/>
      <point x="176" y="274" type="curve" smooth="yes"/>
      <point x="236" y="274"/>
      <point x="279" y="317"/>
      <point x="279" y="377" type="curve" smooth="yes"/>
      <point x="279" y="431"/>
      <point x="241" y="467"/>
    </contour>
  </outline>
</glyph>
<glyph name="less" format="2">
  <advance width="567"/>
  <unicode hex="003C"/>
  <outline>
    <contour>
      <point x="19" y="204" type="line"/>
      <point x="467" y="23" type="line"/>
      <point x="529" y="93" type="line"/>
      <point x="177" y="231" type="line"/>
      <point x="529" y="368" type="line"/>
      <point x="479" y="439" type="line"/>
      <point x="19" y="261" type="line"/>
    </contour>
  </outline>
</glyph>
<glyph name="equal" format="2">
  <advance width="639"/>
  <unicode hex="003D"/>
  <outline>
    <contour>
      <point x="86" y="348" type="line"/>
      <point x="68" y="263" type="line"/>
      <point x="600" y="263" type="line"/>
      <point x="618" y="348" type="line"/>
    </contour>
    <contour>
      <point x="56" y="206" type="line"/>
      <point x="37" y="118" type="line"/>
      <point x="569" y="118" type="line"/>
      <point x="588" y="206" type="line"/>
    </contour>
  </outline>
</glyph>
<glyph name="greater" format="2">
  <advance width="607"/>
  <unicode hex="003E"/>
  <outline>
    <contour>
      <point x="-33.4136" y="11" type="line"/>
      <point x="531.966" y="255" type="line"/>
      <point x="576.714" y="422" type="line"/>
      <point x="142.361" y="667" type="line"/>
      <point x="90.0392" y="468" type="line"/>
      <point x="341.474" y="339" type="line"/>
      <point x="20.1762" y="211" type="line"/>
    </contour>
  </outline>
</glyph>
<glyph name="question" format="2">
  <advance width="496"/>
  <unicode hex="003F"/>
  <outline>
    <contour>
      <point x="279" y="227" type="line"/>
      <point x="279" y="229" type="line"/>
      <point x="279" y="266"/>
      <point x="288" y="277"/>
      <point x="354" y="315" type="curve" smooth="yes"/>
      <point x="416" y="351"/>
      <point x="422" y="355"/>
      <point x="439" y="368" type="curve" smooth="yes"/>
      <point x="496" y="410"/>
      <point x="525" y="460"/>
      <point x="525" y="518" type="curve" smooth="yes"/>
      <point x="525" y="616"/>
      <point x="446" y="680"/>
      <point x="327" y="680" type="curve" smooth="yes"/>
      <point x="211" y="680"/>
      <point x="130" y="627"/>
      <point x="84" y="518" type="curve"/>
      <point x="222" y="452" type="line"/>
      <point x="239" y="509"/>
      <point x="262" y="534"/>
      <point x="297" y="534" type="curve" smooth="yes"/>
      <point x="323" y="534"/>
      <point x="340" y="517"/>
      <point x="340" y="490" type="curve" smooth="yes"/>
      <point x="340" y="463"/>
      <point x="325" y="435"/>
      <point x="299" y="415" type="curve" smooth="yes"/>
      <point x="281" y="401"/>
      <point x="277" y="399"/>
      <point x="225" y="376" type="curve" smooth="yes"/>
      <point x="160" y="347"/>
      <point x="135" y="311"/>
      <point x="135" y="247" type="curve" smooth="yes"/>
      <point x="135" y="227" type="line"/>
    </contour>
    <contour>
      <point x="185" y="180" type="curve" smooth="yes"/>
      <point x="124" y="180"/>
      <point x="80" y="138"/>
      <point x="80" y="81" type="curve" smooth="yes"/>
      <point x="80" y="25"/>
      <point x="119" y="-13"/>
      <point x="177" y="-13" type="curve" smooth="yes"/>
      <point x="237" y="-13"/>
      <point x="280" y="30"/>
      <point x="280" y="90" type="curve" smooth="yes"/>
      <point x="280" y="144"/>
      <point x="242" y="180"/>
    </contour>
  </outline>
</glyph>
<glyph name="at" format="2">
  <advance width="733"/>
  <unicode hex="0040"/>
  <outline>
    <contour>
      <point x="508" y="391" type="line"/>
      <point x="498" y="354" type="line"/>
      <point x="481" y="384"/>
      <point x="446" y="402"/>
      <point x="405" y="402" type="curve" smooth="yes"/>
      <point x="311" y="402"/>
      <point x="220.133" y="305.991"/>
      <point x="213" y="199" type="curve" smooth="yes"/>
      <point x="207.133" y="110.991"/>
      <point x="261" y="45"/>
      <point x="340" y="45" type="curve" smooth="yes"/>
      <point x="390" y="45"/>
      <point x="439" y="69"/>
      <point x="470" y="108" type="curve"/>
      <point x="475" y="75"/>
      <point x="505" y="54" name="hr01"/>
      <point x="545" y="54" type="curve" smooth="yes"/>
      <point x="635" y="54"/>
      <point x="723.528" y="165.031"/>
      <point x="732" y="290" type="curve" smooth="yes"/>
      <point x="743.528" y="460.033"/>
      <point x="622" y="579"/>
      <point x="436" y="579" type="curve" smooth="yes"/>
      <point x="238" y="579"/>
      <point x="65.6568" y="419.024"/>
      <point x="52" y="221" type="curve" smooth="yes"/>
      <point x="45.6568" y="129.023"/>
      <point x="78" y="38"/>
      <point x="138" y="-23" type="curve" smooth="yes"/>
      <point x="198" y="-83"/>
      <point x="277" y="-112"/>
      <point x="384" y="-112" type="curve" smooth="yes"/>
      <point x="455" y="-112"/>
      <point x="528" y="-101"/>
      <point x="587" y="-82" type="curve"/>
      <point x="574" y="-1" type="line"/>
      <point x="511" y="-21"/>
      <point x="453" y="-31"/>
      <point x="392" y="-31" type="curve" smooth="yes"/>
      <point x="304" y="-31"/>
      <point x="246" y="-10"/>
      <point x="203" y="39" type="curve" smooth="yes"/>
      <point x="162" y="85"/>
      <point x="140.402" y="152.037"/>
      <point x="145" y="221" type="curve" smooth="yes"/>
      <point x="155.403" y="377.041"/>
      <point x="285" y="499"/>
      <point x="439" y="499" type="curve" smooth="yes"/>
      <point x="578" y="499"/>
      <point x="662.675" y="416.023"/>
      <point x="654" y="289" type="curve" smooth="yes"/>
      <point x="648.675" y="211.022"/>
      <point x="598" y="127"/>
      <point x="557" y="127" type="curve" smooth="yes"/>
      <point x="543" y="127"/>
      <point x="536" y="138"/>
      <point x="537" y="158" type="curve" smooth="yes"/>
      <point x="538" y="165"/>
      <point x="541" y="180"/>
      <point x="547" y="202" type="curve" smooth="yes"/>
      <point x="601" y="391" type="line"/>
    </contour>
    <contour>
      <point x="413" y="309" type="curve" smooth="yes"/>
      <point x="449" y="309"/>
      <point x="472" y="281"/>
      <point x="469" y="241" type="curve" smooth="yes"/>
      <point x="465" y="186"/>
      <point x="421" y="136" name="hr02"/>
      <point x="376" y="136" type="curve" smooth="yes"/>
      <point x="339" y="136"/>
      <point x="315.01" y="164"/>
      <point x="318" y="205" type="curve" smooth="yes"/>
      <point x="322.01" y="260"/>
      <point x="367" y="309"/>
    </contour>
  </outline>
</glyph>
<glyph name="B" format="2">
  <advance width="699"/>
  <unicode hex="0042"/>
  <outline>
    <contour>
      <point x="20" y="0" type="line"/>
      <point x="389" y="0" type="line" smooth="yes"/>
      <point x="540" y="0"/>
      <point x="659" y="102"/>
      <point x="659" y="230" type="curve" smooth="yes"/>
      <point x="659" y="292"/>
      <point x="631" y="333"/>
      <point x="576" y="354" type="curve"/>
      <point x="658" y="393"/>
      <point x="701" y="451" name="hr01"/>
      <point x="701" y="520" type="curve" smooth="yes"/>
      <point x="701" y="572"/>
      <point x="678" y="614"/>
      <point x="638" y="638" type="curve" smooth="yes"/>
      <point x="601" y="659"/>
      <point x="562" y="667"/>
      <point x="488" y="667" type="curve" smooth="yes"/>
      <point x="162" y="667" type="line"/>
    </contour>
    <contour>
      <point x="305" y="398" type="line"/>
      <point x="330" y="516" type="line"/>
      <point x="367" y="516" type="line" smooth="yes"/>
      <point x="440" y="516"/>
      <point x="444" y="516"/>
      <point x="456" y="509" type="curve" smooth="yes"/>
      <point x="470" y="501"/>
      <point x="478" y="486"/>
      <point x="478" y="468" type="curve" smooth="yes"/>
      <point x="478" y="445"/>
      <point x="465" y="423"/>
      <point x="445" y="412" type="curve" smooth="yes"/>
      <point x="424" y="400"/>
      <point x="407" y="398"/>
      <point x="342" y="398" type="curve" smooth="yes"/>
    </contour>
    <contour>
      <point x="252" y="151" type="line"/>
      <point x="277" y="267" type="line"/>
      <point x="329" y="267" type="line" smooth="yes"/>
      <point x="400" y="267"/>
      <point x="401" y="267"/>
      <point x="414" y="260" type="curve"/>
      <point x="426" y="252"/>
      <point x="433" y="240" name="hr02"/>
      <point x="433" y="223" type="curve" smooth="yes"/>
      <point x="433" y="197"/>
      <point x="418" y="174"/>
      <point x="394" y="162" type="curve" smooth="yes"/>
      <point x="374" y="153"/>
      <point x="357" y="151"/>
      <point x="302" y="151" type="curve" smooth="yes"/>
    </contour>
  </outline>
</glyph>
<glyph name="C" format="2">
  <advance width="695"/>
  <unicode hex="0043"/>
  <outline>
    <contour>
      <point x="492" y="253" type="line"/>
      <point x="465" y="180"/>
      <point x="422" y="143"/>
      <point x="363" y="143" type="curve" smooth="yes"/>
      <point x="306" y="143"/>
      <point x="276" y="183"/>
      <point x="276" y="258" type="curve" smooth="yes"/>
      <point x="276" y="312"/>
      <point x="289" y="375"/>
      <point x="310" y="423" type="curve" smooth="yes"/>
      <point x="340" y="489"/>
      <point x="385" y="524"/>
      <point x="442" y="524" type="curve" smooth="yes"/>
      <point x="501" y="524"/>
      <point x="525" y="498"/>
      <point x="529" y="428" type="curve"/>
      <point x="733" y="494" type="line"/>
      <point x="723" y="545"/>
      <point x="707" y="579"/>
      <point x="678" y="610" type="curve" smooth="yes"/>
      <point x="635" y="657"/>
      <point x="549" y="685"/>
      <point x="447" y="685" type="curve" smooth="yes"/>
      <point x="327" y="685"/>
      <point x="234" y="648"/>
      <point x="168" y="575" type="curve" smooth="yes"/>
      <point x="98" y="497"/>
      <point x="51" y="365"/>
      <point x="51" y="244" type="curve" smooth="yes"/>
      <point x="51" y="166"/>
      <point x="71" y="105"/>
      <point x="112" y="60" type="curve" smooth="yes"/>
      <point x="160" y="7"/>
      <point x="233" y="-17"/>
      <point x="346" y="-17" type="curve" smooth="yes"/>
      <point x="519" y="-17"/>
      <point x="628" y="46"/>
      <point x="684" y="178" type="curve"/>
    </contour>
  </outline>
</glyph>
<glyph name="D" format="2">
  <advance width="733"/>
  <unicode hex="0044"/>
  <outline>
    <contour>
      <point x="20" y="0" type="line"/>
      <point x="306" y="0" type="line" smooth="yes"/>
      <point x="458" y="0"/>
      <point x="557" y="34"/>
      <point x="624" y="110" type="curve" smooth="yes"/>
      <point x="686" y="180"/>
      <point x="731" y="311"/>
      <point x="731" y="421" type="curve" smooth="yes"/>
      <point x="731" y="506"/>
      <point x="691" y="581"/>
      <point x="625" y="622" type="curve" smooth="yes"/>
      <point x="572" y="655"/>
      <point x="516" y="667"/>
      <point x="408" y="667" type="curve" smooth="yes"/>
      <point x="162" y="667" type="line"/>
    </contour>
    <contour>
      <point x="261" y="160" type="line"/>
      <point x="334" y="507" type="line"/>
      <point x="399" y="507" type="line" smooth="yes"/>
      <point x="474" y="507"/>
      <point x="512" y="468"/>
      <point x="512" y="392" type="curve" smooth="yes"/>
      <point x="512" y="352"/>
      <point x="500" y="302"/>
      <point x="482" y="262" type="curve" smooth="yes"/>
      <point x="449" y="192"/>
      <point x="400" y="160"/>
      <point x="325" y="160" type="curve" smooth="yes"/>
    </contour>
  </outline>
</glyph>
<glyph name="F" format="2">
  <advance width="550"/>
  <unicode hex="0046"/>
  <outline>
    <contour>
      <point x="20" y="0" type="line"/>
      <point x="227" y="0" type="line"/>
      <point x="279" y="247" type="line"/>
      <point x="532" y="247" type="line"/>
      <point x="564" y="395" type="line"/>
      <point x="311" y="395" type="line"/>
      <point x="334" y="507" type="line"/>
      <point x="588" y="507" type="line"/>
      <point x="622" y="667" type="line"/>
      <point x="162" y="667" type="line"/>
    </contour>
  </outline>
</glyph>
<glyph name="G" format="2">
  <advance width="728"/>
  <unicode hex="0047"/>
  <outline>
    <contour>
      <point x="703" y="370" type="line"/>
      <point x="404" y="370" type="line"/>
      <point x="373" y="222" type="line"/>
      <point x="468" y="222" type="line"/>
      <point x="450" y="135" type="line"/>
      <point x="438" y="135"/>
      <point x="438" y="135"/>
      <point x="418" y="134" type="curve"/>
      <point x="392" y="134" type="line" smooth="yes"/>
      <point x="350" y="134"/>
      <point x="329" y="140"/>
      <point x="309" y="159" type="curve" smooth="yes"/>
      <point x="287" y="179"/>
      <point x="275" y="213"/>
      <point x="275" y="258" type="curve" smooth="yes"/>
      <point x="275" y="310"/>
      <point x="289" y="377"/>
      <point x="310" y="423" type="curve" smooth="yes"/>
      <point x="340" y="488"/>
      <point x="386" y="524"/>
      <point x="442" y="524" type="curve" smooth="yes"/>
      <point x="497" y="524"/>
      <point x="525" y="499"/>
      <point x="536" y="439" type="curve"/>
      <point x="732" y="505" type="line"/>
      <point x="720" y="557"/>
      <point x="708" y="581"/>
      <point x="679" y="610" type="curve" smooth="yes"/>
      <point x="628" y="661"/>
      <point x="556" y="685"/>
      <point x="455" y="685" type="curve" smooth="yes"/>
      <point x="330" y="685"/>
      <point x="232" y="648"/>
      <point x="167" y="575" type="curve" smooth="yes"/>
      <point x="98" y="498"/>
      <point x="51" y="364"/>
      <point x="51" y="244" type="curve" smooth="yes"/>
      <point x="51" y="74"/>
      <point x="148" y="-17"/>
      <point x="331" y="-17" type="curve" smooth="yes"/>
      <point x="372" y="-17"/>
      <point x="430" y="-14"/>
      <point x="486" y="-9" type="curve" smooth="yes"/>
      <point x="537" y="-4"/>
      <point x="575" y="-2" name="hr01"/>
      <point x="607" y="-2" type="curve"/>
      <point x="608" y="-2"/>
      <point x="615" y="-2"/>
      <point x="624" y="-3" type="curve"/>
    </contour>
  </outline>
</glyph>
<glyph name="H" format="2">
  <advance width="745"/>
  <unicode hex="0048"/>
  <outline>
    <contour>
      <point x="20" y="0" type="line"/>
      <point x="227" y="0" type="line"/>
      <point x="281" y="257" type="line"/>
      <point x="479" y="257" type="line"/>
      <point x="425" y="0" type="line"/>
      <point x="631" y="0" type="line"/>
      <point x="773" y="667" type="line"/>
      <point x="566" y="667" type="line"/>
      <point x="513" y="417" type="line"/>
      <point x="315" y="417" type="line"/>
      <point x="368" y="667" type="line"/>
      <point x="162" y="667" type="line"/>
    </contour>
  </outline>
</glyph>
<glyph name="I" format="2">
  <advance width="340"/>
  <unicode hex="0049"/>
  <outline>
    <contour>
      <point x="20" y="0" type="line"/>
      <point x="227" y="0" type="line"/>
      <point x="368" y="667" type="line"/>
      <point x="162" y="667" type="line"/>
    </contour>
  </outline>
</glyph>
<glyph name="J" format="2">
  <advance width="557"/>
  <unicode hex="004A"/>
  <outline>
    <contour>
      <point x="-35" y="167" type="line"/>
      <point x="-36" y="160"/>
      <point x="-36" y="153"/>
      <point x="-36" y="148" type="curve" smooth="yes"/>
      <point x="-36" y="44"/>
      <point x="42" y="-17"/>
      <point x="178" y="-17" type="curve" smooth="yes"/>
      <point x="223" y="-17"/>
      <point x="269" y="-11"/>
      <point x="307" y="0" type="curve" smooth="yes"/>
      <point x="391" y="23"/>
      <point x="437" y="62"/>
      <point x="471" y="139" type="curve" smooth="yes"/>
      <point x="488" y="177"/>
      <point x="488" y="177"/>
      <point x="526" y="354" type="curve" smooth="yes"/>
      <point x="592" y="667" type="line"/>
      <point x="385" y="667" type="line"/>
      <point x="314" y="329" type="line" smooth="yes"/>
      <point x="309" y="307"/>
      <point x="305" y="286"/>
      <point x="301" y="267" type="curve" smooth="yes"/>
      <point x="285" y="179"/>
      <point x="260" y="143"/>
      <point x="213" y="143" type="curve" smooth="yes"/>
      <point x="175" y="143"/>
      <point x="162" y="161"/>
      <point x="161" y="218" type="curve"/>
    </contour>
  </outline>
</glyph>
<glyph name="K" format="2">
  <advance width="671"/>
  <unicode hex="004B"/>
  <outline>
    <contour>
      <point x="20" y="0" type="line"/>
      <point x="227" y="0" type="line"/>
      <point x="288" y="290" type="line"/>
      <point x="411" y="0" type="line"/>
      <point x="644" y="0" type="line"/>
      <point x="495" y="334" type="line"/>
      <point x="786" y="667" type="line"/>
      <point x="553" y="667" type="line"/>
      <point x="307" y="379" type="line"/>
      <point x="368" y="667" type="line"/>
      <point x="162" y="667" type="line"/>
    </contour>
  </outline>
</glyph>
<glyph name="L" format="2">
  <advance width="519"/>
  <unicode hex="004C"/>
  <outline>
    <contour>
      <point x="20" y="0" type="line"/>
      <point x="466" y="0" type="line"/>
      <point x="500" y="160" type="line"/>
      <point x="261" y="160" type="line"/>
      <point x="368" y="667" type="line"/>
      <point x="162" y="667" type="line"/>
    </contour>
  </outline>
</glyph>
<glyph name="M" format="2">
  <advance width="969"/>
  <unicode hex="004D"/>
  <outline>
    <contour>
      <point x="20" y="0" type="line"/>
      <point x="219" y="0" type="line"/>
      <point x="298" y="371" type="line"/>
      <point x="357" y="0" type="line"/>
      <point x="518" y="0" type="line"/>
      <point x="735" y="371" type="line"/>
      <point x="657" y="0" type="line"/>
      <point x="856" y="0" type="line"/>
      <point x="998" y="667" type="line"/>
      <point x="743" y="667" type="line"/>
      <point x="502" y="297" type="line"/>
      <point x="417" y="667" type="line"/>
      <point x="162" y="667" type="line"/>
    </contour>
  </outline>
</glyph>
<glyph name="N" format="2">
  <advance width="799"/>
  <unicode hex="004E"/>
  <outline>
    <contour>
      <point x="20" y="0" type="line"/>
      <point x="227" y="0" type="line"/>
      <point x="301" y="350" type="line"/>
      <point x="479" y="0" type="line"/>
      <point x="686" y="0" type="line"/>
      <point x="828" y="667" type="line"/>
      <point x="621" y="667" type="line"/>
      <point x="548" y="324" type="line"/>
      <point x="368" y="667" type="line"/>
      <point x="162" y="667" type="line"/>
    </contour>
  </outline>
</glyph>
<glyph name="O" format="2">
  <advance width="769"/>
  <unicode hex="004F"/>
  <outline>
    <contour>
      <point x="463" y="684" type="curve" smooth="yes"/>
      <point x="326" y="684"/>
      <point x="220" y="642"/>
      <point x="155" y="561" type="curve" smooth="yes"/>
      <point x="94" y="485"/>
      <point x="51" y="355"/>
      <point x="51" y="245" type="curve" smooth="yes"/>
      <point x="51" y="74"/>
      <point x="155" y="-17"/>
      <point x="351" y="-17" type="curve" smooth="yes"/>
      <point x="483" y="-17"/>
      <point x="583" y="19"/>
      <point x="648" y="90" type="curve" smooth="yes"/>
      <point x="718" y="166"/>
      <point x="766" y="300"/>
      <point x="766" y="420" type="curve" smooth="yes"/>
      <point x="766" y="599"/>
      <point x="669" y="684"/>
    </contour>
    <contour>
      <point x="447" y="524" type="curve" smooth="yes"/>
      <point x="512" y="524"/>
      <point x="542" y="486"/>
      <point x="542" y="405" type="curve" smooth="yes"/>
      <point x="542" y="354"/>
      <point x="526" y="282"/>
      <point x="503" y="237" type="curve" smooth="yes"/>
      <point x="472" y="174"/>
      <point x="429" y="143"/>
      <point x="371" y="143" type="curve" smooth="yes"/>
      <point x="306" y="143"/>
      <point x="275" y="181"/>
      <point x="275" y="260" type="curve" smooth="yes"/>
      <point x="275" y="315"/>
      <point x="290" y="384"/>
      <point x="313" y="430" type="curve" smooth="yes"/>
      <point x="345" y="494"/>
      <point x="388" y="524"/>
    </contour>
  </outline>
</glyph>
<glyph name="P" format="2">
  <advance width="648"/>
  <unicode hex="0050"/>
  <outline>
    <contour>
      <point x="20" y="0" type="line"/>
      <point x="227" y="0" type="line"/>
      <point x="273" y="219" type="line"/>
      <point x="329" y="219" type="line" smooth="yes"/>
      <point x="445" y="219"/>
      <point x="534" y="247"/>
      <point x="597" y="305" type="curve" smooth="yes"/>
      <point x="652" y="355"/>
      <point x="685" y="429"/>
      <point x="685" y="500" type="curve" smooth="yes"/>
      <point x="685" y="556"/>
      <point x="658" y="609"/>
      <point x="618" y="633" type="curve" smooth="yes"/>
      <point x="580" y="655"/>
      <point x="525" y="667"/>
      <point x="458" y="667" type="curve" smooth="yes"/>
      <point x="162" y="667" type="line"/>
    </contour>
    <contour>
      <point x="307" y="376" type="line"/>
      <point x="334" y="507" type="line"/>
      <point x="374" y="507" type="line" smooth="yes"/>
      <point x="426" y="507"/>
      <point x="431" y="506"/>
      <point x="444" y="500" type="curve" smooth="yes"/>
      <point x="459" y="492"/>
      <point x="467" y="476"/>
      <point x="467" y="454" type="curve" smooth="yes"/>
      <point x="467" y="426"/>
      <point x="452" y="400"/>
      <point x="429" y="389" type="curve" smooth="yes"/>
      <point x="410" y="379"/>
      <point x="386" y="376"/>
      <point x="334" y="376" type="curve" smooth="yes"/>
    </contour>
  </outline>
</glyph>
<glyph name="Q" format="2">
  <advance width="750"/>
  <unicode hex="0051"/>
  <outline>
    <contour>
      <point x="541" y="16" type="line"/>
      <point x="593" y="38"/>
      <point x="629" y="65"/>
      <point x="663" y="107" type="curve" smooth="yes"/>
      <point x="724" y="183"/>
      <point x="766" y="313"/>
      <point x="766" y="426" type="curve" smooth="yes"/>
      <point x="766" y="594"/>
      <point x="662" y="684"/>
      <point x="466" y="684" type="curve" smooth="yes"/>
      <point x="334" y="684"/>
      <point x="234" y="648"/>
      <point x="169" y="577" type="curve" smooth="yes"/>
      <point x="98" y="499"/>
      <point x="51" y="366"/>
      <point x="51" y="243" type="curve" smooth="yes"/>
      <point x="51" y="172"/>
      <point x="68" y="115"/>
      <point x="102" y="72" type="curve" smooth="yes"/>
      <point x="131" y="35"/>
      <point x="166" y="16"/>
      <point x="245" y="-9" type="curve"/>
      <point x="687" y="-213" type="line"/>
      <point x="860" y="-93" type="line"/>
    </contour>
    <contour>
      <point x="447" y="524" type="curve" smooth="yes"/>
      <point x="511" y="524"/>
      <point x="542" y="485"/>
      <point x="542" y="406" type="curve" smooth="yes"/>
      <point x="542" y="353"/>
      <point x="527" y="285"/>
      <point x="504" y="238" type="curve" smooth="yes"/>
      <point x="473" y="174"/>
      <point x="430" y="144"/>
      <point x="369" y="144" type="curve" smooth="yes"/>
      <point x="305" y="144"/>
      <point x="275" y="182"/>
      <point x="275" y="263" type="curve" smooth="yes"/>
      <point x="275" y="314"/>
      <point x="291" y="385"/>
      <point x="313" y="430" type="curve" smooth="yes"/>
      <point x="344" y="494"/>
      <point x="387" y="524"/>
    </contour>
  </outline>
</glyph>
<glyph name="T" format="2">
  <advance width="497"/>
  <unicode hex="0054"/>
  <outline>
    <contour>
      <point x="100" y="0" type="line"/>
      <point x="307" y="0" type="line"/>
      <point x="415" y="507" type="line"/>
      <point x="585" y="507" type="line"/>
      <point x="619" y="667" type="line"/>
      <point x="68" y="667" type="line"/>
      <point x="34" y="507" type="line"/>
      <point x="208" y="507" type="line"/>
    </contour>
  </outline>
</glyph>
<glyph name="U" format="2">
  <advance width="731"/>
  <unicode hex="0055"/>
  <outline>
    <contour>
      <point x="155" y="667" type="line"/>
      <point x="68" y="257" type="line" smooth="yes"/>
      <point x="62.2588" y="229.944"/>
      <point x="59" y="202"/>
      <point x="59" y="177" type="curve" smooth="yes"/>
      <point x="59" y="112"/>
      <point x="85" y="59"/>
      <point x="131" y="26" type="curve" smooth="yes"/>
      <point x="174" y="-5"/>
      <point x="227" y="-17"/>
      <point x="315" y="-17" type="curve" smooth="yes"/>
      <point x="527" y="-17"/>
      <point x="638" y="67"/>
      <point x="678" y="256" type="curve" smooth="yes"/>
      <point x="766" y="667" type="line"/>
      <point x="559" y="667" type="line"/>
      <point x="472" y="257" type="line" smooth="yes"/>
      <point x="456" y="180"/>
      <point x="416" y="143"/>
      <point x="351" y="143" type="curve" smooth="yes"/>
      <point x="297" y="143"/>
      <point x="268" y="164"/>
      <point x="268" y="204" type="curve" smooth="yes"/>
      <point x="268" y="218"/>
      <point x="271" y="238"/>
      <point x="275" y="257" type="curve" smooth="yes"/>
      <point x="362" y="667" type="line"/>
    </contour>
  </outline>
</glyph>
<glyph name="V" format="2">
  <advance width="652"/>
  <unicode hex="0056"/>
  <outline>
    <contour>
      <point x="159" y="0" type="line"/>
      <point x="381" y="0" type="line"/>
      <point x="776" y="667" type="line"/>
      <point x="556" y="667" type="line"/>
      <point x="334" y="246" type="line"/>
      <point x="307" y="667" type="line"/>
      <point x="87" y="667" type="line"/>
    </contour>
  </outline>
</glyph>
<glyph name="W" format="2">
  <advance width="995"/>
  <unicode hex="0057"/>
  <outline>
    <contour>
      <point x="133" y="0" type="line"/>
      <point x="325" y="0" type="line"/>
      <point x="535" y="356" type="line"/>
      <point x="564" y="0" type="line"/>
      <point x="756" y="0" type="line"/>
      <point x="1104" y="667" type="line"/>
      <point x="892" y="667" type="line"/>
      <point x="712" y="323" type="line"/>
      <point x="699" y="667" type="line"/>
      <point x="519" y="667" type="line"/>
      <point x="330" y="323" type="line"/>
      <point x="327" y="667" type="line"/>
      <point x="108" y="667" type="line"/>
    </contour>
  </outline>
</glyph>
<glyph name="X" format="2">
  <advance width="625"/>
  <unicode hex="0058"/>
  <outline>
    <contour>
      <point x="-81" y="0" type="line"/>
      <point x="169" y="0" type="line"/>
      <point x="309" y="171" type="line"/>
      <point x="370" y="0" type="line"/>
      <point x="600" y="0" type="line"/>
      <point x="463" y="349" type="line"/>
      <point x="733" y="667" type="line"/>
      <point x="512" y="667" type="line"/>
      <point x="394" y="533" type="line"/>
      <point x="344" y="667" type="line"/>
      <point x="119" y="667" type="line"/>
      <point x="237" y="358" type="line"/>
    </contour>
  </outline>
</glyph>
<glyph name="Y" format="2">
  <advance width="621"/>
  <unicode hex="0059"/>
  <outline>
    <contour>
      <point x="160" y="0" type="line"/>
      <point x="367" y="0" type="line"/>
      <point x="423" y="266" type="line"/>
      <point x="753" y="667" type="line"/>
      <point x="527" y="667" type="line"/>
      <point x="358" y="443" type="line"/>
      <point x="284" y="667" type="line"/>
      <point x="55" y="667" type="line"/>
      <point x="215" y="257" type="line"/>
    </contour>
  </outline>
</glyph>
<glyph name="bracketleft" format="2">
  <advance width="337"/>
  <unicode hex="005B"/>
  <outline>
    <contour>
      <point x="-41" y="-213" type="line"/>
      <point x="208" y="-213" type="line"/>
      <point x="220" y="-158" type="line"/>
      <point x="124" y="-140" type="line"/>
      <point x="288" y="632" type="line"/>
      <point x="390" y="644" type="line"/>
      <point x="402" y="700" type="line"/>
      <point x="153" y="700" type="line"/>
    </contour>
  </outline>
</glyph>
<glyph name="backslash" format="2">
  <advance width="458"/>
  <unicode hex="005C"/>
  <outline>
    <contour>
      <point x="327" y="-206" type="line"/>
      <point x="242" y="707" type="line"/>
      <point x="144" y="693" type="line"/>
      <point x="229" y="-220" type="line"/>
    </contour>
  </outline>
</glyph>
<glyph name="bracketright" format="2">
  <advance width="337"/>
  <unicode hex="005D"/>
  <outline>
    <contour>
      <point x="389" y="700" type="line"/>
      <point x="139" y="700" type="line"/>
      <point x="127" y="645" type="line"/>
      <point x="224" y="627" type="line"/>
      <point x="60" y="-145" type="line"/>
      <point x="-43" y="-157" type="line"/>
      <point x="-55" y="-213" type="line"/>
      <point x="195" y="-213" type="line"/>
    </contour>
  </outline>
</glyph>
<glyph name="asciicircum" format="2">
  <advance width="453"/>
  <unicode hex="005E"/>
  <outline>
    <contour>
      <point x="186" y="427" type="line"/>
      <point x="272" y="588" type="line"/>
      <point x="363" y="427" type="line"/>
      <point x="446" y="450" type="line"/>
      <point x="305" y="700" type="line"/>
      <point x="235" y="700" type="line"/>
      <point x="106" y="450" type="line"/>
    </contour>
  </outline>
</glyph>
<glyph name="underscore" format="2">
  <advance width="607"/>
  <unicode hex="005F"/>
  <outline>
    <contour>
      <point x="-46" y="-46" type="line"/>
      <point x="-46" y="-129" type="line"/>
      <point x="561" y="-129" type="line"/>
      <point x="561" y="-46" type="line"/>
    </contour>
  </outline>
</glyph>
<glyph name="grave" format="2">
  <advance width="500"/>
  <unicode hex="0060"/>
  <outline>
    <contour>
      <point x="361" y="521" type="line"/>
      <point x="418" y="530" type="line"/>
      <point x="279" y="714" type="line"/>
      <point x="146" y="675" type="line"/>
    </contour>
  </outline>
</glyph>
<glyph name="a" format="2">
  <advance width="637"/>
  <unicode hex="0061"/>
  <outline>
    <contour>
      <point x="446" y="467" type="line"/>
      <point x="437" y="423" type="line"/>
      <point x="397" y="466"/>
      <point x="363" y="481" name="hr01"/>
      <point x="307" y="481" type="curve" smooth="yes"/>
      <point x="231" y="481"/>
      <point x="157" y="446"/>
      <point x="108" y="388" type="curve" smooth="yes"/>
      <point x="59" y="330"/>
      <point x="28" y="240"/>
      <point x="28" y="158" type="curve" smooth="yes"/>
      <point x="28" y="52"/>
      <point x="92" y="-13"/>
      <point x="195" y="-13" type="curve" smooth="yes"/>
      <point x="254" y="-13"/>
      <point x="299" y="3"/>
      <point x="357" y="47" type="curve"/>
      <point x="347" y="0" type="line"/>
      <point x="541" y="0" type="line"/>
      <point x="640" y="467" type="line" name="hr02"/>
    </contour>
    <contour>
      <point x="342" y="344" type="curve" smooth="yes"/>
      <point x="380" y="344"/>
      <point x="402" y="317"/>
      <point x="402" y="272" type="curve" smooth="yes"/>
      <point x="402" y="190"/>
      <point x="352" y="123"/>
      <point x="291" y="123" type="curve" smooth="yes"/>
      <point x="255" y="123"/>
      <point x="234" y="149"/>
      <point x="234" y="192" type="curve" smooth="yes"/>
      <point x="234" y="275"/>
      <point x="283" y="344"/>
    </contour>
  </outline>
</glyph>
<glyph name="b" format="2">
  <advance width="638"/>
  <unicode hex="0062"/>
  <outline>
    <contour>
      <point x="171" y="0" type="line"/>
      <point x="206" y="43" type="line"/>
      <point x="246" y="1"/>
      <point x="281" y="-14"/>
      <point x="336" y="-14" type="curve" smooth="yes"/>
      <point x="412" y="-14"/>
      <point x="487" y="21"/>
      <point x="535" y="79" type="curve" smooth="yes"/>
      <point x="584" y="137"/>
      <point x="616" y="228"/>
      <point x="616" y="309" type="curve" smooth="yes"/>
      <point x="616" y="416"/>
      <point x="553" y="480"/>
      <point x="449" y="480" type="curve" smooth="yes"/>
      <point x="389" y="480"/>
      <point x="346" y="464"/>
      <point x="285" y="419" type="curve"/>
      <point x="345" y="700" type="line"/>
      <point x="152" y="700" type="line"/>
      <point x="3" y="0" type="line"/>
    </contour>
    <contour>
      <point x="352" y="344" type="curve" smooth="yes"/>
      <point x="388" y="344"/>
      <point x="409" y="318"/>
      <point x="409" y="275" type="curve" smooth="yes"/>
      <point x="409" y="246"/>
      <point x="400" y="209"/>
      <point x="387" y="183" type="curve" smooth="yes"/>
      <point x="367" y="144"/>
      <point x="336" y="123"/>
      <point x="301" y="123" type="curve" smooth="yes"/>
      <point x="263" y="123"/>
      <point x="241" y="150"/>
      <point x="241" y="195" type="curve" smooth="yes"/>
      <point x="241" y="277"/>
      <point x="291" y="344"/>
    </contour>
  </outline>
</glyph>
<glyph name="c" format="2">
  <advance width="541"/>
  <unicode hex="0063"/>
  <outline>
    <contour>
      <point x="363" y="198" type="line"/>
      <point x="350" y="165"/>
      <point x="344" y="152"/>
      <point x="332" y="136" type="curve" smooth="yes"/>
      <point x="315" y="111"/>
      <point x="289" y="94"/>
      <point x="265" y="94" type="curve" smooth="yes"/>
      <point x="237" y="94"/>
      <point x="220" y="116"/>
      <point x="220" y="154" type="curve" smooth="yes"/>
      <point x="220" y="191"/>
      <point x="231" y="241"/>
      <point x="248" y="283" type="curve" smooth="yes"/>
      <point x="272" y="342"/>
      <point x="303" y="373"/>
      <point x="339" y="373" type="curve" smooth="yes"/>
      <point x="367" y="373"/>
      <point x="384" y="352"/>
      <point x="384" y="315" type="curve" smooth="yes"/>
      <point x="384" y="305"/>
      <point x="383" y="297"/>
      <point x="380" y="279" type="curve"/>
      <point x="555" y="329" type="line"/>
      <point x="547" y="438"/>
      <point x="490" y="480"/>
      <point x="349" y="480" type="curve" smooth="yes"/>
      <point x="222" y="480"/>
      <point x="140" y="444"/>
      <point x="86" y="364" type="curve" smooth="yes"/>
      <point x="50" y="312"/>
      <point x="30" y="244"/>
      <point x="30" y="180" type="curve" smooth="yes"/>
      <point x="30" y="52"/>
      <point x="102" y="-13"/>
      <point x="245" y="-13" type="curve" smooth="yes"/>
      <point x="316" y="-13"/>
      <point x="378" y="-1"/>
      <point x="422" y="21" type="curve" smooth="yes"/>
      <point x="468" y="44"/>
      <point x="494" y="77"/>
      <point x="526" y="150" type="curve"/>
    </contour>
  </outline>
</glyph>
<glyph name="d" format="2">
  <advance width="637"/>
  <unicode hex="0064"/>
  <outline>
    <contour>
      <point x="496" y="700" type="line"/>
      <point x="437" y="424" type="line"/>
      <point x="408" y="463"/>
      <point x="366" y="481"/>
      <point x="307" y="481" type="curve" smooth="yes"/>
      <point x="231" y="481"/>
      <point x="157" y="447"/>
      <point x="108" y="388" type="curve" smooth="yes"/>
      <point x="59" y="330"/>
      <point x="28" y="240"/>
      <point x="28" y="158" type="curve" smooth="yes"/>
      <point x="28" y="52"/>
      <point x="92" y="-13"/>
      <point x="195" y="-13" type="curve" smooth="yes"/>
      <point x="254" y="-13"/>
      <point x="299" y="3"/>
      <point x="357" y="47" type="curve"/>
      <point x="347" y="0" type="line"/>
      <point x="541" y="0" type="line"/>
      <point x="690" y="700" type="line"/>
    </contour>
    <contour>
      <point x="342" y="344" type="curve" smooth="yes"/>
      <point x="380" y="344"/>
      <point x="402" y="317" name="hr01"/>
      <point x="402" y="272" type="curve" smooth="yes"/>
      <point x="402" y="190"/>
      <point x="352" y="123"/>
      <point x="291" y="123" type="curve" smooth="yes"/>
      <point x="255" y="123"/>
      <point x="234" y="149"/>
      <point x="234" y="192" type="curve" smooth="yes"/>
      <point x="234" y="275"/>
      <point x="283" y="344"/>
    </contour>
  </outline>
</glyph>
<glyph name="e" format="2">
  <advance width="580"/>
  <unicode hex="0065"/>
  <outline>
    <contour>
      <point x="344" y="160" type="line"/>
      <point x="322" y="111"/>
      <point x="303" y="95"/>
      <point x="266" y="95" type="curve" smooth="yes"/>
      <point x="233" y="95"/>
      <point x="212" y="116"/>
      <point x="212" y="148" type="curve" smooth="yes"/>
      <point x="212" y="163"/>
      <point x="214" y="174"/>
      <point x="222" y="205" type="curve"/>
      <point x="541" y="205" type="line"/>
      <point x="555" y="248"/>
      <point x="559" y="272"/>
      <point x="559" y="309" type="curve" smooth="yes"/>
      <point x="559" y="430"/>
      <point x="497" y="480"/>
      <point x="349" y="480" type="curve" smooth="yes"/>
      <point x="252" y="480"/>
      <point x="186" y="460"/>
      <point x="132" y="414" type="curve" smooth="yes"/>
      <point x="70" y="361"/>
      <point x="32" y="272"/>
      <point x="32" y="179" type="curve" smooth="yes"/>
      <point x="32" y="50"/>
      <point x="106" y="-13"/>
      <point x="255" y="-13" type="curve" smooth="yes"/>
      <point x="328" y="-13"/>
      <point x="393" y="3"/>
      <point x="439" y="32" type="curve" smooth="yes"/>
      <point x="472" y="53"/>
      <point x="491" y="76"/>
      <point x="515" y="125" type="curve"/>
    </contour>
    <contour>
      <point x="243" y="291" type="line"/>
      <point x="259" y="348"/>
      <point x="288" y="376"/>
      <point x="330" y="376" type="curve" smooth="yes"/>
      <point x="363" y="376"/>
      <point x="381" y="358"/>
      <point x="381" y="326" type="curve" smooth="yes"/>
      <point x="381" y="319"/>
      <point x="379" y="304"/>
      <point x="377" y="291" type="curve"/>
    </contour>
  </outline>
</glyph>
<glyph name="f" format="2">
  <advance width="362"/>
  <unicode hex="0066"/>
  <outline>
    <contour>
      <point x="25" y="0" type="line"/>
      <point x="218" y="0" type="line"/>
      <point x="285" y="318" type="line"/>
      <point x="370" y="318" type="line"/>
      <point x="401" y="467" type="line"/>
      <point x="317" y="467" type="line"/>
      <point x="319" y="477" type="line" smooth="yes"/>
      <point x="326.232" y="513.162"/>
      <point x="330" y="521"/>
      <point x="341" y="533" type="curve" smooth="yes"/>
      <point x="353" y="548"/>
      <point x="371" y="556"/>
      <point x="393" y="556" type="curve" smooth="yes"/>
      <point x="407" y="556"/>
      <point x="417" y="554"/>
      <point x="436" y="546" type="curve"/>
      <point x="481" y="687" type="line"/>
      <point x="434" y="699"/>
      <point x="408" y="702"/>
      <point x="366" y="702" type="curve" smooth="yes"/>
      <point x="292" y="702"/>
      <point x="245" y="687"/>
      <point x="206" y="651" type="curve" smooth="yes"/>
      <point x="167" y="615"/>
      <point x="147" y="573"/>
      <point x="129" y="495" type="curve" smooth="yes"/>
      <point x="123" y="467" type="line"/>
      <point x="57" y="467" type="line"/>
      <point x="25" y="318" type="line"/>
      <point x="92" y="318" type="line"/>
    </contour>
  </outline>
</glyph>
<glyph name="g" format="2">
  <advance width="637"/>
  <unicode hex="0067"/>
  <outline>
    <contour>
      <point x="447" y="467" type="line"/>
      <point x="438" y="425" type="line"/>
      <point x="408" y="463"/>
      <point x="365" y="481" name="hr01"/>
      <point x="306" y="481" type="curve" smooth="yes"/>
      <point x="231" y="481"/>
      <point x="156" y="446"/>
      <point x="108" y="389" type="curve" smooth="yes"/>
      <point x="58" y="329"/>
      <point x="26" y="236"/>
      <point x="26" y="149" type="curve" smooth="yes"/>
      <point x="26" y="47"/>
      <point x="88" y="-13"/>
      <point x="195" y="-13" type="curve" smooth="yes"/>
      <point x="254" y="-13"/>
      <point x="298" y="3"/>
      <point x="358" y="46" type="curve"/>
      <point x="346" y="-16"/>
      <point x="339" y="-36"/>
      <point x="322" y="-60" type="curve" smooth="yes"/>
      <point x="307" y="-82"/>
      <point x="281" y="-95"/>
      <point x="252" y="-95" type="curve" smooth="yes"/>
      <point x="216" y="-95"/>
      <point x="197" y="-76"/>
      <point x="195" y="-40" type="curve"/>
      <point x="-4" y="-84" type="line"/>
      <point x="1" y="-184"/>
      <point x="72" y="-230"/>
      <point x="223" y="-230" type="curve" smooth="yes"/>
      <point x="328" y="-230"/>
      <point x="411" y="-201"/>
      <point x="467" y="-145" type="curve" smooth="yes"/>
      <point x="506" y="-107"/>
      <point x="529" y="-54"/>
      <point x="550" y="46" type="curve" smooth="yes"/>
      <point x="640" y="467" type="line" name="hr02"/>
    </contour>
    <contour>
      <point x="342" y="344" type="curve" smooth="yes"/>
      <point x="380" y="344"/>
      <point x="402" y="317"/>
      <point x="402" y="273" type="curve" smooth="yes"/>
      <point x="402" y="190"/>
      <point x="352" y="122"/>
      <point x="291" y="122" type="curve" smooth="yes"/>
      <point x="255" y="122"/>
      <point x="234" y="148"/>
      <point x="234" y="191" type="curve" smooth="yes"/>
      <point x="234" y="274"/>
      <point x="283" y="344"/>
    </contour>
  </outline>
</glyph>
<glyph name="h" format="2">
  <advance width="627"/>
  <unicode hex="0068"/>
  <outline>
    <contour>
      <point x="3" y="0" type="line"/>
      <point x="196" y="0" type="line"/>
      <point x="243" y="220" type="line" smooth="yes"/>
      <point x="258" y="289"/>
      <point x="284" y="316"/>
      <point x="336" y="316" type="curve" smooth="yes"/>
      <point x="371" y="316"/>
      <point x="391" y="300"/>
      <point x="391" y="271" type="curve" smooth="yes"/>
      <point x="391" y="263"/>
      <point x="388" y="244"/>
      <point x="384" y="226" type="curve" smooth="yes"/>
      <point x="336" y="0" type="line"/>
      <point x="530" y="0" type="line"/>
      <point x="580" y="238" type="line" smooth="yes"/>
      <point x="581" y="243"/>
      <point x="582" y="247"/>
      <point x="584" y="253" type="curve"/>
      <point x="593" y="295"/>
      <point x="600" y="337"/>
      <point x="600" y="357" type="curve" smooth="yes"/>
      <point x="600" y="433"/>
      <point x="541" y="481"/>
      <point x="448" y="481" type="curve" smooth="yes"/>
      <point x="385" y="481"/>
      <point x="338" y="461"/>
      <point x="284" y="412" type="curve"/>
      <point x="345" y="700" type="line"/>
      <point x="152" y="700" type="line"/>
    </contour>
  </outline>
</glyph>
<glyph name="i" format="2">
  <advance width="287"/>
  <unicode hex="0069"/>
  <outline>
    <contour>
      <point x="-1" y="0" type="line"/>
      <point x="192" y="0" type="line"/>
      <point x="291" y="467" type="line"/>
      <point x="98" y="467" type="line"/>
    </contour>
    <contour>
      <point x="228" y="703" type="curve" smooth="yes"/>
      <point x="168" y="703"/>
      <point x="123" y="661"/>
      <point x="123" y="604" type="curve" smooth="yes"/>
      <point x="123" y="547"/>
      <point x="162" y="509"/>
      <point x="220" y="509" type="curve" smooth="yes"/>
      <point x="281" y="509"/>
      <point x="324" y="552"/>
      <point x="324" y="612" type="curve" smooth="yes"/>
      <point x="324" y="666"/>
      <point x="285" y="703"/>
    </contour>
  </outline>
</glyph>
<glyph name="j" format="2">
  <advance width="293"/>
  <unicode hex="006A"/>
  <outline>
    <contour>
      <point x="101" y="467" type="line"/>
      <point x="14" y="57" type="line" smooth="yes"/>
      <point x="-2.32456" y="-19.9318"/>
      <point x="-4" y="-25"/>
      <point x="-20" y="-40" type="curve" smooth="yes"/>
      <point x="-40" y="-60"/>
      <point x="-68" y="-68"/>
      <point x="-114" y="-68" type="curve" smooth="yes"/>
      <point x="-130" y="-68" type="line"/>
      <point x="-115" y="-211" type="line"/>
      <point x="-109" y="-212"/>
      <point x="-104" y="-212"/>
      <point x="-102" y="-212" type="curve"/>
      <point x="18" y="-212"/>
      <point x="106" y="-179"/>
      <point x="150" y="-117" type="curve" smooth="yes"/>
      <point x="176" y="-80"/>
      <point x="183" y="-59"/>
      <point x="208" y="61" type="curve" smooth="yes"/>
      <point x="295" y="467" type="line"/>
    </contour>
    <contour>
      <point x="232" y="704" type="curve" smooth="yes"/>
      <point x="171" y="704"/>
      <point x="127" y="662"/>
      <point x="127" y="604" type="curve" smooth="yes"/>
      <point x="127" y="548"/>
      <point x="166" y="510"/>
      <point x="224" y="510" type="curve" smooth="yes"/>
      <point x="284" y="510"/>
      <point x="327" y="553"/>
      <point x="327" y="613" type="curve" smooth="yes"/>
      <point x="327" y="667"/>
      <point x="289" y="704"/>
    </contour>
  </outline>
</glyph>
<glyph name="k" format="2">
  <advance width="582"/>
  <unicode hex="006B"/>
  <outline>
    <contour>
      <point x="3" y="0" type="line"/>
      <point x="196" y="0" type="line"/>
      <point x="244" y="225" type="line"/>
      <point x="320" y="0" type="line"/>
      <point x="543" y="0" type="line"/>
      <point x="437" y="263" type="line"/>
      <point x="634" y="467" type="line"/>
      <point x="432" y="467" type="line"/>
      <point x="252" y="263" type="line"/>
      <point x="345" y="700" type="line"/>
      <point x="152" y="700" type="line"/>
    </contour>
  </outline>
</glyph>
<glyph name="l" format="2">
  <advance width="293"/>
  <unicode hex="006C"/>
  <outline>
    <contour>
      <point x="3" y="0" type="line"/>
      <point x="196" y="0" type="line"/>
      <point x="345" y="700" type="line"/>
      <point x="152" y="700" type="line"/>
    </contour>
  </outline>
</glyph>
<glyph name="m" format="2">
  <advance width="923"/>
  <unicode hex="006D"/>
  <outline>
    <contour>
      <point x="3" y="0" type="line"/>
      <point x="196" y="0" type="line"/>
      <point x="239" y="199" type="line" smooth="yes"/>
      <point x="252" y="262"/>
      <point x="256" y="274"/>
      <point x="271" y="294" type="curve" smooth="yes"/>
      <point x="284" y="311"/>
      <point x="306" y="321"/>
      <point x="328" y="321" type="curve" smooth="yes"/>
      <point x="355" y="321"/>
      <point x="373" y="304"/>
      <point x="373" y="277" type="curve" smooth="yes"/>
      <point x="373" y="261"/>
      <point x="373" y="259"/>
      <point x="359" y="195" type="curve" smooth="yes"/>
      <point x="318" y="0" type="line"/>
      <point x="511" y="0" type="line"/>
      <point x="553" y="196" type="line" smooth="yes"/>
      <point x="565" y="255"/>
      <point x="568" y="263"/>
      <point x="578" y="282" type="curve" smooth="yes"/>
      <point x="591" y="307"/>
      <point x="615" y="321"/>
      <point x="643" y="321" type="curve" smooth="yes"/>
      <point x="671" y="321"/>
      <point x="688" y="304"/>
      <point x="688" y="276" type="curve" smooth="yes"/>
      <point x="688" y="259"/>
      <point x="688" y="259"/>
      <point x="673" y="192" type="curve" smooth="yes"/>
      <point x="632" y="0" type="line"/>
      <point x="826" y="0" type="line"/>
      <point x="868" y="199" type="line" smooth="yes"/>
      <point x="896" y="332"/>
      <point x="896" y="333"/>
      <point x="896" y="366" type="curve" smooth="yes"/>
      <point x="896" y="434"/>
      <point x="840" y="480"/>
      <point x="758" y="480" type="curve" smooth="yes"/>
      <point x="693" y="480"/>
      <point x="638" y="457"/>
      <point x="581" y="406" type="curve"/>
      <point x="554" y="461"/>
      <point x="519" y="480"/>
      <point x="449" y="480" type="curve" smooth="yes"/>
      <point x="382" y="480"/>
      <point x="338" y="461"/>
      <point x="283" y="406" type="curve"/>
      <point x="295" y="467" type="line" name="hr01"/>
      <point x="102" y="467" type="line"/>
    </contour>
  </outline>
</glyph>
<glyph name="n" format="2">
  <advance width="627"/>
  <unicode hex="006E"/>
  <outline>
    <contour>
      <point x="3" y="0" type="line"/>
      <point x="196" y="0" type="line"/>
      <point x="243" y="220" type="line" smooth="yes"/>
      <point x="258" y="289"/>
      <point x="284" y="316"/>
      <point x="336" y="316" type="curve" smooth="yes"/>
      <point x="371" y="316"/>
      <point x="391" y="300"/>
      <point x="391" y="271" type="curve" smooth="yes"/>
      <point x="391" y="263"/>
      <point x="388" y="244"/>
      <point x="384" y="226" type="curve" smooth="yes"/>
      <point x="336" y="0" type="line"/>
      <point x="530" y="0" type="line"/>
      <point x="580" y="238" type="line" smooth="yes"/>
      <point x="581" y="243"/>
      <point x="582" y="247"/>
      <point x="584" y="253" type="curve"/>
      <point x="593" y="295"/>
      <point x="600" y="337"/>
      <point x="600" y="357" type="curve" smooth="yes"/>
      <point x="600" y="433"/>
      <point x="541" y="481"/>
      <point x="449" y="481" type="curve" smooth="yes"/>
      <point x="386" y="481"/>
      <point x="338" y="461"/>
      <point x="284" y="412" type="curve"/>
      <point x="295" y="467" type="line" name="hr01"/>
      <point x="102" y="467" type="line"/>
    </contour>
  </outline>
</glyph>
<glyph name="o" format="2">
  <advance width="625"/>
  <unicode hex="006F"/>
  <outline>
    <contour>
      <point x="357" y="481" type="curve" smooth="yes"/>
      <point x="255" y="481"/>
      <point x="181" y="458"/>
      <point x="126" y="408" type="curve" smooth="yes"/>
      <point x="70" y="357"/>
      <point x="31" y="264"/>
      <point x="31" y="178" type="curve" smooth="yes"/>
      <point x="31" y="47"/>
      <point x="110" y="-14"/>
      <point x="280" y="-14" type="curve" smooth="yes"/>
      <point x="380" y="-14"/>
      <point x="451" y="10"/>
      <point x="507" y="61" type="curve" smooth="yes"/>
      <point x="564" y="114"/>
      <point x="602" y="208"/>
      <point x="602" y="298" type="curve" smooth="yes"/>
      <point x="602" y="421"/>
      <point x="521" y="481"/>
    </contour>
    <contour>
      <point x="344" y="349" type="curve" smooth="yes"/>
      <point x="381" y="349"/>
      <point x="401" y="328"/>
      <point x="401" y="286" type="curve" smooth="yes"/>
      <point x="401" y="253"/>
      <point x="392" y="214"/>
      <point x="377" y="183" type="curve" smooth="yes"/>
      <point x="356" y="138"/>
      <point x="327" y="116"/>
      <point x="289" y="116" type="curve" smooth="yes"/>
      <point x="251" y="116"/>
      <point x="232" y="138"/>
      <point x="232" y="182" type="curve" smooth="yes"/>
      <point x="232" y="207"/>
      <point x="241" y="247"/>
      <point x="253" y="275" type="curve" smooth="yes"/>
      <point x="274" y="325"/>
      <point x="305" y="349"/>
    </contour>
  </outline>
</glyph>
<glyph name="p" format="2">
  <advance width="638"/>
  <unicode hex="0070"/>
  <outline>
    <contour>
      <point x="151" y="-213" type="line"/>
      <point x="206" y="43" type="line"/>
      <point x="246" y="1"/>
      <point x="281" y="-14"/>
      <point x="337" y="-14" type="curve" smooth="yes"/>
      <point x="413" y="-14"/>
      <point x="487" y="20"/>
      <point x="536" y="79" type="curve" smooth="yes"/>
      <point x="585" y="137"/>
      <point x="617" y="229"/>
      <point x="617" y="310" type="curve" smooth="yes"/>
      <point x="617" y="412"/>
      <point x="549" y="480"/>
      <point x="446" y="480" type="curve" smooth="yes"/>
      <point x="390" y="480"/>
      <point x="345" y="463"/>
      <point x="286" y="419" type="curve"/>
      <point x="296" y="467" type="line"/>
      <point x="102" y="467" type="line"/>
      <point x="-42" y="-213" type="line"/>
    </contour>
    <contour>
      <point x="352" y="344" type="curve" smooth="yes"/>
      <point x="388" y="344"/>
      <point x="409" y="318"/>
      <point x="409" y="275" type="curve" smooth="yes"/>
      <point x="409" y="192"/>
      <point x="360" y="123"/>
      <point x="302" y="123" type="curve" smooth="yes"/>
      <point x="264" y="123"/>
      <point x="242" y="150" name="hr01"/>
      <point x="242" y="195" type="curve" smooth="yes"/>
      <point x="242" y="277"/>
      <point x="292" y="344"/>
    </contour>
  </outline>
</glyph>
<glyph name="q" format="2">
  <advance width="638"/>
  <unicode hex="0071"/>
  <outline>
    <contour>
      <point x="471" y="467" type="line"/>
      <point x="438" y="423" type="line"/>
      <point x="398" y="465"/>
      <point x="363" y="481" name="hr01"/>
      <point x="307" y="481" type="curve" smooth="yes"/>
      <point x="231" y="481"/>
      <point x="157" y="446"/>
      <point x="109" y="388" type="curve" smooth="yes"/>
      <point x="59" y="329"/>
      <point x="28" y="240"/>
      <point x="28" y="157" type="curve" smooth="yes"/>
      <point x="28" y="53"/>
      <point x="93" y="-13"/>
      <point x="195" y="-13" type="curve" smooth="yes"/>
      <point x="254" y="-13"/>
      <point x="298" y="3"/>
      <point x="358" y="47" type="curve"/>
      <point x="303" y="-213" type="line"/>
      <point x="496" y="-213" type="line"/>
      <point x="640" y="467" type="line" name="hr02"/>
    </contour>
    <contour>
      <point x="342" y="344" type="curve" smooth="yes"/>
      <point x="380" y="344"/>
      <point x="402" y="317"/>
      <point x="402" y="273" type="curve" smooth="yes"/>
      <point x="402" y="190"/>
      <point x="353" y="123"/>
      <point x="292" y="123" type="curve" smooth="yes"/>
      <point x="256" y="123"/>
      <point x="235" y="149"/>
      <point x="235" y="192" type="curve" smooth="yes"/>
      <point x="235" y="220"/>
      <point x="244" y="258"/>
      <point x="257" y="284" type="curve" smooth="yes"/>
      <point x="277" y="322"/>
      <point x="308" y="344"/>
    </contour>
  </outline>
</glyph>
<glyph name="r" format="2">
  <advance width="442"/>
  <unicode hex="0072"/>
  <outline>
    <contour>
      <point x="3" y="0" type="line"/>
      <point x="196" y="0" type="line"/>
      <point x="216" y="93" type="line" smooth="yes"/>
      <point x="232" y="167"/>
      <point x="241" y="202"/>
      <point x="254" y="227" type="curve"/>
      <point x="275" y="273"/>
      <point x="306" y="295"/>
      <point x="349" y="295" type="curve" smooth="yes"/>
      <point x="379" y="295"/>
      <point x="405" y="285"/>
      <point x="427" y="266" type="curve"/>
      <point x="509" y="461" type="line"/>
      <point x="479" y="474"/>
      <point x="453" y="480"/>
      <point x="423" y="480" type="curve" smooth="yes"/>
      <point x="359" y="480"/>
      <point x="315" y="456"/>
      <point x="274" y="399" type="curve"/>
      <point x="288" y="467" type="line" name="hr01"/>
      <point x="102" y="467" type="line"/>
    </contour>
  </outline>
</glyph>
<glyph name="t" format="2">
  <advance width="397"/>
  <unicode hex="0074"/>
  <outline>
    <contour>
      <point x="145" y="580" type="line"/>
      <point x="120" y="467" type="line"/>
      <point x="56" y="467" type="line"/>
      <point x="25" y="318" type="line"/>
      <point x="89" y="318" type="line"/>
      <point x="70" y="226" type="line" smooth="yes"/>
      <point x="61" y="186"/>
      <point x="56" y="150"/>
      <point x="56" y="127" type="curve" smooth="yes"/>
      <point x="56" y="87"/>
      <point x="74" y="46"/>
      <point x="102" y="25" type="curve" smooth="yes"/>
      <point x="128" y="6"/>
      <point x="166" y="-2"/>
      <point x="234" y="-2" type="curve" smooth="yes"/>
      <point x="252" y="-2"/>
      <point x="267" y="-2"/>
      <point x="311" y="0" type="curve"/>
      <point x="369" y="149" type="line"/>
      <point x="361" y="149" type="line" smooth="yes"/>
      <point x="293" y="149"/>
      <point x="263" y="167"/>
      <point x="263" y="209" type="curve" smooth="yes"/>
      <point x="263" y="224"/>
      <point x="265" y="236"/>
      <point x="273" y="276" type="curve" smooth="yes"/>
      <point x="282" y="318" type="line"/>
      <point x="379" y="318" type="line"/>
      <point x="410" y="467" type="line"/>
      <point x="314" y="467" type="line"/>
      <point x="351" y="643" type="line"/>
    </contour>
  </outline>
</glyph>
<glyph name="u" format="2">
  <advance width="626"/>
  <unicode hex="0075"/>
  <outline>
    <contour>
      <point x="102" y="467" type="line"/>
      <point x="49" y="216" type="line" smooth="yes"/>
      <point x="40.5723" y="176.088"/>
      <point x="36" y="142"/>
      <point x="36" y="118" type="curve" smooth="yes"/>
      <point x="36" y="89"/>
      <point x="47" y="58"/>
      <point x="65" y="33" type="curve" smooth="yes"/>
      <point x="87" y="3"/>
      <point x="126" y="-13"/>
      <point x="176" y="-13" type="curve" smooth="yes"/>
      <point x="237" y="-13"/>
      <point x="281" y="7"/>
      <point x="350" y="68" type="curve"/>
      <point x="336" y="0" type="line"/>
      <point x="529" y="0" type="line"/>
      <point x="628" y="467" type="line"/>
      <point x="435" y="467" type="line"/>
      <point x="392" y="266" type="line" smooth="yes"/>
      <point x="379" y="203"/>
      <point x="379" y="203"/>
      <point x="371" y="187" type="curve" smooth="yes"/>
      <point x="358" y="161"/>
      <point x="328" y="144"/>
      <point x="298" y="144" type="curve" smooth="yes"/>
      <point x="263" y="144"/>
      <point x="242" y="163"/>
      <point x="242" y="196" type="curve" smooth="yes"/>
      <point x="242" y="209"/>
      <point x="245" y="229"/>
      <point x="253" y="266" type="curve" smooth="yes"/>
      <point x="295" y="467" type="line"/>
    </contour>
  </outline>
</glyph>
<glyph name="v" format="2">
  <advance width="500"/>
  <unicode hex="0076"/>
  <outline>
    <contour>
      <point x="92" y="0" type="line"/>
      <point x="282" y="0" type="line"/>
      <point x="578" y="467" type="line"/>
      <point x="381" y="467" type="line"/>
      <point x="267" y="257" type="line"/>
      <point x="252" y="467" type="line"/>
      <point x="52" y="467" type="line"/>
    </contour>
  </outline>
</glyph>
<glyph name="w" format="2">
  <advance width="829"/>
  <unicode hex="0077"/>
  <outline>
    <contour>
      <point x="83" y="0" type="line"/>
      <point x="285" y="0" type="line"/>
      <point x="418" y="240" type="line"/>
      <point x="425" y="0" type="line"/>
      <point x="630" y="0" type="line"/>
      <point x="885" y="467" type="line"/>
      <point x="690" y="467" type="line"/>
      <point x="581" y="228" type="line"/>
      <point x="567" y="467" type="line"/>
      <point x="387" y="467" type="line"/>
      <point x="263" y="248" type="line"/>
      <point x="263" y="467" type="line"/>
      <point x="63" y="467" type="line"/>
    </contour>
  </outline>
</glyph>
<glyph name="x" format="2">
  <advance width="523"/>
  <unicode hex="0078"/>
  <outline>
    <contour>
      <point x="-67" y="0" type="line"/>
      <point x="152" y="0" type="line"/>
      <point x="223" y="98" type="line"/>
      <point x="264" y="0" type="line"/>
      <point x="477" y="0" type="line"/>
      <point x="364" y="231" type="line"/>
      <point x="564" y="467" type="line"/>
      <point x="364" y="467" type="line"/>
      <point x="293" y="389" type="line"/>
      <point x="260" y="467" type="line"/>
      <point x="47" y="467" type="line"/>
      <point x="147" y="247" type="line"/>
    </contour>
  </outline>
</glyph>
<glyph name="y" format="2">
  <advance width="515"/>
  <unicode hex="0079"/>
  <outline>
    <contour>
      <point x="43" y="467" type="line"/>
      <point x="106" y="-1" type="line"/>
      <point x="98" y="-12" type="line"/>
      <point x="68" y="-58"/>
      <point x="50" y="-65"/>
      <point x="-30" y="-65" type="curve" smooth="yes"/>
      <point x="-43" y="-65"/>
      <point x="-60" y="-65"/>
      <point x="-83" y="-64" type="curve"/>
      <point x="-57" y="-214" type="line"/>
      <point x="56" y="-214"/>
      <point x="101" y="-210"/>
      <point x="133" y="-194" type="curve"/>
      <point x="186" y="-165"/>
      <point x="222" y="-117"/>
      <point x="384" y="141" type="curve" smooth="yes"/>
      <point x="590" y="467" type="line"/>
      <point x="391" y="467" type="line"/>
      <point x="262" y="231" type="line"/>
      <point x="248" y="467" type="line"/>
    </contour>
  </outline>
</glyph>
<glyph name="z" format="2">
  <advance width="521"/>
  <unicode hex="007A"/>
  <outline>
    <contour>
      <point x="-33" y="0" type="line"/>
      <point x="459" y="0" type="line"/>
      <point x="491" y="149" type="line"/>
      <point x="290" y="149" type="line"/>
      <point x="506" y="339" type="line"/>
      <point x="533" y="467" type="line"/>
      <point x="87" y="467" type="line"/>
      <point x="57" y="321" type="line"/>
      <point x="248" y="321" type="line"/>
      <point x="-7" y="123" type="line"/>
    </contour>
  </outline>
</glyph>
<glyph name="braceleft" format="2">
  <advance width="320"/>
  <unicode hex="007B"/>
  <outline>
    <contour>
      <point x="385" y="696" type="line"/>
      <point x="328" y="696" type="line" smooth="yes"/>
      <point x="260" y="696"/>
      <point x="227" y="688"/>
      <point x="196" y="664" type="curve" smooth="yes"/>
      <point x="164" y="639"/>
      <point x="151" y="611"/>
      <point x="135" y="538" type="curve" smooth="yes"/>
      <point x="116" y="449" type="line"/>
      <point x="100" y="360"/>
      <point x="76" y="333"/>
      <point x="7" y="326" type="curve"/>
      <point x="-1" y="288" type="line"/>
      <point x="49" y="286"/>
      <point x="66" y="272"/>
      <point x="66" y="233" type="curve" smooth="yes"/>
      <point x="66" y="220"/>
      <point x="63" y="200"/>
      <point x="59" y="179" type="curve" smooth="yes"/>
      <point x="29" y="36" type="line" smooth="yes"/>
      <point x="25" y="17"/>
      <point x="22" y="0" name="hr01"/>
      <point x="22" y="-9" type="curve" smooth="yes"/>
      <point x="22" y="-31"/>
      <point x="34" y="-52"/>
      <point x="55" y="-67" type="curve" smooth="yes"/>
      <point x="77" y="-82"/>
      <point x="105" y="-87"/>
      <point x="166" y="-87" type="curve" smooth="yes"/>
      <point x="189" y="-87"/>
      <point x="197" y="-87"/>
      <point x="219" y="-85" type="curve"/>
      <point x="227" y="-46" type="line"/>
      <point x="175" y="-38"/>
      <point x="155" y="-20"/>
      <point x="155" y="19" type="curve" smooth="yes"/>
      <point x="155" y="30"/>
      <point x="157" y="49"/>
      <point x="161" y="67" type="curve" smooth="yes"/>
      <point x="181" y="159" type="line" smooth="yes"/>
      <point x="188" y="191"/>
      <point x="192" y="219" name="hr02"/>
      <point x="192" y="229" type="curve" smooth="yes"/>
      <point x="192" y="251"/>
      <point x="184" y="272"/>
      <point x="169" y="288" type="curve" smooth="yes"/>
      <point x="158" y="299"/>
      <point x="149" y="303"/>
      <point x="128" y="307" type="curve"/>
      <point x="201" y="334"/>
      <point x="225" y="364"/>
      <point x="242" y="449" type="curve" smooth="yes"/>
      <point x="261" y="538" type="line"/>
      <point x="276" y="617"/>
      <point x="311" y="653"/>
      <point x="377" y="658" type="curve"/>
    </contour>
  </outline>
</glyph>
<glyph name="bar" format="2">
  <advance width="607"/>
  <unicode hex="007C"/>
  <outline>
    <contour>
      <point x="267" y="667" type="line"/>
      <point x="267" y="-167" type="line"/>
      <point x="352" y="-167" type="line"/>
      <point x="352" y="667" type="line"/>
    </contour>
  </outline>
</glyph>
<glyph name="braceright" format="2">
  <advance width="320"/>
  <unicode hex="007D"/>
  <outline>
    <contour>
      <point x="103" y="658" type="line"/>
      <point x="125" y="655"/>
      <point x="135" y="653"/>
      <point x="146" y="646" type="curve" smooth="yes"/>
      <point x="164" y="635"/>
      <point x="176" y="612"/>
      <point x="175" y="589" type="curve" smooth="yes"/>
      <point x="174" y="576"/>
      <point x="172" y="558"/>
      <point x="167" y="538" type="curve"/>
      <point x="149" y="449" type="line" smooth="yes"/>
      <point x="144" y="426"/>
      <point x="140" y="400"/>
      <point x="140" y="388" type="curve" smooth="yes"/>
      <point x="140" y="348"/>
      <point x="156" y="328"/>
      <point x="202" y="307" type="curve"/>
      <point x="139" y="296"/>
      <point x="102" y="249"/>
      <point x="87" y="159" type="curve"/>
      <point x="67" y="67" type="line"/>
      <point x="52" y="-9"/>
      <point x="24" y="-37"/>
      <point x="-47" y="-46" type="curve"/>
      <point x="-55" y="-85" type="line"/>
      <point x="-33" y="-87"/>
      <point x="-23" y="-87"/>
      <point x="-6" y="-87" type="curve" smooth="yes"/>
      <point x="47" y="-87"/>
      <point x="82" y="-82"/>
      <point x="105" y="-73" type="curve"/>
      <point x="153" y="-52"/>
      <point x="174" y="-24"/>
      <point x="187" y="36" type="curve" smooth="yes"/>
      <point x="217" y="179" type="line" smooth="yes"/>
      <point x="235" y="262"/>
      <point x="259" y="286"/>
      <point x="323" y="288" type="curve"/>
      <point x="332" y="326" type="line"/>
      <point x="286" y="331"/>
      <point x="264" y="349"/>
      <point x="264" y="383" type="curve" smooth="yes"/>
      <point x="264" y="393"/>
      <point x="268" y="418"/>
      <point x="275" y="449" type="curve" smooth="yes"/>
      <point x="293" y="538" type="line"/>
      <point x="300" y="567"/>
      <point x="304" y="596"/>
      <point x="304" y="608" type="curve" smooth="yes"/>
      <point x="304" y="635"/>
      <point x="295" y="658"/>
      <point x="278" y="672" type="curve" smooth="yes"/>
      <point x="258" y="690"/>
      <point x="228" y="696"/>
      <point x="168" y="696" type="curve" smooth="yes"/>
      <point x="111" y="696" type="line"/>
    </contour>
  </outline>
</glyph>
<glyph name="asciitilde" format="2">
  <advance width="567"/>
  <unicode hex="007E"/>
  <outline>
    <contour>
      <point x="182" y="568" type="line"/>
      <point x="208" y="593"/>
      <point x="241" y="605"/>
      <point x="281" y="605" type="curve" smooth="yes"/>
      <point x="306" y="605"/>
      <point x="326" y="601"/>
      <point x="372" y="586" type="curve" smooth="yes"/>
      <point x="411" y="574"/>
      <point x="436" y="569" name="hr01"/>
      <point x="461" y="569" type="curve" smooth="yes"/>
      <point x="508" y="569"/>
      <point x="551" y="587"/>
      <point x="595" y="623" type="curve"/>
      <point x="574" y="711" type="line"/>
      <point x="540" y="676"/>
      <point x="505" y="660"/>
      <point x="463" y="660" type="curve" smooth="yes"/>
      <point x="448" y="660"/>
      <point x="416" y="665"/>
      <point x="398" y="671" type="curve" smooth="yes"/>
      <point x="331" y="691"/>
      <point x="304" y="697" name="hr02"/>
      <point x="278" y="697" type="curve" smooth="yes"/>
      <point x="235" y="697"/>
      <point x="198" y="682"/>
      <point x="147" y="642" type="curve"/>
    </contour>
  </outline>
</glyph>
<glyph name="exclamdown" format="2">
  <advance width="321"/>
  <unicode hex="00A1"/>
  <outline>
    <contour>
      <point x="237" y="298" type="line"/>
      <point x="119" y="298" type="line"/>
      <point x="25" y="56" type="line"/>
      <point x="-16" y="-140" type="line"/>
      <point x="184" y="-140" type="line"/>
      <point x="226" y="58" type="line"/>
    </contour>
    <contour>
      <point x="210" y="540" type="curve" smooth="yes"/>
      <point x="150" y="540"/>
      <point x="107" y="498"/>
      <point x="107" y="438" type="curve" smooth="yes"/>
      <point x="107" y="384"/>
      <point x="146" y="348"/>
      <point x="203" y="348" type="curve" smooth="yes"/>
      <point x="263" y="348"/>
      <point x="307" y="390"/>
      <point x="307" y="446" type="curve" smooth="yes"/>
      <point x="307" y="503"/>
      <point x="269" y="540"/>
    </contour>
  </outline>
</glyph>
<glyph name="cent" format="2">
  <advance width="609"/>
  <unicode hex="00A2"/>
  <outline>
    <contour>
      <point x="602" y="463" type="line"/>
      <point x="597" y="549"/>
      <point x="541" y="591"/>
      <point x="422" y="599" type="curve"/>
      <point x="438" y="674" type="line"/>
      <point x="401" y="674" type="line"/>
      <point x="385" y="599" type="line"/>
      <point x="309" y="596"/>
      <point x="264" y="585"/>
      <point x="218" y="558" type="curve" smooth="yes"/>
      <point x="136" y="509"/>
      <point x="80" y="396"/>
      <point x="80" y="279" type="curve" smooth="yes"/>
      <point x="80" y="216"/>
      <point x="103" y="165"/>
      <point x="144" y="136" type="curve" smooth="yes"/>
      <point x="173" y="116"/>
      <point x="211" y="107"/>
      <point x="280" y="105" type="curve"/>
      <point x="261" y="15" type="line"/>
      <point x="298" y="15" type="line"/>
      <point x="317" y="105" type="line"/>
      <point x="447" y="109"/>
      <point x="514" y="143"/>
      <point x="557" y="230" type="curve"/>
      <point x="407" y="274" type="line"/>
      <point x="392" y="234"/>
      <point x="367" y="210"/>
      <point x="339" y="206" type="curve"/>
      <point x="400" y="495" type="line"/>
      <point x="428" y="491"/>
      <point x="440" y="474"/>
      <point x="440" y="440" type="curve"/>
      <point x="440" y="438"/>
      <point x="440" y="431"/>
      <point x="439" y="426" type="curve"/>
    </contour>
    <contour>
      <point x="302" y="208" type="line"/>
      <point x="271" y="212"/>
      <point x="256" y="236"/>
      <point x="256" y="282" type="curve" smooth="yes"/>
      <point x="256" y="333"/>
      <point x="273" y="400"/>
      <point x="296" y="440" type="curve" smooth="yes"/>
      <point x="316" y="476"/>
      <point x="334" y="490"/>
      <point x="363" y="495" type="curve"/>
    </contour>
  </outline>
</glyph>
<glyph name="sterling" format="2">
  <advance width="609"/>
  <unicode hex="00A3"/>
  <outline>
    <contour>
      <point x="-27" y="0" type="line"/>
      <point x="541" y="0" type="line"/>
      <point x="568" y="151" type="line"/>
      <point x="214" y="151" type="line"/>
      <point x="255" y="177"/>
      <point x="303" y="231"/>
      <point x="324" y="275" type="curve"/>
      <point x="332" y="294" type="line"/>
      <point x="499" y="294" type="line"/>
      <point x="522" y="426" type="line"/>
      <point x="367" y="426" type="line"/>
      <point x="369" y="440" type="line" smooth="yes"/>
      <point x="372.581" y="465.064"/>
      <point x="394" y="500"/>
      <point x="414" y="516" type="curve" smooth="yes"/>
      <point x="431" y="529"/>
      <point x="457" y="538"/>
      <point x="482" y="538" type="curve" smooth="yes"/>
      <point x="513" y="538"/>
      <point x="541" y="527"/>
      <point x="575" y="502" type="curve"/>
      <point x="610" y="634" type="line"/>
      <point x="567" y="665"/>
      <point x="521" y="678"/>
      <point x="450" y="678" type="curve" smooth="yes"/>
      <point x="384" y="678"/>
      <point x="333" y="663"/>
      <point x="286" y="631" type="curve" smooth="yes"/>
      <point x="238" y="598"/>
      <point x="211" y="555"/>
      <point x="191" y="480" type="curve" smooth="yes"/>
      <point x="176" y="426" type="line"/>
      <point x="88" y="426" type="line"/>
      <point x="65" y="294" type="line"/>
      <point x="141" y="294" type="line"/>
      <point x="138" y="279" type="line" smooth="yes"/>
      <point x="118" y="189"/>
      <point x="75" y="148"/>
      <point x="-1" y="147" type="curve"/>
    </contour>
  </outline>
</glyph>
<glyph name="currency" format="2">
  <advance width="567"/>
  <unicode hex="00A4"/>
  <outline>
    <contour>
      <point x="35" y="454" type="line"/>
      <point x="148" y="343" type="line"/>
      <point x="131" y="311"/>
      <point x="124" y="287"/>
      <point x="124" y="258" type="curve" smooth="yes"/>
      <point x="124" y="228"/>
      <point x="130" y="206"/>
      <point x="148" y="170" type="curve"/>
      <point x="35" y="57" type="line"/>
      <point x="95" y="-1" type="line"/>
      <point x="207" y="111" type="line"/>
      <point x="240" y="93"/>
      <point x="263" y="87"/>
      <point x="296" y="87" type="curve" smooth="yes"/>
      <point x="329" y="87"/>
      <point x="350" y="93"/>
      <point x="378" y="111" type="curve"/>
      <point x="486" y="-1" type="line"/>
      <point x="548" y="57" type="line"/>
      <point x="437" y="171" type="line"/>
      <point x="454" y="199"/>
      <point x="461" y="222"/>
      <point x="461" y="255" type="curve" smooth="yes"/>
      <point x="461" y="288"/>
      <point x="455" y="312"/>
      <point x="438" y="344" type="curve"/>
      <point x="547" y="453" type="line"/>
      <point x="489" y="512" type="line"/>
      <point x="379" y="402" type="line"/>
      <point x="347" y="421"/>
      <point x="325" y="427"/>
      <point x="293" y="427" type="curve" smooth="yes"/>
      <point x="261" y="427"/>
      <point x="241" y="421"/>
      <point x="207" y="403" type="curve"/>
      <point x="95" y="516" type="line"/>
    </contour>
    <contour>
      <point x="292" y="345" type="curve" smooth="yes"/>
      <point x="341" y="345"/>
      <point x="380" y="306"/>
      <point x="380" y="256" type="curve" smooth="yes"/>
      <point x="380" y="207"/>
      <point x="341" y="168"/>
      <point x="292" y="168" type="curve" smooth="yes"/>
      <point x="244" y="168"/>
      <point x="205" y="209"/>
      <point x="205" y="259" type="curve" smooth="yes"/>
      <point x="205" y="306"/>
      <point x="244" y="345"/>
    </contour>
  </outline>
</glyph>
<glyph name="yen" format="2">
  <advance width="678"/>
  <unicode hex="00A5"/>
  <outline>
    <contour>
      <point x="382" y="0" type="line"/>
      <point x="433" y="241" type="line"/>
      <point x="659" y="241" type="line"/>
      <point x="671" y="298" type="line"/>
      <point x="479" y="298" type="line"/>
      <point x="557" y="392" type="line"/>
      <point x="692" y="392" type="line"/>
      <point x="703" y="445" type="line"/>
      <point x="598" y="445" type="line"/>
      <point x="767" y="667" type="line"/>
      <point x="561" y="667" type="line"/>
      <point x="388" y="413" type="line"/>
      <point x="311" y="667" type="line"/>
      <point x="82" y="667" type="line"/>
      <point x="170" y="445" type="line"/>
      <point x="82" y="445" type="line"/>
      <point x="71" y="392" type="line"/>
      <point x="189" y="392" type="line"/>
      <point x="227" y="298" type="line"/>
      <point x="51" y="298" type="line"/>
      <point x="39" y="241" type="line"/>
      <point x="241" y="241" type="line"/>
      <point x="190" y="0" type="line"/>
    </contour>
  </outline>
</glyph>
<glyph name="brokenbar" format="2">
  <advance width="607"/>
  <unicode hex="00A6"/>
  <outline>
    <contour>
      <point x="231" y="667" type="line"/>
      <point x="231" y="303" type="line"/>
      <point x="424" y="303" type="line"/>
      <point x="424" y="667" type="line"/>
    </contour>
    <contour>
      <point x="231" y="153" type="line"/>
      <point x="231" y="-167" type="line"/>
      <point x="424" y="-167" type="line"/>
      <point x="424" y="153" type="line"/>
    </contour>
  </outline>
</glyph>
<glyph name="section" format="2">
  <advance width="607"/>
  <unicode hex="00A7"/>
  <outline>
    <contour>
      <point x="-21" y="31" type="line"/>
      <point x="-12" y="-88"/>
      <point x="78" y="-152"/>
      <point x="235" y="-152" type="curve" smooth="yes"/>
      <point x="404" y="-152"/>
      <point x="524" y="-67"/>
      <point x="524" y="52" type="curve" smooth="yes"/>
      <point x="524" y="80"/>
      <point x="519" y="100"/>
      <point x="503" y="130" type="curve"/>
      <point x="567" y="172"/>
      <point x="601" y="228" name="hr01"/>
      <point x="601" y="291" type="curve" smooth="yes"/>
      <point x="601" y="378"/>
      <point x="547" y="430"/>
      <point x="433" y="454" type="curve"/>
      <point x="330" y="477"/>
      <point x="307" y="487"/>
      <point x="307" y="509" type="curve" smooth="yes"/>
      <point x="307" y="534"/>
      <point x="338" y="552"/>
      <point x="379" y="552" type="curve" smooth="yes"/>
      <point x="429" y="552"/>
      <point x="453" y="531"/>
      <point x="456" y="485" type="curve"/>
      <point x="636" y="515" type="line"/>
      <point x="633" y="619"/>
      <point x="542" y="683"/>
      <point x="394" y="683" type="curve" smooth="yes"/>
      <point x="317" y="683"/>
      <point x="257" y="669"/>
      <point x="207" y="639" type="curve" smooth="yes"/>
      <point x="152" y="605"/>
      <point x="117" y="546"/>
      <point x="117" y="486" type="curve" smooth="yes"/>
      <point x="117" y="459"/>
      <point x="123" y="440"/>
      <point x="139" y="415" type="curve"/>
      <point x="67" y="372"/>
      <point x="35" y="325" name="hr03"/>
      <point x="35" y="261" type="curve" smooth="yes"/>
      <point x="35" y="211"/>
      <point x="57" y="165"/>
      <point x="95" y="137" type="curve" smooth="yes"/>
      <point x="124" y="115"/>
      <point x="159" y="100"/>
      <point x="215" y="88" type="curve" smooth="yes"/>
      <point x="306" y="68"/>
      <point x="323" y="60"/>
      <point x="323" y="39" type="curve" smooth="yes"/>
      <point x="323" y="14"/>
      <point x="293" y="-2"/>
      <point x="250" y="-2" type="curve" smooth="yes"/>
      <point x="198" y="-2"/>
      <point x="170" y="20" name="hr04"/>
      <point x="170" y="60" type="curve"/>
    </contour>
    <contour>
      <point x="420" y="199" type="curve"/>
      <point x="403" y="206"/>
      <point x="385" y="212"/>
      <point x="334" y="224" type="curve" smooth="yes"/>
      <point x="223" y="251"/>
      <point x="223" y="251"/>
      <point x="204" y="262" type="curve" smooth="yes"/>
      <point x="193" y="269"/>
      <point x="186" y="283" name="hr05"/>
      <point x="186" y="298" type="curve" smooth="yes"/>
      <point x="186" y="319"/>
      <point x="197" y="335"/>
      <point x="219" y="345" type="curve"/>
      <point x="248" y="334"/>
      <point x="273" y="327"/>
      <point x="323" y="316" type="curve" smooth="yes"/>
      <point x="429" y="293"/>
      <point x="448" y="283" name="hr06"/>
      <point x="448" y="250" type="curve" smooth="yes"/>
      <point x="448" y="232"/>
      <point x="440" y="216"/>
    </contour>
  </outline>
</glyph>
<glyph name="dieresis" format="2">
  <advance width="500"/>
  <unicode hex="00A8"/>
  <outline>
    <contour>
      <point x="203" y="714" type="curve" smooth="yes"/>
      <point x="147" y="714"/>
      <point x="105" y="675"/>
      <point x="105" y="621" type="curve" smooth="yes"/>
      <point x="105" y="568"/>
      <point x="141" y="533"/>
      <point x="196" y="533" type="curve" smooth="yes"/>
      <point x="251" y="533"/>
      <point x="293" y="574"/>
      <point x="293" y="629" type="curve" smooth="yes"/>
      <point x="293" y="678"/>
      <point x="255" y="714"/>
    </contour>
    <contour>
      <point x="442" y="714" type="curve" smooth="yes"/>
      <point x="388" y="714"/>
      <point x="346" y="674"/>
      <point x="346" y="621" type="curve" smooth="yes"/>
      <point x="346" y="568"/>
      <point x="382" y="533"/>
      <point x="437" y="533" type="curve" smooth="yes"/>
      <point x="494" y="533"/>
      <point x="534" y="573"/>
      <point x="534" y="629" type="curve" smooth="yes"/>
      <point x="534" y="680"/>
      <point x="497" y="714"/>
    </contour>
  </outline>
</glyph>
<glyph name="copyright" format="2">
  <advance width="763"/>
  <unicode hex="00A9"/>
  <outline>
    <contour>
      <point x="576" y="412" type="line"/>
      <point x="564" y="495"/>
      <point x="521" y="527"/>
      <point x="422" y="527" type="curve" smooth="yes"/>
      <point x="292" y="527"/>
      <point x="222" y="460"/>
      <point x="222" y="336" type="curve" smooth="yes"/>
      <point x="222" y="211"/>
      <point x="286" y="148"/>
      <point x="415" y="148" type="curve" smooth="yes"/>
      <point x="507" y="148"/>
      <point x="558" y="184"/>
      <point x="577" y="263" type="curve"/>
      <point x="466" y="302" type="line"/>
      <point x="458" y="257"/>
      <point x="442" y="239"/>
      <point x="412" y="239" type="curve" smooth="yes"/>
      <point x="374" y="239"/>
      <point x="351" y="274"/>
      <point x="351" y="333" type="curve" smooth="yes"/>
      <point x="351" y="400"/>
      <point x="373" y="436"/>
      <point x="413" y="436" type="curve" smooth="yes"/>
      <point x="448" y="436"/>
      <point x="463" y="418"/>
      <point x="466" y="373" type="curve"/>
    </contour>
    <contour>
      <point x="412" y="684" type="curve" smooth="yes"/>
      <point x="214" y="684"/>
      <point x="58" y="529"/>
      <point x="58" y="333" type="curve" smooth="yes"/>
      <point x="58" y="141"/>
      <point x="215" y="-17"/>
      <point x="407" y="-17" type="curve" smooth="yes"/>
      <point x="598" y="-17"/>
      <point x="754" y="140"/>
      <point x="754" y="333" type="curve" smooth="yes"/>
      <point x="754" y="525"/>
      <point x="599" y="684"/>
    </contour>
    <contour>
      <point x="411" y="621" type="curve" smooth="yes"/>
      <point x="560" y="621"/>
      <point x="684" y="490"/>
      <point x="684" y="333" type="curve" smooth="yes"/>
      <point x="684" y="175"/>
      <point x="559" y="46"/>
      <point x="407" y="46" type="curve" smooth="yes"/>
      <point x="254" y="46"/>
      <point x="128" y="176"/>
      <point x="128" y="333" type="curve" smooth="yes"/>
      <point x="128" y="494"/>
      <point x="252" y="621"/>
    </contour>
  </outline>
</glyph>
<glyph name="ordfeminine" format="2">
  <advance width="394"/>
  <unicode hex="00AA"/>
  <outline>
    <contour>
      <point x="325" y="667" type="line"/>
      <point x="320" y="644" type="line"/>
      <point x="308" y="666"/>
      <point x="291" y="674" name="hr01"/>
      <point x="255" y="674" type="curve" smooth="yes"/>
      <point x="209" y="674"/>
      <point x="170" y="659"/>
      <point x="139" y="630" type="curve" smooth="yes"/>
      <point x="108" y="600"/>
      <point x="85" y="540"/>
      <point x="85" y="485" type="curve" smooth="yes"/>
      <point x="85" y="428"/>
      <point x="123" y="393"/>
      <point x="184" y="393" type="curve" smooth="yes"/>
      <point x="222" y="393"/>
      <point x="247" y="401"/>
      <point x="272" y="421" type="curve"/>
      <point x="268" y="400" type="line" name="hr02"/>
      <point x="386" y="400" type="line"/>
      <point x="442" y="667" type="line"/>
    </contour>
    <contour>
      <point x="268" y="592" type="curve" smooth="yes" name="hr03"/>
      <point x="288" y="592"/>
      <point x="299" y="579"/>
      <point x="299" y="557" type="curve" smooth="yes"/>
      <point x="299" y="510"/>
      <point x="275" y="475"/>
      <point x="242" y="475" type="curve" smooth="yes"/>
      <point x="222" y="475"/>
      <point x="213" y="486"/>
      <point x="213" y="511" type="curve" smooth="yes"/>
      <point x="213" y="556"/>
      <point x="237" y="592"/>
    </contour>
    <contour>
      <point x="406" y="345" type="line"/>
      <point x="41" y="345" type="line"/>
      <point x="28" y="282" type="line"/>
      <point x="393" y="282" type="line"/>
    </contour>
  </outline>
</glyph>
<glyph name="guillemotleft" format="2">
  <advance width="460"/>
  <unicode hex="00AB"/>
  <outline>
    <contour>
      <point x="104" y="14" type="line"/>
      <point x="194" y="14" type="line"/>
      <point x="176" y="233" type="line"/>
      <point x="288" y="452" type="line"/>
      <point x="198" y="452" type="line"/>
      <point x="33" y="233" type="line"/>
    </contour>
    <contour>
      <point x="289" y="14" type="line"/>
      <point x="380" y="14" type="line"/>
      <point x="361" y="233" type="line"/>
      <point x="473" y="452" type="line"/>
      <point x="382" y="452" type="line"/>
      <point x="219" y="233" type="line"/>
    </contour>
  </outline>
</glyph>
<glyph name="logicalnot" format="2">
  <advance width="607"/>
  <unicode hex="00AC"/>
  <outline>
    <contour>
      <point x="360" y="0" type="line"/>
      <point x="553" y="0" type="line"/>
      <point x="585" y="300" type="line"/>
      <point x="85" y="300" type="line"/>
      <point x="66" y="123" type="line"/>
      <point x="373" y="123" type="line"/>
    </contour>
  </outline>
</glyph>
<glyph name="registered" format="2">
  <advance width="763"/>
  <unicode hex="00AE"/>
  <outline>
    <contour>
      <point x="256" y="153" type="line"/>
      <point x="374" y="153" type="line"/>
      <point x="374" y="281" type="line"/>
      <point x="399" y="281" type="line"/>
      <point x="452" y="153" type="line"/>
      <point x="590" y="153" type="line"/>
      <point x="512" y="304" type="line"/>
      <point x="549" y="328"/>
      <point x="566" y="358"/>
      <point x="566" y="402" type="curve" smooth="yes"/>
      <point x="566" y="445"/>
      <point x="548" y="478"/>
      <point x="514" y="497" type="curve" smooth="yes"/>
      <point x="490" y="511"/>
      <point x="474" y="514"/>
      <point x="415" y="514" type="curve" smooth="yes"/>
      <point x="256" y="514" type="line"/>
    </contour>
    <contour>
      <point x="374" y="367" type="line"/>
      <point x="374" y="422" type="line"/>
      <point x="383" y="422" type="line" smooth="yes"/>
      <point x="434" y="422"/>
      <point x="443" y="418"/>
      <point x="443" y="395" type="curve" smooth="yes"/>
      <point x="443" y="376"/>
      <point x="430" y="367"/>
      <point x="404" y="367" type="curve" smooth="yes"/>
      <point x="391" y="367" type="line"/>
    </contour>
    <contour>
      <point x="412" y="684" type="curve" smooth="yes"/>
      <point x="214" y="684"/>
      <point x="58" y="529"/>
      <point x="58" y="333" type="curve" smooth="yes"/>
      <point x="58" y="141"/>
      <point x="215" y="-17"/>
      <point x="407" y="-17" type="curve" smooth="yes"/>
      <point x="598" y="-17"/>
      <point x="754" y="140"/>
      <point x="754" y="333" type="curve" smooth="yes"/>
      <point x="754" y="525"/>
      <point x="598" y="684"/>
    </contour>
    <contour>
      <point x="411" y="621" type="curve" smooth="yes"/>
      <point x="560" y="621"/>
      <point x="684" y="490"/>
      <point x="684" y="333" type="curve" smooth="yes"/>
      <point x="684" y="175"/>
      <point x="559" y="46"/>
      <point x="407" y="46" type="curve" smooth="yes"/>
      <point x="254" y="46"/>
      <point x="128" y="176"/>
      <point x="128" y="333" type="curve" smooth="yes"/>
      <point x="128" y="494"/>
      <point x="252" y="621"/>
    </contour>
  </outline>
</glyph>
<glyph name="macron" format="2">
  <advance width="500"/>
  <unicode hex="00AF"/>
  <unicode hex="02C9"/>
  <outline>
    <contour>
      <point x="175" y="655" type="line"/>
      <point x="159" y="578" type="line"/>
      <point x="489" y="578" type="line"/>
      <point x="505" y="655" type="line"/>
    </contour>
  </outline>
</glyph>
<glyph name="degree" format="2">
  <advance width="364"/>
  <unicode hex="00B0"/>
  <outline>
    <contour>
      <point x="244" y="660" type="curve" smooth="yes"/>
      <point x="159" y="660"/>
      <point x="89" y="592"/>
      <point x="89" y="510" type="curve" smooth="yes"/>
      <point x="89" y="424"/>
      <point x="157" y="356"/>
      <point x="244" y="356" type="curve" smooth="yes"/>
      <point x="328" y="356"/>
      <point x="398" y="425"/>
      <point x="398" y="508" type="curve" smooth="yes"/>
      <point x="398" y="592"/>
      <point x="329" y="660"/>
    </contour>
    <contour>
      <point x="244" y="583" type="curve" smooth="yes"/>
      <point x="285" y="583"/>
      <point x="320" y="549"/>
      <point x="320" y="508" type="curve" smooth="yes"/>
      <point x="320" y="467"/>
      <point x="285" y="433"/>
      <point x="244" y="433" type="curve" smooth="yes"/>
      <point x="201" y="433"/>
      <point x="167" y="467"/>
      <point x="167" y="509" type="curve" smooth="yes"/>
      <point x="167" y="549"/>
      <point x="202" y="583"/>
    </contour>
  </outline>
</glyph>
<glyph name="plusminus" format="2">
  <advance width="633"/>
  <unicode hex="00B1"/>
  <outline>
    <contour>
      <point x="47" y="432" type="line"/>
      <point x="47" y="349" type="line"/>
      <point x="272" y="349" type="line"/>
      <point x="272" y="125" type="line"/>
      <point x="360" y="125" type="line"/>
      <point x="360" y="349" type="line"/>
      <point x="585" y="349" type="line"/>
      <point x="585" y="432" type="line"/>
      <point x="360" y="432" type="line"/>
      <point x="360" y="657" type="line"/>
      <point x="272" y="657" type="line"/>
      <point x="272" y="432" type="line"/>
    </contour>
    <contour>
      <point x="47" y="85" type="line"/>
      <point x="47" y="0" type="line"/>
      <point x="585" y="0" type="line"/>
      <point x="585" y="85" type="line"/>
    </contour>
  </outline>
</glyph>
<glyph name="twosuperior" format="2">
  <advance width="394"/>
  <unicode hex="00B2"/>
  <outline>
    <contour>
      <point x="30" y="266" type="line"/>
      <point x="373" y="266" type="line"/>
      <point x="395" y="370" type="line"/>
      <point x="228" y="370" type="line"/>
      <point x="273" y="398" type="line" smooth="yes"/>
      <point x="320.615" y="427.627"/>
      <point x="373" y="471"/>
      <point x="398" y="505" type="curve"/>
      <point x="415" y="526"/>
      <point x="426" y="558"/>
      <point x="426" y="583" type="curve" smooth="yes"/>
      <point x="426" y="642"/>
      <point x="370" y="677"/>
      <point x="278" y="677" type="curve" smooth="yes"/>
      <point x="238" y="677"/>
      <point x="199" y="668"/>
      <point x="169" y="653" type="curve" smooth="yes"/>
      <point x="135" y="635"/>
      <point x="118" y="612"/>
      <point x="103" y="562" type="curve"/>
      <point x="207" y="527" type="line"/>
      <point x="219" y="569"/>
      <point x="235" y="585"/>
      <point x="267" y="585" type="curve" smooth="yes"/>
      <point x="289" y="585"/>
      <point x="301" y="576"/>
      <point x="301" y="558" type="curve" smooth="yes"/>
      <point x="301" y="550"/>
      <point x="297" y="538"/>
      <point x="292" y="531" type="curve" smooth="yes"/>
      <point x="278" y="511"/>
      <point x="224" y="470"/>
      <point x="155" y="426" type="curve" smooth="yes"/>
      <point x="50" y="361" type="line"/>
    </contour>
  </outline>
</glyph>
<glyph name="threesuperior" format="2">
  <advance width="394"/>
  <unicode hex="00B3"/>
  <outline>
    <contour>
      <point x="46" y="353" type="line"/>
      <point x="54" y="289"/>
      <point x="100" y="259"/>
      <point x="190" y="259" type="curve" smooth="yes"/>
      <point x="252" y="259"/>
      <point x="300" y="271"/>
      <point x="332" y="296" type="curve"/>
      <point x="369" y="323"/>
      <point x="392" y="367"/>
      <point x="392" y="409" type="curve" smooth="yes"/>
      <point x="392" y="439"/>
      <point x="377" y="461"/>
      <point x="348" y="474" type="curve"/>
      <point x="397" y="503"/>
      <point x="419" y="536" name="hr01"/>
      <point x="419" y="583" type="curve" smooth="yes"/>
      <point x="419" y="641"/>
      <point x="366" y="677"/>
      <point x="278" y="677" type="curve" smooth="yes"/>
      <point x="217" y="677"/>
      <point x="170" y="663"/>
      <point x="139" y="637" type="curve" smooth="yes"/>
      <point x="118" y="620"/>
      <point x="107" y="600"/>
      <point x="96" y="561" type="curve"/>
      <point x="202" y="526" type="line"/>
      <point x="213" y="569"/>
      <point x="230" y="586"/>
      <point x="261" y="586" type="curve" smooth="yes"/>
      <point x="282" y="586"/>
      <point x="294" y="576"/>
      <point x="294" y="559" type="curve" smooth="yes"/>
      <point x="294" y="527"/>
      <point x="263" y="507"/>
      <point x="213" y="507" type="curve" smooth="yes"/>
      <point x="197" y="507" type="line"/>
      <point x="182" y="436" type="line"/>
      <point x="188" y="435"/>
      <point x="191" y="435"/>
      <point x="193" y="435" type="curve"/>
      <point x="236" y="435"/>
      <point x="240" y="434"/>
      <point x="250" y="430" type="curve" smooth="yes"/>
      <point x="262" y="425"/>
      <point x="268" y="416" name="hr02"/>
      <point x="268" y="404" type="curve" smooth="yes"/>
      <point x="268" y="380"/>
      <point x="241" y="357"/>
      <point x="212" y="357" type="curve" smooth="yes"/>
      <point x="187" y="357"/>
      <point x="175" y="368"/>
      <point x="174" y="391" type="curve"/>
    </contour>
  </outline>
</glyph>
<glyph name="acute" format="2">
  <advance width="500"/>
  <unicode hex="00B4"/>
  <outline>
    <contour>
      <point x="211" y="537" type="line"/>
      <point x="269" y="521" type="line"/>
      <point x="536" y="649" type="line"/>
      <point x="417" y="714" type="line"/>
    </contour>
  </outline>
</glyph>
<glyph name="micro" format="2">
  <advance width="516"/>
  <unicode hex="00B5"/>
  <outline>
    <contour>
      <point x="126" y="464" type="line"/>
      <point x="74" y="95" type="line" smooth="yes"/>
      <point x="63" y="16"/>
      <point x="58" y="-11"/>
      <point x="24" y="-194" type="curve"/>
      <point x="154" y="-194" type="line"/>
      <point x="175" y="11" type="line"/>
      <point x="200" y="-1"/>
      <point x="214" y="-5"/>
      <point x="237" y="-5" type="curve" smooth="yes"/>
      <point x="273" y="-5"/>
      <point x="298" y="5"/>
      <point x="334" y="35" type="curve"/>
      <point x="329" y="0" type="line" name="hr01"/>
      <point x="468" y="0" type="line"/>
      <point x="533" y="464" type="line"/>
      <point x="390" y="464" type="line"/>
      <point x="361" y="254" type="line" smooth="yes"/>
      <point x="351" y="187"/>
      <point x="347" y="172"/>
      <point x="336" y="156" type="curve" smooth="yes"/>
      <point x="324" y="139"/>
      <point x="297" y="126" name="hr02"/>
      <point x="274" y="126" type="curve" smooth="yes"/>
      <point x="231" y="126"/>
      <point x="220" y="160"/>
      <point x="234" y="258" type="curve" smooth="yes"/>
      <point x="263" y="464" type="line"/>
    </contour>
  </outline>
</glyph>
<glyph name="paragraph" format="2">
  <advance width="546"/>
  <unicode hex="00B6"/>
  <outline>
    <contour>
      <point x="449" y="611" type="line"/>
      <point x="301" y="-86" type="line"/>
      <point x="362" y="-86" type="line"/>
      <point x="511" y="619" type="line"/>
      <point x="606" y="631" type="line"/>
      <point x="613" y="667" type="line"/>
      <point x="316" y="667" type="line" smooth="yes"/>
      <point x="227" y="667"/>
      <point x="183" y="650"/>
      <point x="137" y="600" type="curve" smooth="yes"/>
      <point x="101" y="561"/>
      <point x="81" y="510"/>
      <point x="81" y="459" type="curve" smooth="yes"/>
      <point x="81" y="406"/>
      <point x="101" y="365"/>
      <point x="141" y="337" type="curve" smooth="yes"/>
      <point x="171" y="315"/>
      <point x="197" y="306"/>
      <point x="257" y="297" type="curve"/>
      <point x="176" y="-86" type="line"/>
      <point x="237" y="-86" type="line"/>
      <point x="383" y="601" type="line"/>
    </contour>
  </outline>
</glyph>
<glyph name="periodcentered" format="2">
  <advance width="293"/>
  <unicode hex="00B7"/>
  <unicode hex="2219"/>
  <outline>
    <contour>
      <point x="157" y="341" type="curve" smooth="yes"/>
      <point x="96" y="341"/>
      <point x="52" y="299"/>
      <point x="52" y="242" type="curve" smooth="yes"/>
      <point x="52" y="185"/>
      <point x="91" y="147"/>
      <point x="149" y="147" type="curve" smooth="yes"/>
      <point x="209" y="147"/>
      <point x="252" y="190"/>
      <point x="252" y="250" type="curve" smooth="yes"/>
      <point x="252" y="304"/>
      <point x="213" y="341"/>
    </contour>
  </outline>
</glyph>
<glyph name="cedilla" format="2">
  <advance width="500"/>
  <unicode hex="00B8"/>
  <outline>
    <contour>
      <point x="21" y="-212" type="line"/>
      <point x="140" y="-204"/>
      <point x="218" y="-149"/>
      <point x="218" y="-74" type="curve" smooth="yes"/>
      <point x="218" y="-55"/>
      <point x="213" y="-39"/>
      <point x="200" y="-13" type="curve"/>
      <point x="92" y="-71" type="line"/>
      <point x="105" y="-87"/>
      <point x="110" y="-99"/>
      <point x="110" y="-113" type="curve" smooth="yes"/>
      <point x="110" y="-154"/>
      <point x="71" y="-182"/>
      <point x="8" y="-186" type="curve"/>
    </contour>
  </outline>
</glyph>
<glyph name="onesuperior" format="2">
  <advance width="394"/>
  <unicode hex="00B9"/>
  <outline>
    <contour>
      <point x="175" y="267" type="line"/>
      <point x="302" y="267" type="line"/>
      <point x="387" y="666" type="line"/>
      <point x="279" y="666" type="line"/>
      <point x="250" y="619"/>
      <point x="208" y="600"/>
      <point x="124" y="597" type="curve"/>
      <point x="108" y="521" type="line"/>
      <point x="229" y="521" type="line"/>
    </contour>
  </outline>
</glyph>
<glyph name="ordmasculine" format="2">
  <advance width="394"/>
  <unicode hex="00BA"/>
  <outline>
    <contour>
      <point x="282" y="675" type="curve" smooth="yes"/>
      <point x="222" y="675"/>
      <point x="179" y="662"/>
      <point x="147" y="633" type="curve" smooth="yes"/>
      <point x="113" y="604"/>
      <point x="91" y="552"/>
      <point x="91" y="504" type="curve" smooth="yes"/>
      <point x="91" y="428"/>
      <point x="138" y="393"/>
      <point x="239" y="393" type="curve" smooth="yes"/>
      <point x="297" y="393"/>
      <point x="339" y="406"/>
      <point x="371" y="436" type="curve" smooth="yes"/>
      <point x="406" y="467"/>
      <point x="427" y="518"/>
      <point x="427" y="570" type="curve" smooth="yes"/>
      <point x="427" y="640"/>
      <point x="379" y="675"/>
    </contour>
    <contour>
      <point x="274" y="595" type="curve" smooth="yes"/>
      <point x="295" y="595"/>
      <point x="305" y="584"/>
      <point x="305" y="562" type="curve" smooth="yes"/>
      <point x="305" y="513"/>
      <point x="277" y="472"/>
      <point x="244" y="472" type="curve" smooth="yes"/>
      <point x="223" y="472"/>
      <point x="213" y="483"/>
      <point x="213" y="507" type="curve" smooth="yes"/>
      <point x="213" y="520"/>
      <point x="218" y="541"/>
      <point x="225" y="556" type="curve" smooth="yes"/>
      <point x="236" y="582"/>
      <point x="252" y="595"/>
    </contour>
    <contour>
      <point x="406" y="345" type="line"/>
      <point x="41" y="345" type="line"/>
      <point x="28" y="282" type="line"/>
      <point x="393" y="282" type="line"/>
    </contour>
  </outline>
</glyph>
<glyph name="guillemotright" format="2">
  <advance width="460"/>
  <unicode hex="00BB"/>
  <outline>
    <contour>
      <point x="361" y="453" type="line"/>
      <point x="271" y="453" type="line"/>
      <point x="290" y="234" type="line"/>
      <point x="178" y="14" type="line"/>
      <point x="268" y="14" type="line"/>
      <point x="433" y="234" type="line"/>
    </contour>
    <contour>
      <point x="177" y="453" type="line"/>
      <point x="86" y="453" type="line"/>
      <point x="105" y="234" type="line"/>
      <point x="-7" y="14" type="line"/>
      <point x="84" y="14" type="line"/>
      <point x="247" y="234" type="line"/>
    </contour>
  </outline>
</glyph>
<glyph name="onequarter" format="2">
  <advance width="1028"/>
  <unicode hex="00BC"/>
  <outline>
    <contour>
      <point x="175" y="267" type="line"/>
      <point x="302" y="267" type="line"/>
      <point x="387" y="666" type="line"/>
      <point x="279" y="666" type="line"/>
      <point x="250" y="619"/>
      <point x="208" y="600"/>
      <point x="124" y="597" type="curve"/>
      <point x="108" y="521" type="line"/>
      <point x="229" y="521" type="line"/>
    </contour>
    <contour>
      <point x="823" y="690" type="line"/>
      <point x="762" y="700" type="line"/>
      <point x="253" y="-23" type="line"/>
      <point x="316" y="-33" type="line"/>
    </contour>
    <contour>
      <point x="793" y="0" type="line"/>
      <point x="908" y="0" type="line"/>
      <point x="925" y="79" type="line"/>
      <point x="978" y="79" type="line"/>
      <point x="998" y="171" type="line"/>
      <point x="944" y="171" type="line"/>
      <point x="993" y="400" type="line"/>
      <point x="849" y="400" type="line"/>
      <point x="643" y="171" type="line"/>
      <point x="623" y="79" type="line"/>
      <point x="810" y="79" type="line"/>
    </contour>
    <contour>
      <point x="751" y="171" type="line"/>
      <point x="857" y="303" type="line"/>
      <point x="829" y="171" type="line"/>
    </contour>
  </outline>
</glyph>
<glyph name="onehalf" format="2">
  <advance width="1028"/>
  <unicode hex="00BD"/>
  <outline>
    <contour>
      <point x="175" y="267" type="line"/>
      <point x="302" y="267" type="line"/>
      <point x="387" y="666" type="line"/>
      <point x="279" y="666" type="line"/>
      <point x="250" y="619"/>
      <point x="208" y="600"/>
      <point x="124" y="597" type="curve"/>
      <point x="108" y="521" type="line"/>
      <point x="229" y="521" type="line"/>
    </contour>
    <contour>
      <point x="823" y="690" type="line"/>
      <point x="762" y="700" type="line"/>
      <point x="253" y="-23" type="line"/>
      <point x="316" y="-33" type="line"/>
    </contour>
    <contour>
      <point x="607" y="0" type="line"/>
      <point x="949" y="0" type="line"/>
      <point x="972" y="104" type="line"/>
      <point x="805" y="104" type="line"/>
      <point x="850" y="132" type="line" smooth="yes"/>
      <point x="898" y="161"/>
      <point x="949" y="205"/>
      <point x="975" y="238" type="curve"/>
      <point x="991" y="260"/>
      <point x="1002" y="291"/>
      <point x="1002" y="317" type="curve" smooth="yes"/>
      <point x="1002" y="375"/>
      <point x="946" y="410"/>
      <point x="854" y="410" type="curve" smooth="yes"/>
      <point x="814" y="410"/>
      <point x="776" y="401"/>
      <point x="746" y="386" type="curve" smooth="yes"/>
      <point x="712" y="368"/>
      <point x="695" y="345"/>
      <point x="680" y="296" type="curve"/>
      <point x="784" y="261" type="line"/>
      <point x="796" y="303"/>
      <point x="812" y="319"/>
      <point x="843" y="319" type="curve" smooth="yes"/>
      <point x="865" y="319"/>
      <point x="877" y="310"/>
      <point x="877" y="292" type="curve" smooth="yes"/>
      <point x="877" y="284"/>
      <point x="873" y="272"/>
      <point x="868" y="265" type="curve" smooth="yes"/>
      <point x="854" y="245"/>
      <point x="797" y="201"/>
      <point x="732" y="160" type="curve" smooth="yes"/>
      <point x="627" y="95" type="line"/>
    </contour>
  </outline>
</glyph>
<glyph name="threequarters" format="2">
  <advance width="1028"/>
  <unicode hex="00BE"/>
  <outline>
    <contour>
      <point x="46" y="353" type="line"/>
      <point x="54" y="289"/>
      <point x="100" y="259"/>
      <point x="190" y="259" type="curve" smooth="yes"/>
      <point x="252" y="259"/>
      <point x="300" y="271"/>
      <point x="332" y="296" type="curve"/>
      <point x="369" y="323"/>
      <point x="392" y="367"/>
      <point x="392" y="409" type="curve" smooth="yes"/>
      <point x="392" y="439"/>
      <point x="377" y="461"/>
      <point x="348" y="474" type="curve"/>
      <point x="397" y="503"/>
      <point x="419" y="536" name="hr01"/>
      <point x="419" y="583" type="curve" smooth="yes"/>
      <point x="419" y="641"/>
      <point x="366" y="677"/>
      <point x="278" y="677" type="curve" smooth="yes"/>
      <point x="217" y="677"/>
      <point x="170" y="663"/>
      <point x="139" y="637" type="curve" smooth="yes"/>
      <point x="118" y="620"/>
      <point x="107" y="600"/>
      <point x="96" y="561" type="curve"/>
      <point x="202" y="526" type="line"/>
      <point x="213" y="569"/>
      <point x="230" y="586"/>
      <point x="261" y="586" type="curve" smooth="yes"/>
      <point x="282" y="586"/>
      <point x="294" y="576"/>
      <point x="294" y="559" type="curve" smooth="yes"/>
      <point x="294" y="527"/>
      <point x="263" y="507"/>
      <point x="213" y="507" type="curve" smooth="yes"/>
      <point x="197" y="507" type="line"/>
      <point x="182" y="436" type="line"/>
      <point x="188" y="435"/>
      <point x="191" y="435"/>
      <point x="193" y="435" type="curve"/>
      <point x="236" y="435"/>
      <point x="240" y="434"/>
      <point x="250" y="430" type="curve" smooth="yes"/>
      <point x="262" y="425"/>
      <point x="268" y="416" name="hr02"/>
      <point x="268" y="404" type="curve" smooth="yes"/>
      <point x="268" y="380"/>
      <point x="241" y="357"/>
      <point x="212" y="357" type="curve" smooth="yes"/>
      <point x="187" y="357"/>
      <point x="175" y="368"/>
      <point x="174" y="391" type="curve"/>
    </contour>
    <contour>
      <point x="824" y="690" type="line"/>
      <point x="762" y="700" type="line"/>
      <point x="253" y="-23" type="line"/>
      <point x="316" y="-33" type="line"/>
    </contour>
    <contour>
      <point x="793" y="0" type="line"/>
      <point x="909" y="0" type="line"/>
      <point x="925" y="79" type="line"/>
      <point x="979" y="79" type="line"/>
      <point x="998" y="171" type="line"/>
      <point x="945" y="171" type="line"/>
      <point x="994" y="400" type="line"/>
      <point x="849" y="400" type="line"/>
      <point x="643" y="171" type="line"/>
      <point x="623" y="79" type="line"/>
      <point x="810" y="79" type="line"/>
    </contour>
    <contour>
      <point x="751" y="171" type="line"/>
      <point x="858" y="303" type="line"/>
      <point x="830" y="171" type="line"/>
    </contour>
  </outline>
</glyph>
<glyph name="questiondown" format="2">
  <advance width="496"/>
  <unicode hex="00BF"/>
  <outline>
    <contour>
      <point x="237" y="300" type="line"/>
      <point x="238" y="262"/>
      <point x="229" y="251"/>
      <point x="162" y="212" type="curve" smooth="yes"/>
      <point x="98" y="174"/>
      <point x="93" y="172"/>
      <point x="77" y="159" type="curve"/>
      <point x="20" y="117"/>
      <point x="-9" y="66"/>
      <point x="-9" y="8" type="curve" smooth="yes"/>
      <point x="-9" y="-89"/>
      <point x="70" y="-154"/>
      <point x="188" y="-154" type="curve" smooth="yes"/>
      <point x="255" y="-154"/>
      <point x="317" y="-132"/>
      <point x="362" y="-94" type="curve" smooth="yes"/>
      <point x="392" y="-68"/>
      <point x="411" y="-41"/>
      <point x="432" y="9" type="curve"/>
      <point x="294" y="75" type="line"/>
      <point x="277" y="19"/>
      <point x="254" y="-6"/>
      <point x="219" y="-6" type="curve" smooth="yes"/>
      <point x="193" y="-6"/>
      <point x="176" y="12"/>
      <point x="176" y="38" type="curve" smooth="yes"/>
      <point x="176" y="64"/>
      <point x="192" y="93"/>
      <point x="217" y="112" type="curve" smooth="yes"/>
      <point x="235" y="126"/>
      <point x="239" y="128"/>
      <point x="291" y="152" type="curve" smooth="yes"/>
      <point x="357" y="181"/>
      <point x="381" y="216"/>
      <point x="381" y="281" type="curve" smooth="yes"/>
      <point x="381" y="285"/>
      <point x="381" y="291"/>
      <point x="380" y="300" type="curve"/>
    </contour>
    <contour>
      <point x="340" y="540" type="curve" smooth="yes"/>
      <point x="280" y="540"/>
      <point x="237" y="497"/>
      <point x="237" y="437" type="curve" smooth="yes"/>
      <point x="237" y="383"/>
      <point x="275" y="347"/>
      <point x="332" y="347" type="curve" smooth="yes"/>
      <point x="392" y="347"/>
      <point x="436" y="389" name="hr01"/>
      <point x="436" y="447" type="curve" smooth="yes"/>
      <point x="436" y="503"/>
      <point x="398" y="540"/>
    </contour>
  </outline>
</glyph>
<glyph name="Aacute" format="2">
  <advance width="666"/>
  <unicode hex="00C1"/>
  <outline>
    <contour>
      <point x="-67" y="0" type="line"/>
      <point x="127" y="0" type="line"/>
      <point x="178" y="95" type="line"/>
      <point x="400" y="95" type="line"/>
      <point x="405" y="0" type="line"/>
      <point x="617" y="0" type="line"/>
      <point x="554" y="667" type="line"/>
      <point x="313" y="667" type="line"/>
    </contour>
    <contour>
      <point x="254" y="232" type="line"/>
      <point x="378" y="453" type="line"/>
      <point x="392" y="232" type="line"/>
    </contour>
    <contour>
      <point x="361" y="752" type="line"/>
      <point x="417" y="730" type="line"/>
      <point x="694" y="836" type="line"/>
      <point x="581" y="910" type="line"/>
    </contour>
  </outline>
</glyph>
<glyph name="Acircumflex" format="2">
  <advance width="666"/>
  <unicode hex="00C2"/>
  <outline>
    <contour>
      <point x="-67" y="0" type="line"/>
      <point x="127" y="0" type="line"/>
      <point x="178" y="95" type="line"/>
      <point x="400" y="95" type="line"/>
      <point x="405" y="0" type="line"/>
      <point x="617" y="0" type="line"/>
      <point x="554" y="667" type="line"/>
      <point x="313" y="667" type="line"/>
    </contour>
    <contour>
      <point x="254" y="232" type="line"/>
      <point x="378" y="453" type="line"/>
      <point x="392" y="232" type="line"/>
    </contour>
    <contour>
      <point x="235" y="749" type="line"/>
      <point x="289" y="740" type="line"/>
      <point x="455" y="815" type="line"/>
      <point x="592" y="740" type="line"/>
      <point x="645" y="757" type="line"/>
      <point x="516" y="900" type="line"/>
      <point x="426" y="900" type="line"/>
    </contour>
  </outline>
</glyph>
<glyph name="Atilde" format="2">
  <advance width="666"/>
  <unicode hex="00C3"/>
  <outline>
    <contour>
      <point x="-67" y="0" type="line"/>
      <point x="127" y="0" type="line"/>
      <point x="178" y="95" type="line"/>
      <point x="400" y="95" type="line"/>
      <point x="405" y="0" type="line"/>
      <point x="617" y="0" type="line"/>
      <point x="554" y="667" type="line"/>
      <point x="313" y="667" type="line"/>
    </contour>
    <contour>
      <point x="254" y="232" type="line"/>
      <point x="378" y="453" type="line"/>
      <point x="392" y="232" type="line"/>
    </contour>
    <contour>
      <point x="277" y="758" type="line"/>
      <point x="315" y="798"/>
      <point x="329" y="807"/>
      <point x="354" y="807" type="curve" smooth="yes"/>
      <point x="371" y="807"/>
      <point x="387" y="802"/>
      <point x="423" y="783" type="curve" smooth="yes"/>
      <point x="467" y="761"/>
      <point x="489" y="754" name="hr01"/>
      <point x="515" y="754" type="curve" smooth="yes"/>
      <point x="563" y="754"/>
      <point x="598" y="775"/>
      <point x="670" y="848" type="curve"/>
      <point x="635" y="882" type="line"/>
      <point x="607" y="852"/>
      <point x="574" y="836"/>
      <point x="541" y="836" type="curve" smooth="yes"/>
      <point x="524" y="836"/>
      <point x="505" y="842"/>
      <point x="475" y="857" type="curve" smooth="yes"/>
      <point x="431" y="879"/>
      <point x="414" y="884" name="hr02"/>
      <point x="389" y="884" type="curve" smooth="yes"/>
      <point x="340" y="884"/>
      <point x="307" y="863"/>
      <point x="242" y="792" type="curve"/>
    </contour>
  </outline>
</glyph>
<glyph name="Adieresis" format="2">
  <advance width="666"/>
  <unicode hex="00C4"/>
  <outline>
    <contour>
      <point x="-67" y="0" type="line"/>
      <point x="127" y="0" type="line"/>
      <point x="178" y="95" type="line"/>
      <point x="400" y="95" type="line"/>
      <point x="405" y="0" type="line"/>
      <point x="617" y="0" type="line"/>
      <point x="554" y="667" type="line"/>
      <point x="313" y="667" type="line"/>
    </contour>
    <contour>
      <point x="254" y="232" type="line"/>
      <point x="378" y="453" type="line"/>
      <point x="392" y="232" type="line"/>
    </contour>
    <contour>
      <point x="336" y="914" type="curve" smooth="yes"/>
      <point x="278" y="914"/>
      <point x="235" y="873"/>
      <point x="235" y="818" type="curve" smooth="yes"/>
      <point x="235" y="763"/>
      <point x="272" y="727"/>
      <point x="328" y="727" type="curve" smooth="yes"/>
      <point x="385" y="727"/>
      <point x="428" y="770"/>
      <point x="428" y="827" type="curve" smooth="yes"/>
      <point x="428" y="877"/>
      <point x="389" y="914"/>
    </contour>
    <contour>
      <point x="583" y="914" type="curve" smooth="yes"/>
      <point x="528" y="914"/>
      <point x="485" y="872"/>
      <point x="485" y="818" type="curve" smooth="yes"/>
      <point x="485" y="763"/>
      <point x="522" y="727"/>
      <point x="579" y="727" type="curve" smooth="yes"/>
      <point x="637" y="727"/>
      <point x="678" y="768"/>
      <point x="678" y="826" type="curve" smooth="yes"/>
      <point x="678" y="879"/>
      <point x="640" y="914"/>
    </contour>
  </outline>
</glyph>
<glyph name="Aring" format="2">
  <advance width="666"/>
  <unicode hex="00C5"/>
  <outline>
    <contour>
      <point x="-67" y="0" type="line"/>
      <point x="127" y="0" type="line"/>
      <point x="178" y="95" type="line"/>
      <point x="400" y="95" type="line"/>
      <point x="405" y="0" type="line"/>
      <point x="617" y="0" type="line"/>
      <point x="554" y="667" type="line"/>
      <point x="313" y="667" type="line"/>
    </contour>
    <contour>
      <point x="254" y="232" type="line"/>
      <point x="378" y="453" type="line"/>
      <point x="392" y="232" type="line"/>
    </contour>
    <contour>
      <point x="467" y="913" type="curve" smooth="yes"/>
      <point x="377" y="913"/>
      <point x="319" y="871"/>
      <point x="319" y="807" type="curve" smooth="yes"/>
      <point x="319" y="750"/>
      <point x="365" y="719"/>
      <point x="447" y="719" type="curve" smooth="yes"/>
      <point x="536" y="719"/>
      <point x="594" y="761"/>
      <point x="594" y="826" type="curve" smooth="yes"/>
      <point x="594" y="881"/>
      <point x="548" y="913"/>
    </contour>
    <contour>
      <point x="462" y="870" type="curve" smooth="yes"/>
      <point x="493" y="870"/>
      <point x="513" y="851"/>
      <point x="513" y="822" type="curve" smooth="yes"/>
      <point x="513" y="788"/>
      <point x="487" y="762"/>
      <point x="451" y="762" type="curve" smooth="yes"/>
      <point x="419" y="762"/>
      <point x="400" y="780"/>
      <point x="400" y="810" type="curve" smooth="yes"/>
      <point x="400" y="845"/>
      <point x="426" y="870"/>
    </contour>
  </outline>
</glyph>
<glyph name="AE" format="2">
  <advance width="891"/>
  <unicode hex="00C6"/>
  <outline>
    <contour>
      <point x="-93" y="0" type="line"/>
      <point x="141" y="0" type="line"/>
      <point x="208" y="106" type="line"/>
      <point x="378" y="106" type="line"/>
      <point x="356" y="0" type="line"/>
      <point x="806" y="0" type="line"/>
      <point x="840" y="160" type="line"/>
      <point x="576" y="160" type="line"/>
      <point x="597" y="261" type="line"/>
      <point x="822" y="261" type="line"/>
      <point x="854" y="409" type="line"/>
      <point x="629" y="409" type="line"/>
      <point x="649" y="507" type="line"/>
      <point x="875" y="507" type="line"/>
      <point x="909" y="667" type="line"/>
      <point x="391" y="667" type="line"/>
    </contour>
    <contour>
      <point x="292" y="243" type="line"/>
      <point x="465" y="513" type="line"/>
      <point x="407" y="243" type="line"/>
    </contour>
  </outline>
</glyph>
<glyph name="Ccedilla" format="2">
  <advance width="695"/>
  <unicode hex="00C7"/>
  <outline>
    <contour>
      <point x="492" y="253" type="line"/>
      <point x="465" y="180"/>
      <point x="422" y="143"/>
      <point x="363" y="143" type="curve" smooth="yes"/>
      <point x="306" y="143"/>
      <point x="276" y="183" name="hr01"/>
      <point x="276" y="258" type="curve" smooth="yes"/>
      <point x="276" y="312"/>
      <point x="289" y="375"/>
      <point x="310" y="423" type="curve" smooth="yes"/>
      <point x="340" y="489"/>
      <point x="385" y="524"/>
      <point x="442" y="524" type="curve" smooth="yes"/>
      <point x="501" y="524"/>
      <point x="525" y="498"/>
      <point x="529" y="428" type="curve"/>
      <point x="733" y="494" type="line"/>
      <point x="723" y="545"/>
      <point x="707" y="579"/>
      <point x="678" y="610" type="curve" smooth="yes"/>
      <point x="635" y="657"/>
      <point x="549" y="685"/>
      <point x="447" y="685" type="curve" smooth="yes"/>
      <point x="327" y="685"/>
      <point x="234" y="648"/>
      <point x="168" y="575" type="curve" smooth="yes"/>
      <point x="98" y="497"/>
      <point x="51" y="365"/>
      <point x="51" y="244" type="curve" smooth="yes"/>
      <point x="51" y="166"/>
      <point x="71" y="105"/>
      <point x="112" y="60" type="curve" smooth="yes"/>
      <point x="160" y="7"/>
      <point x="233" y="-17"/>
      <point x="346" y="-17" type="curve" smooth="yes"/>
      <point x="519" y="-17"/>
      <point x="628" y="46"/>
      <point x="684" y="178" type="curve"/>
    </contour>
    <contour>
      <point x="139" y="-236" type="line"/>
      <point x="190" y="-233"/>
      <point x="221" y="-227"/>
      <point x="255" y="-215" type="curve" smooth="yes"/>
      <point x="329" y="-188"/>
      <point x="375" y="-138"/>
      <point x="375" y="-84" type="curve" smooth="yes"/>
      <point x="375" y="-63"/>
      <point x="370" y="-47"/>
      <point x="354" y="-18" type="curve"/>
      <point x="223" y="-81" type="line"/>
      <point x="239" y="-99"/>
      <point x="245" y="-112"/>
      <point x="245" y="-128" type="curve" smooth="yes"/>
      <point x="245" y="-173"/>
      <point x="200" y="-202"/>
      <point x="123" y="-208" type="curve"/>
    </contour>
  </outline>
</glyph>
<glyph name="Eacute" format="2">
  <advance width="610"/>
  <unicode hex="00C9"/>
  <outline>
    <contour>
      <point x="20" y="0" type="line"/>
      <point x="525" y="0" type="line"/>
      <point x="559" y="160" type="line"/>
      <point x="261" y="160" type="line"/>
      <point x="282" y="261" type="line"/>
      <point x="540" y="261" type="line"/>
      <point x="572" y="409" type="line"/>
      <point x="314" y="409" type="line"/>
      <point x="334" y="507" type="line"/>
      <point x="592" y="507" type="line"/>
      <point x="626" y="667" type="line"/>
      <point x="162" y="667" type="line"/>
    </contour>
    <contour>
      <point x="306" y="752" type="line"/>
      <point x="362" y="730" type="line"/>
      <point x="639" y="836" type="line"/>
      <point x="526" y="910" type="line"/>
    </contour>
  </outline>
</glyph>
<glyph name="Ecircumflex" format="2">
  <advance width="610"/>
  <unicode hex="00CA"/>
  <outline>
    <contour>
      <point x="20" y="0" type="line"/>
      <point x="525" y="0" type="line"/>
      <point x="559" y="160" type="line"/>
      <point x="261" y="160" type="line"/>
      <point x="282" y="261" type="line"/>
      <point x="540" y="261" type="line"/>
      <point x="572" y="409" type="line"/>
      <point x="314" y="409" type="line"/>
      <point x="334" y="507" type="line"/>
      <point x="592" y="507" type="line"/>
      <point x="626" y="667" type="line"/>
      <point x="162" y="667" type="line"/>
    </contour>
    <contour>
      <point x="204" y="749" type="line"/>
      <point x="258" y="740" type="line"/>
      <point x="424" y="815" type="line"/>
      <point x="561" y="740" type="line"/>
      <point x="614" y="757" type="line"/>
      <point x="485" y="900" type="line"/>
      <point x="395" y="900" type="line"/>
    </contour>
  </outline>
</glyph>
<glyph name="Edieresis" format="2">
  <advance width="610"/>
  <unicode hex="00CB"/>
  <outline>
    <contour>
      <point x="20" y="0" type="line"/>
      <point x="525" y="0" type="line"/>
      <point x="559" y="160" type="line"/>
      <point x="261" y="160" type="line"/>
      <point x="282" y="261" type="line"/>
      <point x="540" y="261" type="line"/>
      <point x="572" y="409" type="line"/>
      <point x="314" y="409" type="line"/>
      <point x="334" y="507" type="line"/>
      <point x="592" y="507" type="line"/>
      <point x="626" y="667" type="line"/>
      <point x="162" y="667" type="line"/>
    </contour>
    <contour>
      <point x="306" y="914" type="curve" smooth="yes"/>
      <point x="248" y="914"/>
      <point x="205" y="873"/>
      <point x="205" y="818" type="curve" smooth="yes"/>
      <point x="205" y="763"/>
      <point x="242" y="727"/>
      <point x="298" y="727" type="curve" smooth="yes"/>
      <point x="355" y="727"/>
      <point x="398" y="770"/>
      <point x="398" y="827" type="curve" smooth="yes"/>
      <point x="398" y="877"/>
      <point x="359" y="914"/>
    </contour>
    <contour>
      <point x="553" y="914" type="curve" smooth="yes"/>
      <point x="498" y="914"/>
      <point x="455" y="872"/>
      <point x="455" y="818" type="curve" smooth="yes"/>
      <point x="455" y="763"/>
      <point x="492" y="727"/>
      <point x="549" y="727" type="curve" smooth="yes"/>
      <point x="607" y="727"/>
      <point x="648" y="768"/>
      <point x="648" y="826" type="curve" smooth="yes"/>
      <point x="648" y="879"/>
      <point x="610" y="914"/>
    </contour>
  </outline>
</glyph>
<glyph name="Igrave" format="2">
  <advance width="340"/>
  <unicode hex="00CC"/>
  <outline>
    <contour>
      <point x="20" y="0" type="line"/>
      <point x="227" y="0" type="line"/>
      <point x="368" y="667" type="line"/>
      <point x="162" y="667" type="line"/>
    </contour>
    <contour>
      <point x="344" y="727" type="line"/>
      <point x="394" y="752" type="line"/>
      <point x="199" y="910" type="line"/>
      <point x="90" y="841" type="line"/>
    </contour>
  </outline>
</glyph>
<glyph name="Iacute" format="2">
  <advance width="340"/>
  <unicode hex="00CD"/>
  <outline>
    <contour>
      <point x="20" y="0" type="line"/>
      <point x="227" y="0" type="line"/>
      <point x="368" y="667" type="line"/>
      <point x="162" y="667" type="line"/>
    </contour>
    <contour>
      <point x="206" y="752" type="line"/>
      <point x="262" y="730" type="line"/>
      <point x="518" y="842" type="line"/>
      <point x="406" y="910" type="line"/>
    </contour>
  </outline>
</glyph>
<glyph name="Icircumflex" format="2">
  <advance width="340"/>
  <unicode hex="00CE"/>
  <outline>
    <contour>
      <point x="20" y="0" type="line"/>
      <point x="227" y="0" type="line"/>
      <point x="368" y="667" type="line"/>
      <point x="162" y="667" type="line"/>
    </contour>
    <contour>
      <point x="106" y="749" type="line"/>
      <point x="160" y="740" type="line"/>
      <point x="299" y="815" type="line"/>
      <point x="409" y="740" type="line"/>
      <point x="462" y="757" type="line"/>
      <point x="360" y="900" type="line"/>
      <point x="270" y="900" type="line"/>
    </contour>
  </outline>
</glyph>
<glyph name="Idieresis" format="2">
  <advance width="340"/>
  <unicode hex="00CF"/>
  <outline>
    <contour>
      <point x="20" y="0" type="line"/>
      <point x="227" y="0" type="line"/>
      <point x="368" y="667" type="line"/>
      <point x="162" y="667" type="line"/>
    </contour>
    <contour>
      <point x="198" y="906" type="curve" smooth="yes"/>
      <point x="144" y="906"/>
      <point x="107" y="870"/>
      <point x="107" y="818" type="curve" smooth="yes"/>
      <point x="107" y="768"/>
      <point x="140" y="734"/>
      <point x="190" y="734" type="curve" smooth="yes"/>
      <point x="241" y="734"/>
      <point x="279" y="774"/>
      <point x="279" y="826" type="curve" smooth="yes"/>
      <point x="279" y="872"/>
      <point x="245" y="906"/>
    </contour>
    <contour>
      <point x="404" y="906" type="curve" smooth="yes"/>
      <point x="353" y="906"/>
      <point x="316" y="869"/>
      <point x="316" y="818" type="curve" smooth="yes"/>
      <point x="316" y="767"/>
      <point x="349" y="734"/>
      <point x="399" y="734" type="curve" smooth="yes"/>
      <point x="450" y="734"/>
      <point x="487" y="772"/>
      <point x="487" y="826" type="curve" smooth="yes"/>
      <point x="487" y="875"/>
      <point x="455" y="906"/>
    </contour>
  </outline>
</glyph>
<glyph name="Ntilde" format="2">
  <advance width="799"/>
  <unicode hex="00D1"/>
  <outline>
    <contour>
      <point x="20" y="0" type="line"/>
      <point x="227" y="0" type="line"/>
      <point x="301" y="350" type="line"/>
      <point x="479" y="0" type="line"/>
      <point x="686" y="0" type="line"/>
      <point x="828" y="667" type="line"/>
      <point x="621" y="667" type="line"/>
      <point x="548" y="324" type="line"/>
      <point x="368" y="667" type="line"/>
      <point x="162" y="667" type="line"/>
    </contour>
    <contour>
      <point x="352" y="758" type="line"/>
      <point x="390" y="798"/>
      <point x="404" y="807"/>
      <point x="429" y="807" type="curve" smooth="yes"/>
      <point x="446" y="807"/>
      <point x="462" y="802"/>
      <point x="498" y="783" type="curve" smooth="yes"/>
      <point x="542" y="761"/>
      <point x="564" y="754" name="hr01"/>
      <point x="590" y="754" type="curve" smooth="yes"/>
      <point x="638" y="754"/>
      <point x="673" y="775"/>
      <point x="745" y="848" type="curve"/>
      <point x="710" y="882" type="line"/>
      <point x="682" y="852"/>
      <point x="649" y="836"/>
      <point x="616" y="836" type="curve" smooth="yes"/>
      <point x="599" y="836"/>
      <point x="580" y="842"/>
      <point x="550" y="857" type="curve" smooth="yes"/>
      <point x="506" y="879"/>
      <point x="489" y="884" name="hr02"/>
      <point x="464" y="884" type="curve" smooth="yes"/>
      <point x="415" y="884"/>
      <point x="382" y="863"/>
      <point x="317" y="792" type="curve"/>
    </contour>
  </outline>
</glyph>
<glyph name="Oacute" format="2">
  <advance width="769"/>
  <unicode hex="00D3"/>
  <outline>
    <contour>
      <point x="463" y="684" type="curve" smooth="yes"/>
      <point x="326" y="684"/>
      <point x="220" y="642"/>
      <point x="155" y="561" type="curve" smooth="yes"/>
      <point x="94" y="485"/>
      <point x="51" y="355"/>
      <point x="51" y="245" type="curve" smooth="yes"/>
      <point x="51" y="74"/>
      <point x="155" y="-17"/>
      <point x="351" y="-17" type="curve" smooth="yes"/>
      <point x="483" y="-17"/>
      <point x="583" y="19"/>
      <point x="648" y="90" type="curve" smooth="yes"/>
      <point x="718" y="166"/>
      <point x="766" y="300"/>
      <point x="766" y="420" type="curve" smooth="yes"/>
      <point x="766" y="599"/>
      <point x="669" y="684"/>
    </contour>
    <contour>
      <point x="447" y="524" type="curve" smooth="yes"/>
      <point x="512" y="524"/>
      <point x="542" y="486"/>
      <point x="542" y="405" type="curve" smooth="yes"/>
      <point x="542" y="354"/>
      <point x="526" y="282"/>
      <point x="503" y="237" type="curve" smooth="yes"/>
      <point x="472" y="174"/>
      <point x="429" y="143"/>
      <point x="371" y="143" type="curve" smooth="yes"/>
      <point x="306" y="143"/>
      <point x="275" y="181"/>
      <point x="275" y="260" type="curve" smooth="yes"/>
      <point x="275" y="315"/>
      <point x="290" y="384"/>
      <point x="313" y="430" type="curve" smooth="yes"/>
      <point x="345" y="494"/>
      <point x="388" y="524"/>
    </contour>
    <contour>
      <point x="393" y="752" type="line"/>
      <point x="449" y="730" type="line"/>
      <point x="726" y="836" type="line"/>
      <point x="613" y="910" type="line"/>
    </contour>
  </outline>
</glyph>
<glyph name="Ocircumflex" format="2">
  <advance width="769"/>
  <unicode hex="00D4"/>
  <outline>
    <contour>
      <point x="463" y="684" type="curve" smooth="yes"/>
      <point x="326" y="684"/>
      <point x="220" y="642"/>
      <point x="155" y="561" type="curve" smooth="yes"/>
      <point x="94" y="485"/>
      <point x="51" y="355"/>
      <point x="51" y="245" type="curve" smooth="yes"/>
      <point x="51" y="74"/>
      <point x="155" y="-17"/>
      <point x="351" y="-17" type="curve" smooth="yes"/>
      <point x="483" y="-17"/>
      <point x="583" y="19"/>
      <point x="648" y="90" type="curve" smooth="yes"/>
      <point x="718" y="166"/>
      <point x="766" y="300"/>
      <point x="766" y="420" type="curve" smooth="yes"/>
      <point x="766" y="599"/>
      <point x="669" y="684"/>
    </contour>
    <contour>
      <point x="447" y="524" type="curve" smooth="yes"/>
      <point x="512" y="524"/>
      <point x="542" y="486"/>
      <point x="542" y="405" type="curve" smooth="yes"/>
      <point x="542" y="354"/>
      <point x="526" y="282"/>
      <point x="503" y="237" type="curve" smooth="yes"/>
      <point x="472" y="174"/>
      <point x="429" y="143"/>
      <point x="371" y="143" type="curve" smooth="yes"/>
      <point x="306" y="143"/>
      <point x="275" y="181"/>
      <point x="275" y="260" type="curve" smooth="yes"/>
      <point x="275" y="315"/>
      <point x="290" y="384"/>
      <point x="313" y="430" type="curve" smooth="yes"/>
      <point x="345" y="494"/>
      <point x="388" y="524"/>
    </contour>
    <contour>
      <point x="294" y="749" type="line"/>
      <point x="348" y="740" type="line"/>
      <point x="514" y="815" type="line"/>
      <point x="651" y="740" type="line"/>
      <point x="704" y="757" type="line"/>
      <point x="575" y="900" type="line"/>
      <point x="485" y="900" type="line"/>
    </contour>
  </outline>
</glyph>
<glyph name="Otilde" format="2">
  <advance width="769"/>
  <unicode hex="00D5"/>
  <outline>
    <contour>
      <point x="463" y="684" type="curve" smooth="yes"/>
      <point x="326" y="684"/>
      <point x="220" y="642"/>
      <point x="155" y="561" type="curve" smooth="yes"/>
      <point x="94" y="485"/>
      <point x="51" y="355"/>
      <point x="51" y="245" type="curve" smooth="yes"/>
      <point x="51" y="74"/>
      <point x="155" y="-17"/>
      <point x="351" y="-17" type="curve" smooth="yes"/>
      <point x="483" y="-17"/>
      <point x="583" y="19"/>
      <point x="648" y="90" type="curve" smooth="yes"/>
      <point x="718" y="166"/>
      <point x="766" y="300"/>
      <point x="766" y="420" type="curve" smooth="yes"/>
      <point x="766" y="599"/>
      <point x="669" y="684"/>
    </contour>
    <contour>
      <point x="447" y="524" type="curve" smooth="yes"/>
      <point x="512" y="524"/>
      <point x="542" y="486"/>
      <point x="542" y="405" type="curve" smooth="yes"/>
      <point x="542" y="354"/>
      <point x="526" y="282"/>
      <point x="503" y="237" type="curve" smooth="yes"/>
      <point x="472" y="174"/>
      <point x="429" y="143"/>
      <point x="371" y="143" type="curve" smooth="yes"/>
      <point x="306" y="143"/>
      <point x="275" y="181"/>
      <point x="275" y="260" type="curve" smooth="yes"/>
      <point x="275" y="315"/>
      <point x="290" y="384"/>
      <point x="313" y="430" type="curve" smooth="yes"/>
      <point x="345" y="494"/>
      <point x="388" y="524"/>
    </contour>
    <contour>
      <point x="332" y="758" type="line"/>
      <point x="370" y="798"/>
      <point x="384" y="807"/>
      <point x="409" y="807" type="curve" smooth="yes"/>
      <point x="426" y="807"/>
      <point x="442" y="802"/>
      <point x="478" y="783" type="curve" smooth="yes"/>
      <point x="522" y="761"/>
      <point x="544" y="754"/>
      <point x="570" y="754" type="curve" smooth="yes"/>
      <point x="618" y="754" name="hr01"/>
      <point x="653" y="775"/>
      <point x="725" y="848" type="curve"/>
      <point x="690" y="882" type="line"/>
      <point x="662" y="852"/>
      <point x="629" y="836"/>
      <point x="596" y="836" type="curve" smooth="yes"/>
      <point x="579" y="836"/>
      <point x="560" y="842"/>
      <point x="530" y="857" type="curve" smooth="yes"/>
      <point x="486" y="879"/>
      <point x="469" y="884"/>
      <point x="444" y="884" type="curve" smooth="yes"/>
      <point x="395" y="884" name="hr02"/>
      <point x="362" y="863"/>
      <point x="297" y="792" type="curve"/>
    </contour>
  </outline>
</glyph>
<glyph name="multiply" format="2">
  <advance width="607"/>
  <unicode hex="00D7"/>
  <outline>
    <contour>
      <point x="29.6486" y="205" type="line"/>
      <point x="137.081" y="80" type="line"/>
      <point x="288.773" y="213" type="line"/>
      <point x="402.081" y="80" type="line"/>
      <point x="550.351" y="210" type="line"/>
      <point x="435.903" y="342" type="line"/>
      <point x="587.595" y="475" type="line"/>
      <point x="480.162" y="600" type="line"/>
      <point x="328.47" y="467" type="line"/>
      <point x="215.162" y="600" type="line"/>
      <point x="66.8919" y="470" type="line"/>
      <point x="181.341" y="338" type="line"/>
    </contour>
  </outline>
</glyph>
<glyph name="Oslash" format="2">
  <advance width="769"/>
  <unicode hex="00D8"/>
  <outline>
    <contour>
      <point x="104" y="-53" type="line"/>
      <point x="169" y="20" type="line"/>
      <point x="234" y="-7"/>
      <point x="286" y="-17"/>
      <point x="359" y="-17" type="curve" smooth="yes"/>
      <point x="491" y="-17"/>
      <point x="601" y="27"/>
      <point x="663" y="105" type="curve" smooth="yes"/>
      <point x="725" y="184"/>
      <point x="767" y="311"/>
      <point x="767" y="420" type="curve" smooth="yes"/>
      <point x="767" y="503"/>
      <point x="748" y="559"/>
      <point x="700" y="612" type="curve"/>
      <point x="762" y="678" type="line"/>
      <point x="717" y="715" type="line"/>
      <point x="654" y="646" type="line"/>
      <point x="598" y="675"/>
      <point x="552" y="684"/>
      <point x="465" y="684" type="curve" smooth="yes"/>
      <point x="330" y="684"/>
      <point x="231" y="648"/>
      <point x="168" y="576" type="curve" smooth="yes"/>
      <point x="94" y="491"/>
      <point x="51" y="371"/>
      <point x="51" y="250" type="curve" smooth="yes"/>
      <point x="51" y="160"/>
      <point x="68" y="113"/>
      <point x="121" y="53" type="curve"/>
      <point x="59" y="-16" type="line"/>
    </contour>
    <contour>
      <point x="278" y="225" type="line"/>
      <point x="276" y="248"/>
      <point x="275" y="265"/>
      <point x="275" y="276" type="curve" smooth="yes"/>
      <point x="275" y="343"/>
      <point x="300" y="420"/>
      <point x="339" y="471" type="curve" smooth="yes"/>
      <point x="364" y="504"/>
      <point x="403" y="524"/>
      <point x="443" y="524" type="curve" smooth="yes"/>
      <point x="470" y="524"/>
      <point x="490" y="518"/>
      <point x="516" y="502" type="curve"/>
    </contour>
    <contour>
      <point x="540" y="446" type="line"/>
      <point x="542" y="427"/>
      <point x="543" y="411"/>
      <point x="543" y="402" type="curve" smooth="yes"/>
      <point x="543" y="350"/>
      <point x="528" y="287"/>
      <point x="506" y="242" type="curve" smooth="yes"/>
      <point x="473" y="174"/>
      <point x="431" y="143"/>
      <point x="373" y="143" type="curve" smooth="yes"/>
      <point x="341" y="143"/>
      <point x="326" y="148"/>
      <point x="304" y="167" type="curve"/>
    </contour>
  </outline>
</glyph>
<glyph name="Ugrave" format="2">
  <advance width="731"/>
  <unicode hex="00D9"/>
  <outline>
    <contour>
      <point x="155" y="667" type="line"/>
      <point x="68" y="257" type="line" smooth="yes"/>
      <point x="62" y="230"/>
      <point x="59" y="202"/>
      <point x="59" y="177" type="curve" smooth="yes"/>
      <point x="59" y="112"/>
      <point x="85" y="59"/>
      <point x="131" y="26" type="curve" smooth="yes"/>
      <point x="174" y="-5"/>
      <point x="227" y="-17"/>
      <point x="315" y="-17" type="curve" smooth="yes"/>
      <point x="527" y="-17"/>
      <point x="638" y="67"/>
      <point x="678" y="256" type="curve" smooth="yes"/>
      <point x="766" y="667" type="line"/>
      <point x="559" y="667" type="line"/>
      <point x="472" y="257" type="line" smooth="yes"/>
      <point x="456" y="180"/>
      <point x="416" y="143"/>
      <point x="351" y="143" type="curve" smooth="yes"/>
      <point x="297" y="143"/>
      <point x="268" y="164"/>
      <point x="268" y="204" type="curve" smooth="yes"/>
      <point x="268" y="218"/>
      <point x="271" y="238"/>
      <point x="275" y="257" type="curve" smooth="yes"/>
      <point x="362" y="667" type="line"/>
    </contour>
    <contour>
      <point x="592" y="752" type="line"/>
      <point x="371" y="910" type="line"/>
      <point x="259" y="836" type="line"/>
      <point x="535" y="730" type="line"/>
    </contour>
  </outline>
</glyph>
<glyph name="Uacute" format="2">
  <advance width="731"/>
  <unicode hex="00DA"/>
  <outline>
    <contour>
      <point x="155" y="667" type="line"/>
      <point x="68" y="257" type="line" smooth="yes"/>
      <point x="62" y="230"/>
      <point x="59" y="202"/>
      <point x="59" y="177" type="curve" smooth="yes"/>
      <point x="59" y="112"/>
      <point x="85" y="59"/>
      <point x="131" y="26" type="curve" smooth="yes"/>
      <point x="174" y="-5"/>
      <point x="227" y="-17"/>
      <point x="315" y="-17" type="curve" smooth="yes"/>
      <point x="527" y="-17"/>
      <point x="638" y="67"/>
      <point x="678" y="256" type="curve" smooth="yes"/>
      <point x="766" y="667" type="line"/>
      <point x="559" y="667" type="line"/>
      <point x="472" y="257" type="line" smooth="yes"/>
      <point x="456" y="180"/>
      <point x="416" y="143"/>
      <point x="351" y="143" type="curve" smooth="yes"/>
      <point x="297" y="143"/>
      <point x="268" y="164"/>
      <point x="268" y="204" type="curve" smooth="yes"/>
      <point x="268" y="218"/>
      <point x="271" y="238"/>
      <point x="275" y="257" type="curve" smooth="yes"/>
      <point x="362" y="667" type="line"/>
    </contour>
    <contour>
      <point x="390" y="752" type="line"/>
      <point x="446" y="730" type="line"/>
      <point x="723" y="836" type="line"/>
      <point x="610" y="910" type="line"/>
    </contour>
  </outline>
</glyph>
<glyph name="Ucircumflex" format="2">
  <advance width="731"/>
  <unicode hex="00DB"/>
  <outline>
    <contour>
      <point x="155" y="667" type="line"/>
      <point x="68" y="257" type="line" smooth="yes"/>
      <point x="62" y="230"/>
      <point x="59" y="202"/>
      <point x="59" y="177" type="curve" smooth="yes"/>
      <point x="59" y="112"/>
      <point x="85" y="59"/>
      <point x="131" y="26" type="curve" smooth="yes"/>
      <point x="174" y="-5"/>
      <point x="227" y="-17"/>
      <point x="315" y="-17" type="curve" smooth="yes"/>
      <point x="527" y="-17"/>
      <point x="638" y="67"/>
      <point x="678" y="256" type="curve" smooth="yes"/>
      <point x="766" y="667" type="line"/>
      <point x="559" y="667" type="line"/>
      <point x="472" y="257" type="line" smooth="yes"/>
      <point x="456" y="180"/>
      <point x="416" y="143"/>
      <point x="351" y="143" type="curve" smooth="yes"/>
      <point x="297" y="143"/>
      <point x="268" y="164"/>
      <point x="268" y="204" type="curve" smooth="yes"/>
      <point x="268" y="218"/>
      <point x="271" y="238"/>
      <point x="275" y="257" type="curve" smooth="yes"/>
      <point x="362" y="667" type="line"/>
    </contour>
    <contour>
      <point x="269" y="749" type="line"/>
      <point x="323" y="740" type="line"/>
      <point x="489" y="815" type="line"/>
      <point x="626" y="740" type="line"/>
      <point x="679" y="757" type="line"/>
      <point x="550" y="900" type="line"/>
      <point x="460" y="900" type="line"/>
    </contour>
  </outline>
</glyph>
<glyph name="Udieresis" format="2">
  <advance width="731"/>
  <unicode hex="00DC"/>
  <outline>
    <contour>
      <point x="155" y="667" type="line"/>
      <point x="68" y="257" type="line" smooth="yes"/>
      <point x="62" y="230"/>
      <point x="59" y="202"/>
      <point x="59" y="177" type="curve" smooth="yes"/>
      <point x="59" y="112"/>
      <point x="85" y="59"/>
      <point x="131" y="26" type="curve" smooth="yes"/>
      <point x="174" y="-5"/>
      <point x="227" y="-17"/>
      <point x="315" y="-17" type="curve" smooth="yes"/>
      <point x="527" y="-17"/>
      <point x="638" y="67"/>
      <point x="678" y="256" type="curve" smooth="yes"/>
      <point x="766" y="667" type="line"/>
      <point x="559" y="667" type="line"/>
      <point x="472" y="257" type="line" smooth="yes"/>
      <point x="456" y="180"/>
      <point x="416" y="143"/>
      <point x="351" y="143" type="curve" smooth="yes"/>
      <point x="297" y="143"/>
      <point x="268" y="164"/>
      <point x="268" y="204" type="curve" smooth="yes"/>
      <point x="268" y="218"/>
      <point x="271" y="238"/>
      <point x="275" y="257" type="curve" smooth="yes"/>
      <point x="362" y="667" type="line"/>
    </contour>
    <contour>
      <point x="369" y="914" type="curve" smooth="yes"/>
      <point x="311" y="914"/>
      <point x="268" y="873"/>
      <point x="268" y="818" type="curve" smooth="yes"/>
      <point x="268" y="763"/>
      <point x="305" y="727"/>
      <point x="361" y="727" type="curve" smooth="yes"/>
      <point x="418" y="727"/>
      <point x="461" y="770"/>
      <point x="461" y="827" type="curve" smooth="yes"/>
      <point x="461" y="877"/>
      <point x="422" y="914"/>
    </contour>
    <contour>
      <point x="616" y="914" type="curve" smooth="yes"/>
      <point x="561" y="914"/>
      <point x="518" y="872"/>
      <point x="518" y="818" type="curve" smooth="yes"/>
      <point x="518" y="763"/>
      <point x="555" y="727"/>
      <point x="612" y="727" type="curve" smooth="yes"/>
      <point x="670" y="727"/>
      <point x="711" y="768"/>
      <point x="711" y="826" type="curve" smooth="yes"/>
      <point x="711" y="879"/>
      <point x="673" y="914"/>
    </contour>
  </outline>
</glyph>
<glyph name="Yacute" format="2">
  <advance width="621"/>
  <unicode hex="00DD"/>
  <outline>
    <contour>
      <point x="160" y="0" type="line"/>
      <point x="367" y="0" type="line"/>
      <point x="423" y="266" type="line"/>
      <point x="753" y="667" type="line"/>
      <point x="527" y="667" type="line"/>
      <point x="358" y="443" type="line"/>
      <point x="284" y="667" type="line"/>
      <point x="55" y="667" type="line"/>
      <point x="215" y="257" type="line"/>
    </contour>
    <contour>
      <point x="334" y="752" type="line"/>
      <point x="390" y="730" type="line"/>
      <point x="667" y="836" type="line"/>
      <point x="554" y="910" type="line"/>
    </contour>
  </outline>
</glyph>
<glyph name="Thorn" format="2">
  <advance width="651"/>
  <unicode hex="00DE"/>
  <outline>
    <contour>
      <point x="19" y="0" type="line"/>
      <point x="226" y="0" type="line"/>
      <point x="255" y="139" type="line"/>
      <point x="311" y="139" type="line" smooth="yes"/>
      <point x="427" y="139"/>
      <point x="516" y="168"/>
      <point x="579" y="225" type="curve" smooth="yes"/>
      <point x="634" y="276"/>
      <point x="668" y="350"/>
      <point x="668" y="421" type="curve" smooth="yes"/>
      <point x="668" y="477"/>
      <point x="641" y="530"/>
      <point x="600" y="553" type="curve" smooth="yes"/>
      <point x="563" y="575"/>
      <point x="507" y="587"/>
      <point x="440" y="587" type="curve" smooth="yes"/>
      <point x="350" y="587" type="line"/>
      <point x="367" y="667" type="line"/>
      <point x="161" y="667" type="line"/>
    </contour>
    <contour>
      <point x="289" y="297" type="line"/>
      <point x="317" y="428" type="line"/>
      <point x="356" y="428" type="line"/>
      <point x="388" y="429" type="line"/>
      <point x="428" y="429"/>
      <point x="449" y="411"/>
      <point x="449" y="376" type="curve" smooth="yes"/>
      <point x="449" y="348"/>
      <point x="434" y="321"/>
      <point x="411" y="310" type="curve" smooth="yes"/>
      <point x="392" y="300"/>
      <point x="368" y="297"/>
      <point x="317" y="297" type="curve" smooth="yes"/>
    </contour>
  </outline>
</glyph>
<glyph name="germandbls" format="2">
  <advance width="642"/>
  <unicode hex="00DF"/>
  <outline>
    <contour>
      <point x="13" y="0" type="line"/>
      <point x="206" y="0" type="line"/>
      <point x="300" y="440" type="line" smooth="yes"/>
      <point x="320" y="534"/>
      <point x="345" y="568"/>
      <point x="396" y="568" type="curve" smooth="yes"/>
      <point x="429" y="568"/>
      <point x="451" y="547"/>
      <point x="451" y="517" type="curve" smooth="yes"/>
      <point x="451" y="496"/>
      <point x="438" y="472"/>
      <point x="402" y="429" type="curve" smooth="yes"/>
      <point x="358" y="374"/>
      <point x="350" y="360"/>
      <point x="350" y="330" type="curve" smooth="yes"/>
      <point x="350" y="310"/>
      <point x="355" y="291"/>
      <point x="369" y="264" type="curve"/>
      <point x="392" y="216"/>
      <point x="393" y="213" name="hr01"/>
      <point x="393" y="197" type="curve" smooth="yes"/>
      <point x="393" y="172"/>
      <point x="369" y="148"/>
      <point x="343" y="148" type="curve" smooth="yes"/>
      <point x="335" y="148"/>
      <point x="323" y="150"/>
      <point x="313" y="152" type="curve"/>
      <point x="251" y="5" type="line"/>
      <point x="295" y="-4"/>
      <point x="325" y="-7"/>
      <point x="362" y="-7" type="curve" smooth="yes"/>
      <point x="451" y="-7" name="hr02"/>
      <point x="517" y="15"/>
      <point x="559" y="58" type="curve" smooth="yes"/>
      <point x="593" y="93"/>
      <point x="614" y="140" name="hr03"/>
      <point x="614" y="182" type="curve" smooth="yes"/>
      <point x="614" y="206"/>
      <point x="607" y="234"/>
      <point x="595" y="262" type="curve"/>
      <point x="553" y="353"/>
      <point x="551" y="358"/>
      <point x="551" y="378" type="curve" smooth="yes"/>
      <point x="551" y="397"/>
      <point x="556" y="408"/>
      <point x="578" y="443" type="curve" smooth="yes"/>
      <point x="605" y="485"/>
      <point x="617" y="519" name="hr04"/>
      <point x="617" y="558" type="curve" smooth="yes"/>
      <point x="617" y="654"/>
      <point x="537" y="707"/>
      <point x="394" y="707" type="curve" smooth="yes"/>
      <point x="291" y="707"/>
      <point x="221" y="678"/>
      <point x="172" y="616" type="curve" smooth="yes"/>
      <point x="143" y="580"/>
      <point x="127" y="540"/>
      <point x="112" y="467" type="curve"/>
      <point x="44" y="467" type="line"/>
      <point x="13" y="319" type="line"/>
      <point x="81" y="319" type="line"/>
    </contour>
  </outline>
</glyph>
<glyph name="agrave" format="2">
  <advance width="637"/>
  <unicode hex="00E0"/>
  <outline>
    <contour>
      <point x="446" y="467" type="line"/>
      <point x="437" y="423" type="line"/>
      <point x="397" y="466"/>
      <point x="363" y="481" name="hr01"/>
      <point x="307" y="481" type="curve" smooth="yes"/>
      <point x="231" y="481"/>
      <point x="157" y="446"/>
      <point x="108" y="388" type="curve" smooth="yes"/>
      <point x="59" y="330"/>
      <point x="28" y="240"/>
      <point x="28" y="158" type="curve" smooth="yes"/>
      <point x="28" y="52"/>
      <point x="92" y="-13"/>
      <point x="195" y="-13" type="curve" smooth="yes"/>
      <point x="254" y="-13"/>
      <point x="299" y="3"/>
      <point x="357" y="47" type="curve"/>
      <point x="347" y="0" type="line"/>
      <point x="541" y="0" type="line"/>
      <point x="640" y="467" type="line" name="hr02"/>
    </contour>
    <contour>
      <point x="342" y="344" type="curve" smooth="yes"/>
      <point x="380" y="344"/>
      <point x="402" y="317"/>
      <point x="402" y="272" type="curve" smooth="yes"/>
      <point x="402" y="190"/>
      <point x="352" y="123"/>
      <point x="291" y="123" type="curve" smooth="yes"/>
      <point x="255" y="123"/>
      <point x="234" y="149"/>
      <point x="234" y="192" type="curve" smooth="yes"/>
      <point x="234" y="275"/>
      <point x="283" y="344"/>
    </contour>
    <contour>
      <point x="474" y="521" type="line"/>
      <point x="531" y="530" type="line"/>
      <point x="392" y="714" type="line"/>
      <point x="259" y="675" type="line"/>
    </contour>
  </outline>
</glyph>
<glyph name="aacute" format="2">
  <advance width="637"/>
  <unicode hex="00E1"/>
  <outline>
    <contour>
      <point x="446" y="467" type="line"/>
      <point x="437" y="423" type="line"/>
      <point x="397" y="466"/>
      <point x="363" y="481" name="hr01"/>
      <point x="307" y="481" type="curve" smooth="yes"/>
      <point x="231" y="481"/>
      <point x="157" y="446"/>
      <point x="108" y="388" type="curve" smooth="yes"/>
      <point x="59" y="330"/>
      <point x="28" y="240"/>
      <point x="28" y="158" type="curve" smooth="yes"/>
      <point x="28" y="52"/>
      <point x="92" y="-13"/>
      <point x="195" y="-13" type="curve" smooth="yes"/>
      <point x="254" y="-13"/>
      <point x="299" y="3"/>
      <point x="357" y="47" type="curve"/>
      <point x="347" y="0" type="line"/>
      <point x="541" y="0" type="line"/>
      <point x="640" y="467" type="line" name="hr02"/>
    </contour>
    <contour>
      <point x="342" y="344" type="curve" smooth="yes"/>
      <point x="380" y="344"/>
      <point x="402" y="317"/>
      <point x="402" y="272" type="curve" smooth="yes"/>
      <point x="402" y="190"/>
      <point x="352" y="123"/>
      <point x="291" y="123" type="curve" smooth="yes"/>
      <point x="255" y="123"/>
      <point x="234" y="149"/>
      <point x="234" y="192" type="curve" smooth="yes"/>
      <point x="234" y="275"/>
      <point x="283" y="344"/>
    </contour>
    <contour>
      <point x="329" y="537" type="line"/>
      <point x="387" y="521" type="line"/>
      <point x="654" y="649" type="line"/>
      <point x="535" y="714" type="line"/>
    </contour>
  </outline>
</glyph>
<glyph name="acircumflex" format="2">
  <advance width="637"/>
  <unicode hex="00E2"/>
  <outline>
    <contour>
      <point x="446" y="467" type="line"/>
      <point x="437" y="423" type="line"/>
      <point x="397" y="466"/>
      <point x="363" y="481" name="hr01"/>
      <point x="307" y="481" type="curve" smooth="yes"/>
      <point x="231" y="481"/>
      <point x="157" y="446"/>
      <point x="108" y="388" type="curve" smooth="yes"/>
      <point x="59" y="330"/>
      <point x="28" y="240"/>
      <point x="28" y="158" type="curve" smooth="yes"/>
      <point x="28" y="52"/>
      <point x="92" y="-13"/>
      <point x="195" y="-13" type="curve" smooth="yes"/>
      <point x="254" y="-13"/>
      <point x="299" y="3"/>
      <point x="357" y="47" type="curve"/>
      <point x="347" y="0" type="line"/>
      <point x="541" y="0" type="line"/>
      <point x="640" y="467" type="line" name="hr02"/>
    </contour>
    <contour>
      <point x="342" y="344" type="curve" smooth="yes"/>
      <point x="380" y="344"/>
      <point x="402" y="317"/>
      <point x="402" y="272" type="curve" smooth="yes"/>
      <point x="402" y="190"/>
      <point x="352" y="123"/>
      <point x="291" y="123" type="curve" smooth="yes"/>
      <point x="255" y="123"/>
      <point x="234" y="149"/>
      <point x="234" y="192" type="curve" smooth="yes"/>
      <point x="234" y="275"/>
      <point x="283" y="344"/>
    </contour>
    <contour>
      <point x="207" y="540" type="line"/>
      <point x="261" y="530" type="line"/>
      <point x="418" y="620" type="line"/>
      <point x="545" y="530" type="line"/>
      <point x="598" y="545" type="line"/>
      <point x="479" y="705" type="line"/>
      <point x="389" y="705" type="line"/>
    </contour>
  </outline>
</glyph>
<glyph name="atilde" format="2">
  <advance width="637"/>
  <unicode hex="00E3"/>
  <outline>
    <contour>
      <point x="446" y="467" type="line"/>
      <point x="437" y="423" type="line"/>
      <point x="397" y="466"/>
      <point x="363" y="481" name="hr01"/>
      <point x="307" y="481" type="curve" smooth="yes"/>
      <point x="231" y="481"/>
      <point x="157" y="446"/>
      <point x="108" y="388" type="curve" smooth="yes"/>
      <point x="59" y="330"/>
      <point x="28" y="240"/>
      <point x="28" y="158" type="curve" smooth="yes"/>
      <point x="28" y="52"/>
      <point x="92" y="-13"/>
      <point x="195" y="-13" type="curve" smooth="yes"/>
      <point x="254" y="-13"/>
      <point x="299" y="3"/>
      <point x="357" y="47" type="curve"/>
      <point x="347" y="0" type="line"/>
      <point x="541" y="0" type="line"/>
      <point x="640" y="467" type="line" name="hr02"/>
    </contour>
    <contour>
      <point x="342" y="344" type="curve" smooth="yes"/>
      <point x="380" y="344"/>
      <point x="402" y="317"/>
      <point x="402" y="272" type="curve" smooth="yes"/>
      <point x="402" y="190"/>
      <point x="352" y="123"/>
      <point x="291" y="123" type="curve" smooth="yes"/>
      <point x="255" y="123"/>
      <point x="234" y="149"/>
      <point x="234" y="192" type="curve" smooth="yes"/>
      <point x="234" y="275"/>
      <point x="283" y="344"/>
    </contour>
    <contour>
      <point x="233" y="552" type="line"/>
      <point x="266" y="588"/>
      <point x="287" y="602"/>
      <point x="311" y="602" type="curve" smooth="yes"/>
      <point x="325" y="602"/>
      <point x="340" y="597"/>
      <point x="371" y="582" type="curve" smooth="yes"/>
      <point x="417" y="559"/>
      <point x="435" y="553"/>
      <point x="455" y="553" type="curve" smooth="yes"/>
      <point x="498" y="553"/>
      <point x="570" y="597"/>
      <point x="608" y="646" type="curve"/>
      <point x="573" y="680" type="line"/>
      <point x="546" y="650"/>
      <point x="509" y="630"/>
      <point x="480" y="630" type="curve" smooth="yes"/>
      <point x="466" y="630"/>
      <point x="457" y="633"/>
      <point x="423" y="650" type="curve" smooth="yes"/>
      <point x="390" y="667"/>
      <point x="356" y="678"/>
      <point x="339" y="678" type="curve" smooth="yes"/>
      <point x="315" y="678"/>
      <point x="278" y="663"/>
      <point x="254" y="643" type="curve" smooth="yes"/>
      <point x="239" y="630"/>
      <point x="231" y="622" name="hr06"/>
      <point x="200" y="587" type="curve"/>
    </contour>
  </outline>
</glyph>
<glyph name="adieresis" format="2">
  <advance width="637"/>
  <unicode hex="00E4"/>
  <outline>
    <contour>
      <point x="446" y="467" type="line"/>
      <point x="437" y="423" type="line"/>
      <point x="397" y="466"/>
      <point x="363" y="481" name="hr01"/>
      <point x="307" y="481" type="curve" smooth="yes"/>
      <point x="231" y="481"/>
      <point x="157" y="446"/>
      <point x="108" y="388" type="curve" smooth="yes"/>
      <point x="59" y="330"/>
      <point x="28" y="240"/>
      <point x="28" y="158" type="curve" smooth="yes"/>
      <point x="28" y="52"/>
      <point x="92" y="-13"/>
      <point x="195" y="-13" type="curve" smooth="yes"/>
      <point x="254" y="-13"/>
      <point x="299" y="3"/>
      <point x="357" y="47" type="curve"/>
      <point x="347" y="0" type="line"/>
      <point x="541" y="0" type="line"/>
      <point x="640" y="467" type="line" name="hr02"/>
    </contour>
    <contour>
      <point x="342" y="344" type="curve" smooth="yes"/>
      <point x="380" y="344"/>
      <point x="402" y="317"/>
      <point x="402" y="272" type="curve" smooth="yes"/>
      <point x="402" y="190"/>
      <point x="352" y="123"/>
      <point x="291" y="123" type="curve" smooth="yes"/>
      <point x="255" y="123"/>
      <point x="234" y="149"/>
      <point x="234" y="192" type="curve" smooth="yes"/>
      <point x="234" y="275"/>
      <point x="283" y="344"/>
    </contour>
    <contour>
      <point x="284" y="714" type="curve" smooth="yes"/>
      <point x="228" y="714"/>
      <point x="186" y="675"/>
      <point x="186" y="621" type="curve" smooth="yes"/>
      <point x="186" y="568"/>
      <point x="222" y="533"/>
      <point x="277" y="533" type="curve" smooth="yes"/>
      <point x="332" y="533"/>
      <point x="374" y="574"/>
      <point x="374" y="629" type="curve" smooth="yes"/>
      <point x="374" y="678"/>
      <point x="336" y="714"/>
    </contour>
    <contour>
      <point x="523" y="714" type="curve" smooth="yes"/>
      <point x="469" y="714"/>
      <point x="427" y="674"/>
      <point x="427" y="621" type="curve" smooth="yes"/>
      <point x="427" y="568"/>
      <point x="463" y="533"/>
      <point x="518" y="533" type="curve" smooth="yes"/>
      <point x="575" y="533"/>
      <point x="615" y="573"/>
      <point x="615" y="629" type="curve" smooth="yes"/>
      <point x="615" y="680"/>
      <point x="578" y="714"/>
    </contour>
  </outline>
</glyph>
<glyph name="aring" format="2">
  <advance width="637"/>
  <unicode hex="00E5"/>
  <outline>
    <contour>
      <point x="446" y="467" type="line"/>
      <point x="437" y="423" type="line"/>
      <point x="397" y="466"/>
      <point x="363" y="481" name="hr01"/>
      <point x="307" y="481" type="curve" smooth="yes"/>
      <point x="231" y="481"/>
      <point x="157" y="446"/>
      <point x="108" y="388" type="curve" smooth="yes"/>
      <point x="59" y="330"/>
      <point x="28" y="240"/>
      <point x="28" y="158" type="curve" smooth="yes"/>
      <point x="28" y="52"/>
      <point x="92" y="-13"/>
      <point x="195" y="-13" type="curve" smooth="yes"/>
      <point x="254" y="-13"/>
      <point x="299" y="3"/>
      <point x="357" y="47" type="curve"/>
      <point x="347" y="0" type="line"/>
      <point x="541" y="0" type="line"/>
      <point x="640" y="467" type="line" name="hr02"/>
    </contour>
    <contour>
      <point x="342" y="344" type="curve" smooth="yes"/>
      <point x="380" y="344"/>
      <point x="402" y="317"/>
      <point x="402" y="272" type="curve" smooth="yes"/>
      <point x="402" y="190"/>
      <point x="352" y="123"/>
      <point x="291" y="123" type="curve" smooth="yes"/>
      <point x="255" y="123"/>
      <point x="234" y="149"/>
      <point x="234" y="192" type="curve" smooth="yes"/>
      <point x="234" y="275"/>
      <point x="283" y="344"/>
    </contour>
    <contour>
      <point x="440" y="720" type="curve" smooth="yes"/>
      <point x="350" y="720"/>
      <point x="292" y="678"/>
      <point x="292" y="614" type="curve" smooth="yes"/>
      <point x="292" y="557"/>
      <point x="338" y="526"/>
      <point x="420" y="526" type="curve" smooth="yes"/>
      <point x="509" y="526"/>
      <point x="567" y="568"/>
      <point x="567" y="633" type="curve" smooth="yes"/>
      <point x="567" y="688"/>
      <point x="521" y="720"/>
    </contour>
    <contour>
      <point x="435" y="677" type="curve" smooth="yes"/>
      <point x="466" y="677"/>
      <point x="486" y="658"/>
      <point x="486" y="629" type="curve" smooth="yes"/>
      <point x="486" y="595"/>
      <point x="460" y="569"/>
      <point x="424" y="569" type="curve" smooth="yes"/>
      <point x="392" y="569"/>
      <point x="373" y="587"/>
      <point x="373" y="617" type="curve" smooth="yes"/>
      <point x="373" y="652"/>
      <point x="399" y="677"/>
    </contour>
  </outline>
</glyph>
<glyph name="ae" format="2">
  <advance width="855"/>
  <unicode hex="00E6"/>
  <outline>
    <contour>
      <point x="215" y="304" type="line"/>
      <point x="236" y="350"/>
      <point x="260" y="370"/>
      <point x="298" y="370" type="curve" smooth="yes"/>
      <point x="325" y="370"/>
      <point x="343" y="356"/>
      <point x="343" y="334" type="curve" smooth="yes"/>
      <point x="343" y="303"/>
      <point x="316" y="288"/>
      <point x="239" y="278" type="curve" smooth="yes"/>
      <point x="144" y="266"/>
      <point x="91" y="250"/>
      <point x="52" y="218" type="curve" smooth="yes"/>
      <point x="23" y="195"/>
      <point x="4" y="155"/>
      <point x="4" y="114" type="curve" smooth="yes"/>
      <point x="4" y="38"/>
      <point x="61" y="-14"/>
      <point x="144" y="-14" type="curve" smooth="yes"/>
      <point x="216" y="-14"/>
      <point x="271" y="13"/>
      <point x="325" y="76" type="curve"/>
      <point x="364" y="11"/>
      <point x="421" y="-13"/>
      <point x="532" y="-13" type="curve" smooth="yes"/>
      <point x="589" y="-13"/>
      <point x="643" y="-4"/>
      <point x="680" y="11" type="curve" smooth="yes"/>
      <point x="724" y="29"/>
      <point x="750" y="53"/>
      <point x="781" y="106" type="curve"/>
      <point x="620" y="152" type="line"/>
      <point x="595" y="108"/>
      <point x="574" y="92"/>
      <point x="542" y="92" type="curve" smooth="yes"/>
      <point x="509" y="92"/>
      <point x="487" y="113"/>
      <point x="487" y="144" type="curve" smooth="yes"/>
      <point x="487" y="161"/>
      <point x="489" y="174"/>
      <point x="498" y="207" type="curve"/>
      <point x="818" y="207" type="line"/>
      <point x="831" y="245"/>
      <point x="835" y="270"/>
      <point x="835" y="303" type="curve" smooth="yes"/>
      <point x="835" y="424"/>
      <point x="769" y="480"/>
      <point x="626" y="480" type="curve" smooth="yes"/>
      <point x="550" y="480"/>
      <point x="503" y="469"/>
      <point x="458" y="441" type="curve"/>
      <point x="426" y="469"/>
      <point x="387" y="480"/>
      <point x="319" y="480" type="curve" smooth="yes"/>
      <point x="183" y="480"/>
      <point x="103" y="437"/>
      <point x="69" y="345" type="curve"/>
    </contour>
    <contour>
      <point x="319" y="207" type="curve"/>
      <point x="310" y="138"/>
      <point x="276" y="96" name="hr01"/>
      <point x="229" y="96" type="curve" smooth="yes"/>
      <point x="207" y="96"/>
      <point x="191" y="110"/>
      <point x="191" y="130" type="curve" smooth="yes"/>
      <point x="191" y="147"/>
      <point x="199" y="162"/>
      <point x="214" y="175" type="curve" smooth="yes"/>
      <point x="234" y="191"/>
      <point x="247" y="195"/>
      <point x="312" y="205" type="curve"/>
      <point x="313" y="206"/>
      <point x="317" y="207"/>
    </contour>
    <contour>
      <point x="518" y="290" type="line"/>
      <point x="534" y="347"/>
      <point x="564" y="377"/>
      <point x="605" y="377" type="curve" smooth="yes"/>
      <point x="638" y="377"/>
      <point x="657" y="359"/>
      <point x="657" y="328" type="curve" smooth="yes"/>
      <point x="657" y="319"/>
      <point x="656" y="308"/>
      <point x="653" y="290" type="curve"/>
    </contour>
  </outline>
</glyph>
